<mxfile host="app.diagrams.net" modified="2024-07-18T09:55:12.269Z" agent="Mozilla/5.0 (Windows NT 10.0; Win64; x64) AppleWebKit/537.36 (KHTML, like Gecko) Chrome/126.0.0.0 Safari/537.36 Edg/126.0.0.0" etag="hUn7OeXBliE2oAd6d-CO" version="24.7.1" type="github">
  <diagram name="第 1 页" id="mvldMogt1je2Nad3wAbA">
    <mxGraphModel dx="1573" dy="1473" grid="1" gridSize="10" guides="1" tooltips="1" connect="1" arrows="1" fold="1" page="1" pageScale="1" pageWidth="827" pageHeight="1169" math="0" shadow="0">
      <root>
        <mxCell id="0" />
        <mxCell id="1" parent="0" />
        <mxCell id="F-9ztQ3IZIlNfO3_O9eN-1" value="" style="shape=image;verticalLabelPosition=bottom;labelBackgroundColor=default;verticalAlign=top;aspect=fixed;imageAspect=0;image=data:image/svg+xml,PHN2ZyB4bWxuczp4bGluaz0iaHR0cDovL3d3dy53My5vcmcvMTk5OS94bGluayIgeG1sbnM9Imh0dHA6Ly93d3cudzMub3JnLzIwMDAvc3ZnIiBoZWlnaHQ9IjIwMCIgd2lkdGg9IjIwMCIgdmVyc2lvbj0iMS4xIiB2aWV3Qm94PSIwIDAgMTAyNCAxMDI0IiBjbGFzcz0iaWNvbiI+PHBhdGggZmlsbD0iI0ZGQTUwMCIgZD0iTTk2Ni4zODU4IDc0LjI2OTY3OW0tMzcuMTE4ODQgMGEzNy4xMTg4NCAzNy4xMTg4NCAwIDEgMCA3NC4yMzc2OCAwIDM3LjExODg0IDM3LjExODg0IDAgMSAwLTc0LjIzNzY4IDBaIi8+PHBhdGggZmlsbD0iI0ZGQTUwMCIgZD0iTTgxNS45OTA1IDI1OC40NTU5MjNjLTIwOS40MDE0NTYgMjA5LjQwMTQ1Ni01MjMuNTAzNjQxIDIyNC4zNzY5ODgtNjg4LjEwNjQ5NiAzODguODUxODQ5LTE2NC42MDI4NTYgMTY0LjYwMjg1Ni02Mi43MTgwNCAyODYuNTgzMDQ0LTMyLjg5NDk3MiAzMTYuNDA2MTEyIDI5Ljk1MTA2NCAyOS45NTEwNjQgMTgxLjQ5ODMyOCAxMTMuNTMyNDUyIDMyNy45MjU3NTItMzIuODk0OTcyQzU4Ny41MTc2NCA3NjYuMzQ0MDUyIDYwNi41ODkwNDQgNDY3Ljg1NzM3OSA4MTUuOTkwNSAyNTguNDU1OTIzek0yMTcuNDgxMjA0IDg4OC43MDgyMjhjLTUuNjMxODI0IDAtMTEuMTM1NjUyLTIuMTc1OTMyLTE1LjM1OTUyLTYuMzk5OGwtNDkuOTE4NDQtNDkuOTE4NDRjLTguNDQ3NzM2LTguNDQ3NzM2LTguNDQ3NzM2LTIyLjI3MTMwNCAwLTMwLjcxOTA0IDQuMjIzODY4LTQuMjIzODY4IDkuODU1NjkyLTYuMzk5OCAxNS4zNTk1Mi02LjM5OTggNS42MzE4MjQgMCAxMS4xMzU2NTIgMi4xNzU5MzIgMTUuMzU5NTIgNi4zOTk4bDQ5LjkxODQ0IDQ5LjkxODQ0YzguNDQ3NzM2IDguNDQ3NzM2IDguNDQ3NzM2IDIyLjI3MTMwNCAwIDMwLjcxOTA0LTQuMjIzODY4IDQuMzUxODY0LTkuODU1NjkyIDYuMzk5OC0xNS4zNTk1MiA2LjM5OTh6Ii8+PHBhdGggZmlsbD0iIzlCNUY0RiIgZD0iTTYzOC44NDQwMzYgNTYzLjcyNjM4NGM0OC44OTQ0NzItMTE5LjQyMDI2OCAxMDguNDEyNjEyLTIwOC41MDU0ODQgMTUyLjE4NzI0NC0yNjQuNTY3NzMzIDQuMDk1ODcyIDEuNjYzOTQ4IDguOTU5NzIgMC43Njc5NzYgMTIuMjg3NjE2LTIuNTU5OTJsMzIuODk0OTcyLTMyLjg5NDk3MmM0LjQ3OTg2LTQuNDc5ODYgNC40Nzk4Ni0xMS42NDc2MzYgMC0xNi4xMjc0OTZsLTAuODk1OTcyLTAuODk1OTcyYzguNTc1NzMyLTkuMzQzNzA4IDE1Ljc0MzUwOC0xNi42Mzk0OCAyMS4xMTkzNC0yMi4wMTUzMTJsNTAuMTc0NDMyIDUwLjE3NDQzMmM0LjA5NTg3MiA0LjA5NTg3MiAxMC43NTE2NjQgNC4wOTU4NzIgMTQuOTc1NTMyIDAgNC4wOTU4NzItNC4wOTU4NzIgNC4wOTU4NzItMTAuNzUxNjY0IDAtMTQuOTc1NTMybC00OS45MTg0NC00OS45MTg0NCAyOS42OTUwNzItMjkuNjk1MDcyIDQ5LjkxODQ0IDQ5LjkxODQ0YzQuMDk1ODcyIDQuMDk1ODcyIDEwLjc1MTY2NCA0LjA5NTg3MiAxNC45NzU1MzIgMCA0LjA5NTg3Mi00LjA5NTg3MiA0LjA5NTg3Mi0xMC43NTE2NjQgMC0xNC45NzU1MzJsLTQ5LjkxODQ0LTQ5LjkxODQ0IDQ1LjE4MjU4OC00NS4xODI1ODhjMTYuMTI3NDk2IDAuNjM5OTggMzIuNTEwOTg0LTUuMjQ3ODM2IDQ0Ljc5ODYtMTcuNTM1NDUyIDIzLjQyMzI2OC0yMy40MjMyNjggMjMuNDIzMjY4LTYxLjU2NjA3NiAwLTg0Ljk4OTM0NHMtNjEuNTY2MDc2LTIzLjQyMzI2OC04NC45ODkzNDQgMGMtMTIuMDMxNjI0IDEyLjAzMTYyNC0xNy45MTk0NCAyOC4wMzExMjQtMTcuNTM1NDUyIDQzLjkwMjYyOGwtMjMuNDIzMjY4IDIzLjI5NTI3Mkw4MzEuOTkgMzYuNjM4ODU1Yy00LjA5NTg3Mi00LjA5NTg3Mi0xMC43NTE2NjQtNC4wOTU4NzItMTQuOTc1NTMyIDBzLTQuMDk1ODcyIDEwLjc1MTY2NCAwIDE0Ljk3NTUzMkw4NjUuMjY4OTYgOTkuODY4ODc5bC0yOS42OTUwNzIgMjkuNjk1MDcyLTQ4LjI1NDQ5Mi00OC4yNTQ0OTJjLTQuMDk1ODcyLTQuMDk1ODcyLTEwLjc1MTY2NC00LjA5NTg3Mi0xNC45NzU1MzIgMC00LjA5NTg3MiA0LjA5NTg3Mi00LjA5NTg3MiAxMC43NTE2NjQgMCAxNC45NzU1MzJsNDguMjU0NDkyIDQ4LjI1NDQ5Mi0xMC43NTE2NjQgMTAuNzUxNjY0Yy0wLjEyNzk5NiAwLjEyNzk5Ni0wLjI1NTk5MiAwLjM4Mzk4OC0wLjUxMTk4NCAwLjUxMTk4NC0wLjEyNzk5NiAwLjEyNzk5Ni0xMS4yNjM2NDggMTIuNjcxNjA0LTMyLjg5NDk3MiAzMi4zODI5ODhsLTAuNzY3OTc2LTAuNzY3OTc2Yy00LjQ3OTg2LTQuNDc5ODYtMTEuNjQ3NjM2LTQuNDc5ODYtMTYuMTI3NDk2IDBMNzI2Ljc3NzI4OCAyMjAuMTg1MTE5Yy0zLjE5OTkgMy4xOTk5LTQuMDk1ODcyIDcuOTM1NzUyLTIuNjg3OTE2IDExLjkwMzYyOC01Ni4wNjIyNDggNDMuNjQ2NjM2LTE0NS4xNDc0NjQgMTAzLjE2NDc3Ni0yNjQuNDM5NzM2IDE1Mi41NzEyMzItOTQuNzE3MDQgMzkuMTY2Nzc2LTE5My43ODU5NDQgODEuNTMzNDUyLTI3My4xNDM0NjQgMTMyLjczMTg1My04NS4zNzMzMzIgNTQuOTEwMjg0LTEzOS43NzE2MzIgMTE1LjE5NjQtMTY2LjI2NjgwNCAxODQuNDQyMjM2Qy0zLjk1MTg3NyA3NjQuNjgwMTA0LTYuMzgzODAxIDgyMi4yNzgzMDQgMTIuODE1NiA4NzIuOTY0NzJjMTQuMjA3NTU2IDM3LjM3NDgzMiAzNi44NjI4NDggNjEuODIyMDY4IDUwLjA0NjQzNiA3NS4xMzM2NTJsMy43MTE4ODQgMy43MTE4ODQgNC44NjM4NDggNC44NjM4NDhjMTIuMTU5NjIgMTIuNDE1NjEyIDM3LjYzMDgyNCAzOC4xNDI4MDggNzguODQ1NTM2IDUzLjg4NjMxNiA1MC44MTQ0MTIgMTkuMzI3Mzk2IDEwOC40MTI2MTIgMTYuODk1NDcyIDE3MS4xMzA2NTItNy4yOTU3NzIgMTUwLjc3OTI4OC01Ny45ODIxODggMjMyLjk1MjcyLTIzMy4zMzY3MDggMzE3LjQzMDA4LTQzOS41MzgyNjR6TTIwMC4yMDE3NDQgODUxLjU4OTM4OGMxLjAyMzk2OCAxLjAyMzk2OCAyLjY4NzkxNiAxLjAyMzk2OCAzLjcxMTg4NCAwbDEwLjQ5NTY3Mi0xMC40OTU2NzIgMTQuNTkxNTQ0IDE0LjU5MTU0NGMzLjcxMTg4NCAzLjcxMTg4NCAzLjcxMTg4NCA5Ljg1NTY5MiAwIDEzLjY5NTU3MmwtNy40MjM3NjggNy40MjM3NjhjLTMuNzExODg0IDMuNzExODg0LTkuODU1NjkyIDMuNzExODg0LTEzLjY5NTU3MiAwbC02MS4zMTAwODQtNjEuMzEwMDg0Yy0zLjcxMTg4NC0zLjcxMTg4NC0zLjcxMTg4NC05Ljg1NTY5MiAwLTEzLjY5NTU3Mmw3LjQyMzc2OC03LjQyMzc2OGMzLjcxMTg4NC0zLjcxMTg4NCA5Ljg1NTY5Mi0zLjcxMTg4NCAxMy42OTU1NzIgMGwxNC41OTE1NDQgMTQuNTkxNTQ0LTEwLjQ5NTY3MiAxMC40OTU2NzJjLTEuMDIzOTY4IDEuMDIzOTY4LTEuMDIzOTY4IDIuNjg3OTE2IDAgMy43MTE4ODQgMS4wMjM5NjggMS4wMjM5NjggMi42ODc5MTYgMS4wMjM5NjggMy43MTE4ODQgMGwxMC40OTU2NzItMTAuNDk1NjcyIDUuNzU5ODIgNS43NTk4Mi0xMC40OTU2NzIgMTAuNDk1NjcyYy0xLjAyMzk2OCAxLjAyMzk2OC0xLjAyMzk2OCAyLjY4NzkxNiAwIDMuNzExODg0IDEuMDIzOTY4IDEuMDIzOTY4IDIuNjg3OTE2IDEuMDIzOTY4IDMuNzExODg0IDBsMTAuNDk1NjcyLTEwLjQ5NTY3MiA1Ljc1OTgyIDUuNzU5ODItMTAuNDk1NjcyIDEwLjQ5NTY3MmMtMS4wMjM5NjggMS4wMjM5NjgtMS4wMjM5NjggMi42ODc5MTYgMCAzLjcxMTg4NCAxLjAyMzk2OCAxLjAyMzk2OCAyLjY4NzkxNiAxLjAyMzk2OCAzLjcxMTg4NCAwbDEwLjQ5NTY3Mi0xMC40OTU2NzIgNS43NTk4MiA1Ljc1OTgyLTEwLjQ5NTY3MiAxMC40OTU2NzJjLTEuMDIzOTY4IDEuMDIzOTY4LTEuMDIzOTY4IDIuNjg3OTE2IDAgMy43MTE4ODR6IG0yNDQuNzI4MzUyLTQzNi4wODIzNzNjMC4yNTU5OTIgMC43Njc5NzYgMC41MTE5ODQgMS40MDc5NTYgMS4xNTE5NjQgMS45MTk5NGw2My45OTggNjMuOTk4LTEyLjU0MzYwOCAxMi41NDM2MDgtNjguODYxODQ4LTY4Ljk4OTg0NGMtMC44OTU5NzItMC44OTU5NzItMi4wNDc5MzYtMS4yNzk5Ni0zLjMyNzg5Ni0xLjI3OTk2IDYuNTI3Nzk2LTIuODE1OTEyIDEzLjA1NTU5Mi01LjUwMzgyOCAxOS41ODMzODgtOC4xOTE3NDR6IG0yMy40MjMyNjgtOS43Mjc2OTZjMC43Njc5NzYtMC4zODM5ODggMS41MzU5NTItMC42Mzk5OCAyLjQzMTkyNC0xLjAyMzk2OGw1Ny45ODIxODggNTcuOTgyMTg4LTEyLjU0MzYwOCAxMi41NDM2MDgtNjMuMTAyMDI4LTYzLjIzMDAyNGM1LjExOTg0LTIuMTc1OTMyIDEwLjIzOTY4LTQuMjIzODY4IDE1LjIzMTUyNC02LjI3MTgwNHogbTM1LjE5ODktMTUuMjMxNTI0bDQ4LjYzODQ4IDQ4LjYzODQ4LTE3LjI3OTQ2IDE3LjI3OTQ2LTU1LjQyMjI2OC01NS40MjIyNjhjOC4xOTE3NDQtMy40NTU4OTIgMTYuMjU1NDkyLTYuOTExNzg0IDI0LjA2MzI0OC0xMC40OTU2NzJ6IG0zMS45OTktMTQuOTc1NTMybDQwLjE5MDc0NCA0MC4xOTA3NDQtMTcuMjc5NDYgMTcuMjc5NDYtNDYuMzM0NTUyLTQ2LjQ2MjU0OGM3LjkzNTc1Mi0zLjU4Mzg4OCAxNS43NDM1MDgtNy4yOTU3NzIgMjMuNDIzMjY4LTExLjAwNzY1NnogbTM0LjY4NjkxNi0xNy41MzU0NTJsMzEuNjE1MDEyIDMxLjYxNTAxMi0xOS44MzkzOCAxOS44MzkzOC0zOC4wMTQ4MTItMzguMDE0ODEyYzguOTU5NzItNC40Nzk4NiAxNy42NjM0NDgtOC45NTk3MiAyNi4yMzkxOC0xMy40Mzk1OHpNMzIxLjY2OTk0OCA2OTYuMDc0MjQ4bDQuODYzODQ4LTQuODYzODQ4IDUuNzU5ODIgNS43NTk4Mi00Ljg2Mzg0OCA0Ljg2Mzg0OC01Ljc1OTgyLTUuNzU5ODJ6IG0tMC4zODM5ODggMTEuOTAzNjI4bC0xMDMuODA0NzU2IDEwMy44MDQ3NTYtNS43NTk4Mi01Ljc1OTgyIDEwMy44MDQ3NTYtMTAzLjgwNDc1NiA1Ljc1OTgyIDUuNzU5ODJ6IG0xMS41MTk2NC0yMy4wMzkyOGw0Ljg2Mzg0OC00Ljg2Mzg0OCA1Ljc1OTgyIDUuNzU5ODItNC44NjM4NDggNC44NjM4NDgtNS43NTk4Mi01Ljc1OTgyeiBtMTEuMDA3NjU2LTExLjAwNzY1Nmw0Ljg2Mzg0OC00Ljg2Mzg0OCA1Ljc1OTgyIDUuNzU5ODItNC44NjM4NDggNC44NjM4NDgtNS43NTk4Mi01Ljc1OTgyeiBtMTEuMTM1NjUyLTExLjEzNTY1Mmw0Ljg2Mzg0OC00Ljg2Mzg0OCA1Ljc1OTgyIDUuNzU5ODItNC44NjM4NDggNC44NjM4NDgtNS43NTk4Mi01Ljc1OTgyeiBtMTEuMDA3NjU2LTExLjAwNzY1Nmw0Ljg2Mzg0OC00Ljg2Mzg0OCA1Ljc1OTgyIDUuNzU5ODItNC44NjM4NDggNC44NjM4NDgtNS43NTk4Mi01Ljc1OTgyeiBtMTEuMTM1NjUyLTExLjEzNTY1Mmw0Ljk5MTg0NC00Ljk5MTg0NCA1Ljc1OTgyIDUuNzU5ODItNS4xMTk4NCA0Ljk5MTg0NC01LjYzMTgyNC01Ljc1OTgyeiBtMTEuMTM1NjUyLTExLjEzNTY1Mmw2LjE0MzgwOC02LjE0MzgwOCA1Ljc1OTgyIDUuNzU5ODItNi4xNDM4MDggNi4xNDM4MDgtNS43NTk4Mi01Ljc1OTgyeiBtMTIuNDE1NjEyLTEyLjQxNTYxMmw2LjE0MzgwOC02LjE0MzgwOCA1Ljc1OTgyIDUuNzU5ODItNi4xNDM4MDggNi4xNDM4MDgtNS43NTk4Mi01Ljc1OTgyeiBtMTIuNDE1NjEyLTEyLjQxNTYxMmw4LjgzMTcyNC04LjgzMTcyNCA1Ljc1OTgyIDUuNzU5ODItOC44MzE3MjQgOC44MzE3MjQtNS43NTk4Mi01Ljc1OTgyeiBtMTUuMTAzNTI4LTE1LjEwMzUyOGw4LjgzMTcyNC04LjgzMTcyNCA1Ljc1OTgyIDUuNzU5ODItOC44MzE3MjQgOC44MzE3MjQtNS43NTk4Mi01Ljc1OTgyeiBtMTQuOTc1NTMyLTE0Ljk3NTUzMmw4LjgzMTcyNC04LjgzMTcyNCA1Ljc1OTgyIDUuNzU5ODItOC44MzE3MjQgOC44MzE3MjQtNS43NTk4Mi01Ljc1OTgyeiBtMTUuMTAzNTI4LTE1LjEwMzUyOGw4LjgzMTcyNC04LjgzMTcyNCA1Ljc1OTgyIDUuNzU5ODItOC44MzE3MjQgOC44MzE3MjQtNS43NTk4Mi01Ljc1OTgyeiBtMTUuMTAzNTI4LTE1LjEwMzUyOGwxMi41NDM2MDgtMTIuNTQzNjA4IDUuNzU5ODIgNS43NTk4Mi0xMi41NDM2MDggMTIuNTQzNjA4LTUuNzU5ODItNS43NTk4MnogbTE4LjY4NzQxNi0xOC42ODc0MTZsMTIuNTQzNjA4LTEyLjU0MzYwOCA1Ljc1OTgyIDUuNzU5ODItMTIuNTQzNjA4IDEyLjU0MzYwOC01Ljc1OTgyLTUuNzU5ODJ6IG0xOC42ODc0MTYtMTguNjg3NDE3bDEyLjU0MzYwOC0xMi41NDM2MDggNS43NTk4MiA1Ljc1OTgyLTEyLjU0MzYwOCAxMi41NDM2MDktNS43NTk4Mi01Ljc1OTgyMXogbTE4LjY4NzQxNi0xOC42ODc0MTZsMTIuNTQzNjA4LTEyLjU0MzYwOCA1Ljc1OTgyIDUuNzU5ODItMTIuNTQzNjA4IDEyLjU0MzYwOC01Ljc1OTgyLTUuNzU5ODJ6IG0xODIuOTA2Mjg0LTIxOC43NDUxNjRsNC43MzU4NTIgNC43MzU4NTItMjYuMjM5MTggMjYuMjM5MTgtOS4zNDM3MDgtOS4zNDM3MDhjMTEuMDA3NjU2LTcuNDIzNzY4IDIxLjI0NzMzNi0xNC41OTE1NDQgMzAuODQ3MDM2LTIxLjYzMTMyNHogbTguNDQ3NzM2IDguNDQ3NzM2bDUuNzU5ODIgNS43NTk4Mi0yNi4yMzkxOCAyNi4yMzkxOC01Ljc1OTgyLTUuNzU5ODIgMjYuMjM5MTgtMjYuMjM5MTh6IG0tNTguMjM4MTggMTA3LjUxNjY0bC01Ljc1OTgyLTUuNzU5ODIgMTkuODM5MzgtMTkuODM5MzggNS43NTk4MiA1Ljc1OTgyLTE5LjgzOTM4IDE5LjgzOTM4eiBtMjMuNTUxMjY0LTE2LjEyNzQ5NmwxNi44OTU0NzIgMTYuODk1NDcyYy00Ljg2Mzg0OCA4LjA2Mzc0OC05Ljg1NTY5MiAxNi4zODM0ODgtMTQuODQ3NTM2IDI0Ljk1OTIybC0yMi4wMTUzMTItMjIuMDE1MzEyIDE5Ljk2NzM3Ni0xOS44MzkzOHogbTE3LjQwNzQ1Ni00My43NzQ2MzJsLTI0LjMxOTI0IDI0LjMxOTI0LTUuNzU5ODItNS43NTk4MiAyNC4zMTkyNC0yNC4zMTkyNCA1Ljc1OTgyIDUuNzU5ODJ6IG0wLjUxMTk4NC0xMS45MDM2MjhsMjYuMjM5MTgtMjYuMjM5MTggNS43NTk4MiA1Ljc1OTgyLTI2LjIzOTE4IDI2LjIzOTE4LTUuNzU5ODItNS43NTk4MnogbS0zMS4xMDMwMjggNDIuNDk0NjcybC0xOS44MzkzOCAxOS44MzkzOC01Ljc1OTgyLTUuNzU5ODIgMTkuODM5MzgtMTkuODM5MzggNS43NTk4MiA1Ljc1OTgyeiBtLTI2LjExMTE4NCAyNi4xMTExODRsLTE5LjgzOTM4IDE5LjgzOTM4LTUuNzU5ODItNS43NTk4MiAxOS44MzkzOC0xOS44MzkzOCA1Ljc1OTgyIDUuNzU5ODJ6IG0tMjYuMTExMTg0IDI2LjExMTE4NGwtMTkuODM5MzggMTkuODM5MzgtNS43NTk4Mi01Ljc1OTgyIDE5LjgzOTM4LTE5LjgzOTM4IDUuNzU5ODIgNS43NTk4MnogbS0yNS45ODMxODggMjYuMTExMTg0TDU3Ny40MDU5NTYgNDUxLjg1Nzg3OWwtNS43NTk4Mi01Ljc1OTgyIDE3LjI3OTQ2LTE3LjI3OTQ2IDUuNzU5ODIgNS43NTk4MnogbS0yMy41NTEyNjQgMjMuNTUxMjY0bC0xNy4yNzk0NiAxNy4yNzk0Ni01Ljc1OTgyLTUuNzU5ODIgMTcuMjc5NDYtMTcuMjc5NDYgNS43NTk4MiA1Ljc1OTgyeiBtMy43MTE4ODQgMy43MTE4ODRsNS43NTk4MiA1Ljc1OTgyLTE3LjI3OTQ2IDE3LjI3OTQ2LTUuNzU5ODItNS43NTk4MiAxNy4yNzk0Ni0xNy4yNzk0NnogbTYuMjcxODA0LTYuMjcxODA0bDE3LjI3OTQ2LTE3LjI3OTQ2IDUuNzU5ODIgNS43NTk4Mi0xNy4yNzk0NiAxNy4yNzk0Ni01Ljc1OTgyLTUuNzU5ODJ6IG0yMy40MjMyNjgtMjMuNDIzMjY4bDE5LjgzOTM4LTE5LjgzOTM4IDUuNzU5ODIgNS43NTk4Mi0xOS44MzkzOCAxOS43MTEzODQtNS43NTk4Mi01LjYzMTgyNHogbTI2LjExMTE4NC0yNi4xMTExODRsMTkuODM5MzgtMTkuODM5MzggNS43NTk4MiA1Ljc1OTgyLTE5LjgzOTM4IDE5LjgzOTM4LTUuNzU5ODItNS43NTk4MnogbTUyLjIyMjM2OC01Mi4yMjIzNjhsMjQuMzE5MjQtMjQuMzE5MjQgNS43NTk4MiA1Ljc1OTgyLTI0LjMxOTI0IDI0LjMxOTI0LTUuNzU5ODItNS43NTk4MnogbTMwLjU5MTA0NC0zMC41OTEwNDRsMjYuMjM5MTgtMjYuMjM5MTggNS43NTk4MiA1Ljc1OTgyLTI2LjIzOTE4IDI2LjIzOTE4LTUuNzU5ODItNS43NTk4MnogbTMyLjUxMDk4NC0zMi41MTA5ODRsMTcuNjYzNDQ4LTE3LjY2MzQ0OCA1Ljc1OTgyIDUuNzU5ODItMTcuNjYzNDQ4IDE3LjY2MzQ0OC01Ljc1OTgyLTUuNzU5ODJ6IG0tMy44Mzk4OC0zLjcxMTg4NGwtNS43NTk4Mi01Ljc1OTgyIDE3LjY2MzQ0OC0xNy42NjM0NDggNS43NTk4MiA1Ljc1OTgyLTE3LjY2MzQ0OCAxNy42NjM0NDh6IG0tOS40NzE3MDQtOS40NzE3MDRsLTUuNzU5ODItNS43NTk4MiAxNy42NjM0NDgtMTcuNjYzNDQ4IDUuNzU5ODIgNS43NTk4Mi0xNy42NjM0NDggMTcuNjYzNDQ4ek02OTQuMTM4MzA4IDMxNi4xODIxMTlsLTI0LjMxOTI0IDI0LjMxOTI0LTUuNzU5ODItNS43NTk4MiAyNC4zMTkyNC0yNC4zMTkyNCA1Ljc1OTgyIDUuNzU5ODJ6IG0tMzAuNzE5MDQgMzAuNTkxMDQ0bC0xOS44MzkzOCAxOS44MzkzOC01Ljc1OTgyLTUuNzU5ODIgMTkuODM5MzgtMTkuODM5MzggNS43NTk4MiA1Ljc1OTgyek02MzcuNDM2MDggMzcyLjg4NDM0N2wtMTkuODM5MzggMTkuODM5MzgtNS43NTk4Mi01Ljc1OTgyIDE5LjgzOTM4LTE5LjgzOTM4IDUuNzU5ODIgNS43NTk4MnogbS0yNi4xMTExODQgMjYuMTExMTg0TDU5MS4zNTc1MiA0MTguODM0OTExbC01Ljc1OTgyLTUuNzU5ODIgMTkuODM5MzgtMTkuODM5MzggNS44ODc4MTYgNS43NTk4MnogbS0yNi4xMTExODQgMjYuMTExMTg0bC0xNy4yNzk0NiAxNy4yNzk0Ni01Ljc1OTgyLTUuNzU5ODIgMTcuMjc5NDYtMTcuMjc5NDYgNS43NTk4MiA1Ljc1OTgyeiBtLTIzLjU1MTI2NCAyMy41NTEyNjRMNTQ0LjM4Mjk4OCA0NjUuOTM3NDM5bC01Ljc1OTgyLTUuNzU5ODIgMTcuMjc5NDYtMTcuMjc5NDYgNS43NTk4MiA1Ljc1OTgyeiBtLTIzLjU1MTI2NCAyMy40MjMyNjhsLTEyLjU0MzYwOCAxMi41NDM2MDgtNS43NTk4Mi01Ljc1OTgyIDEyLjU0MzYwOC0xMi41NDM2MDggNS43NTk4MiA1Ljc1OTgyeiBtMTMuMTgzNTg4IDEzLjE4MzU4OGw1Ljc1OTgyIDUuNzU5ODItMTIuNTQzNjA4IDEyLjU0MzYwOC01Ljc1OTgyLTUuNzU5ODIgMTIuNTQzNjA4LTEyLjU0MzYwOHogbTkuNDcxNzA0IDkuNDcxNzA0bDU3Ljg1NDE5MiA1Ny44NTQxOTNjLTAuMzgzOTg4IDAuNzY3OTc2LTAuNjM5OTggMS42NjM5NDgtMS4wMjM5NjggMi40MzE5MjQtMi4wNDc5MzYgNS4xMTk4NC00LjIyMzg2OCAxMC4yMzk2OC02LjI3MTgwNCAxNS4yMzE1MjRsLTYzLjEwMjAyOC02My4xMDIwMjkgMTIuNTQzNjA4LTEyLjQxNTYxMnogbTYuMjcxODA0LTYuMTQzODA4bDE3LjI3OTQ2LTE3LjI3OTQ2IDQ4LjUxMDQ4NCA0OC41MTA0ODVjLTMuNTgzODg4IDcuOTM1NzUyLTcuMDM5NzggMTUuODcxNTA0LTEwLjQ5NTY3MiAyNC4wNjMyNDhMNTY3LjAzODI4IDQ4OC41OTI3MzF6IG0yMy41NTEyNjQtMjMuNTUxMjY0bDE3LjI3OTQ2LTE3LjI3OTQ2TDY0Ny42NzU3NiA0ODcuNjk2NzU5Yy0zLjcxMTg4NCA3LjY3OTc2LTcuNDIzNzY4IDE1LjQ4NzUxNi0xMS4wMDc2NTYgMjMuNTUxMjY0bC00Ni4wNzg1Ni00Ni4yMDY1NTZ6IG0yMy40MjMyNjgtMjMuNTUxMjY0bDE5LjgzOTM4LTE5LjgzOTM4IDMxLjM1OTAyIDMxLjM1OTAyYy00LjQ3OTg2IDguNTc1NzMyLTguOTU5NzIgMTcuNDA3NDU2LTEzLjQzOTU4IDI2LjM2NzE3NmwtMzcuNzU4ODItMzcuODg2ODE2eiBtMjYuMTExMTg0LTI2LjExMTE4NGwxOS44MzkzOC0xOS44MzkzOCAyMy42NzkyNiAyMy42NzkyNmMtNC43MzU4NTIgOC4zMTk3NC05LjQ3MTcwNCAxNi44OTU0NzItMTQuMDc5NTYgMjUuNTk5MmwtMjkuNDM5MDgtMjkuNDM5MDh6IG01Mi4yMjIzNjgtNTIuMDk0MzcybDI0LjMxOTI0LTI0LjMxOTI0IDEwLjExMTY4NCAxMC4xMTE2ODRjLTYuMjcxODA0IDkuNDcxNzA0LTEyLjY3MTYwNCAxOS4zMjczOTYtMTkuMDcxNDA0IDI5LjY5NTA3MmwtMTUuMzU5NTItMTUuNDg3NTE2eiBtMzAuNTkxMDQ0LTMwLjcxOTA0bDI2LjIzOTE4LTI2LjIzOTE4IDQuMzUxODY0IDQuMzUxODY0Yy03LjAzOTc4IDkuNTk5Ny0xNC4yMDc1NTYgMTkuODM5MzgtMjEuNjMxMzI0IDMwLjcxOTA0bC04Ljk1OTcyLTguODMxNzI0eiBtMzIuMzgyOTg4LTMyLjM4Mjk4OGwxNy42NjM0NDgtMTcuNjYzNDQ4IDEuMDIzOTY4IDEuMDIzOTY4Yy00Ljg2Mzg0OCA2LjI3MTgwNC05Ljk4MzY4OCAxMi45Mjc1OTYtMTUuMjMxNTI0IDE5Ljk2NzM3NmwtMy40NTU4OTItMy4zMjc4OTZ6IG01Ni41NzQyMzItNDQuNTQyNjA4bC0xNi42Mzk0OCAxNi42Mzk0OC02LjAxNTgxMi02LjAxNTgxMiAxNi42Mzk0OC0xNi42Mzk0OCA2LjAxNTgxMiA2LjAxNTgxMnogbS0yNi4zNjcxNzYgNy4wMzk3OGwtNS43NTk4Mi01Ljc1OTgyIDE2LjYzOTQ4LTE2LjYzOTQ4IDUuNzU5ODIgNS43NTk4Mi0xNi42Mzk0OCAxNi42Mzk0OHogbS05LjQ3MTcwNC05LjQ3MTcwNGwtNS43NTk4Mi01Ljc1OTgyIDE2LjYzOTQ4LTE2LjYzOTQ4IDUuNzU5ODIgNS43NTk4Mi0xNi42Mzk0OCAxNi42Mzk0OHogbS05LjQ3MTcwNC05LjQ3MTcwNGwtNS43NTk4Mi01Ljc1OTgyIDE2LjYzOTQ4LTE2LjYzOTQ4IDUuNzU5ODIgNS43NTk4Mi0xNi42Mzk0OCAxNi42Mzk0OHogbTcuMTY3Nzc2LTI2LjExMTE4NGwtMTYuNjM5NDggMTYuNjM5NDgtNi4wMTU4MTItNi4wMTU4MTIgMTYuNjM5NDgtMTYuNjM5NDggNi4wMTU4MTIgNi4wMTU4MTJ6IG0tMzIuODk0OTcyIDMyLjc2Njk3Nkw3MjMuMTkzNCAyNjguMDU1NjIzbC0zLjgzOTg4LTMuODM5ODhjNy4wMzk3OC01LjI0NzgzNiAxMy44MjM1NjgtMTAuMzY3Njc2IDIwLjA5NTM3Mi0xNS4yMzE1MjRsMS40MDc5NTYgMS40MDc5NTZ6IG0tNjYuNjg1OTE2IDQ1LjgyMjU2OGwxMC40OTU2NzIgMTAuNDk1NjcyLTI0LjMxOTI0IDI0LjMxOTI0LTE1Ljc0MzUwOC0xNS43NDM1MDhjMTAuMjM5NjgtNi4zOTk4IDIwLjA5NTM3Mi0xMi43OTk2IDI5LjU2NzA3Ni0xOS4wNzE0MDR6TTY1NC4wNzU1NiAzMzcuMzAxNDU5TDYzNC4yMzYxOCAzNTcuMTQwODM5IDYxMS44MzY4OCAzMzQuOTk3NTMxYzguNTc1NzMyLTQuOTkxODQ0IDE2Ljg5NTQ3Mi05Ljk4MzY4OCAyNC45NTkyMi0xNC44NDc1MzZsMTcuMjc5NDYgMTcuMTUxNDY0eiBtLTUwLjA0NjQzNiAyLjE3NTkzMmwyMy45MzUyNTIgMjMuOTM1MjUyLTE5Ljk2NzM3NiAxOS45NjczNzYtMjkuNjk1MDcyLTI5LjY5NTA3MmM4LjgzMTcyNC00LjczNTg1MiAxNy40MDc0NTYtOS40NzE3MDQgMjUuNzI3MTk2LTE0LjIwNzU1NnpNNTEzLjc5MTk0NCA0ODUuMTM2ODM5bDUuNzU5ODIgNS43NTk4Mi0xMi41NDM2MDggMTIuNTQzNjA4LTUuNzU5ODItNS43NTk4MiAxMi41NDM2MDgtMTIuNTQzNjA4eiBtLTEzLjA1NTU5MiAyNC40NDcyMzZsLTEyLjU0MzYwOCAxMi41NDM2MDktNS43NTk4Mi01Ljc1OTgyIDEyLjU0MzYwOC0xMi41NDM2MDkgNS43NTk4MiA1Ljc1OTgyeiBtLTE4LjY4NzQxNiAxOC42ODc0MTdsLTEyLjU0MzYwOCAxMi41NDM2MDgtNS43NTk4Mi01Ljc1OTgyIDEyLjU0MzYwOC0xMi41NDM2MDggNS43NTk4MiA1Ljc1OTgyek00NjMuMzYxNTIgNTQ2Ljk1ODkwOGwtOC44MzE3MjQgOC44MzE3MjQtNS43NTk4Mi01Ljc1OTgyIDguODMxNzI0LTguODMxNzI0IDUuNzU5ODIgNS43NTk4MnpNNDQ4LjI1Nzk5MiA1NjEuOTM0NDRsLTguODMxNzI0IDguODMxNzI0LTUuNzU5ODItNS43NTk4MiA4LjgzMTcyNC04LjgzMTcyNCA1Ljc1OTgyIDUuNzU5ODJ6IG0tMTQuOTc1NTMyIDE1LjEwMzUyOGwtOC44MzE3MjQgOC44MzE3MjQtNS43NTk4Mi01Ljc1OTgyIDguODMxNzI0LTguODMxNzI0IDUuNzU5ODIgNS43NTk4MnogbS0xNS4xMDM1MjggMTUuMTAzNTI4bC04LjgzMTcyNCA4LjgzMTcyNC01Ljc1OTgyLTUuNzU5ODIgOC44MzE3MjQtOC44MzE3MjQgNS43NTk4MiA1Ljc1OTgyeiBtLTE1LjEwMzUyOCAxNC45NzU1MzJsLTYuMTQzODA4IDYuMTQzODA4LTUuNzU5ODItNS43NTk4MiA2LjE0MzgwOC02LjE0MzgwOCA1Ljc1OTgyIDUuNzU5ODJ6IG0tMTIuNDE1NjEyIDEyLjQxNTYxMmwtNi4xNDM4MDggNi4xNDM4MDgtNS43NTk4Mi01Ljc1OTgyIDYuMTQzODA4LTYuMTQzODA4IDUuNzU5ODIgNS43NTk4MnogbS0xMi40MTU2MTIgMTIuNDE1NjEybC00Ljk5MTg0NCA0Ljk5MTg0NC01Ljc1OTgyLTUuNzU5ODIgNC45OTE4NDQtNC45OTE4NDQgNS43NTk4MiA1Ljc1OTgyeiBtLTExLjEzNTY1MiAxMS4yNjM2NDhsLTQuODYzODQ4IDQuODYzODQ4LTUuNzU5ODItNS43NTk4MiA0Ljg2Mzg0OC00Ljg2Mzg0OCA1Ljc1OTgyIDUuNzU5ODJ6IG0tMTEuMTM1NjUyIDExLjAwNzY1NmwtNC44NjM4NDggNC44NjM4NDgtNS43NTk4Mi01Ljc1OTgyIDQuODYzODQ4LTQuODYzODQ4IDUuNzU5ODIgNS43NTk4MnogbS0xMS4wMDc2NTYgMTEuMTM1NjUybC00Ljg2Mzg0OCA0Ljg2Mzg0OC01Ljc1OTgyLTUuNzU5ODIgNC44NjM4NDgtNC44NjM4NDggNS43NTk4MiA1Ljc1OTgyeiBtLTExLjAwNzY1NiAxMS4wMDc2NTZsLTQuODYzODQ4IDQuODYzODQ4LTUuNzU5ODItNS43NTk4MiA0Ljg2Mzg0OC00Ljg2Mzg0OCA1Ljc1OTgyIDUuNzU5ODJ6IG0tMTEuMTM1NjUyIDExLjEzNTY1MmwtNC44NjM4NDggNC44NjM4NDgtNS43NTk4Mi01Ljc1OTgyIDQuODYzODQ4LTQuODYzODQ4IDUuNzU5ODIgNS43NTk4MnogbS0xMS4wMDc2NTYgMTEuMDA3NjU2bC0xMDMuODA0NzU2IDEwMy44MDQ3NTYtNS43NTk4Mi01Ljc1OTgyIDEwMy44MDQ3NTYtMTAzLjgwNDc1NiA1Ljc1OTgyIDUuNzU5ODJ6IG0tOTAuNjIxMTY4IDExNi45ODgzNDRsMTAzLjgwNDc1Ni0xMDMuODA0NzU2IDUuNzU5ODIgNS43NTk4Mi0xMDMuODA0NzU2IDEwMy44MDQ3NTYtNS43NTk4Mi01Ljc1OTgyeiBtMTA5Ljk0ODU2NC0xMTAuMDc2NTZsNC44NjM4NDgtNC44NjM4NDggNS43NTk4MiA1Ljc1OTgyLTQuODYzODQ4IDQuODYzODQ4LTUuNzU5ODItNS43NTk4MnogbTExLjEzNTY1Mi0xMS4wMDc2NTZsNC44NjM4NDgtNC44NjM4NDggNS43NTk4MiA1Ljc1OTgyLTQuODYzODQ4IDQuODYzODQ4LTUuNzU5ODItNS43NTk4MnogbTExLjAwNzY1Ni0xMS4wMDc2NTZsNC44NjM4NDgtNC44NjM4NDggNS43NTk4MiA1Ljc1OTgyLTQuODYzODQ4IDQuODYzODQ4LTUuNzU5ODItNS43NTk4MnogbTExLjEzNTY1Mi0xMS4xMzU2NTJsNC44NjM4NDgtNC44NjM4NDggNS43NTk4MiA1Ljc1OTgyLTQuODYzODQ4IDQuODYzODQ4LTUuNzU5ODItNS43NTk4MnogbTExLjAwNzY1Ni0xMS4wMDc2NTZsNC44NjM4NDgtNC44NjM4NDggNS43NTk4MiA1Ljc1OTgyLTQuODYzODQ4IDQuODYzODQ4LTUuNzU5ODItNS43NTk4MnogbTExLjEzNTY1Mi0xMS4xMzU2NTJsNC45OTE4NDQtNC45OTE4NDQgNS43NTk4MiA1Ljc1OTgyLTQuOTkxODQ0IDQuOTkxODQ0LTUuNzU5ODItNS43NTk4MnogbTExLjEzNTY1Mi0xMS4xMzU2NTJsNi4xNDM4MDgtNi4xNDM4MDggNS43NTk4MiA1Ljc1OTgyLTYuMTQzODA4IDYuMTQzODA4LTUuNzU5ODItNS43NTk4MnogbTEyLjQxNTYxMi0xMi40MTU2MTJsNi4xNDM4MDgtNi4xNDM4MDggNS43NTk4MiA1Ljc1OTgyLTYuMTQzODA4IDYuMTQzODA4LTUuNzU5ODItNS43NTk4MnogbTEyLjQxNTYxMi0xMi40MTU2MTJsOC44MzE3MjQtOC44MzE3MjQgNS43NTk4MiA1Ljc1OTgyLTguODMxNzI0IDguODMxNzI0LTUuNzU5ODItNS43NTk4MnogbTE1LjEwMzUyOC0xNS4xMDM1MjhsOC44MzE3MjQtOC44MzE3MjQgNS43NTk4MiA1Ljc1OTgyLTguODMxNzI0IDguODMxNzI0LTUuNzU5ODItNS43NTk4MnogbTE0Ljk3NTUzMi0xNC45NzU1MzJsOC44MzE3MjQtOC44MzE3MjQgNS43NTk4MiA1Ljc1OTgyLTguODMxNzI0IDguODMxNzI0LTUuNzU5ODItNS43NTk4MnogbTE1LjEwMzUyOC0xNS4xMDM1MjhsOC44MzE3MjQtOC44MzE3MjQgNS43NTk4MiA1Ljc1OTgyLTguODMxNzI0IDguODMxNzI0LTUuNzU5ODItNS43NTk4MnogbTE1LjEwMzUyOC0xNS4xMDM1MjhsMTIuNTQzNjA4LTEyLjU0MzYwOCA1Ljc1OTgyIDUuNzU5ODItMTIuNTQzNjA4IDEyLjU0MzYwOC01Ljc1OTgyLTUuNzU5ODJ6IG0xOC42ODc0MTYtMTguNjg3NDE2bDEyLjU0MzYwOC0xMi41NDM2MDggNS43NTk4MiA1Ljc1OTgyLTEyLjU0MzYwOCAxMi41NDM2MDgtNS43NTk4Mi01Ljc1OTgyeiBtMTguNjg3NDE2LTE4LjY4NzQxNmwxMi41NDM2MDgtMTIuNTQzNjA5IDUuNzU5ODIgNS43NTk4Mi0xMi41NDM2MDggMTIuNTQzNjA5LTUuNzU5ODItNS43NTk4MnogbTIxLjg4NzMxNi0zLjA3MTkwNGw2NS42NjE5NDggNjUuNjYxOTQ4Yy0yLjU1OTkyIDYuMjcxODA0LTUuMjQ3ODM2IDEyLjU0MzYwOC03LjgwNzc1NiAxOC44MTU0MTIgMC0xLjAyMzk2OC0wLjUxMTk4NC0yLjA0NzkzNi0xLjI3OTk2LTIuOTQzOTA4bC02OC45ODk4NDQtNjguOTg5ODQ0IDEyLjQxNTYxMi0xMi41NDM2MDh6IG00NDcuOTg2LTQ3OS42MDEwMTNjMTQuNDYzNTQ4IDE0LjQ2MzU0OCAxNC40NjM1NDggMzguMTQyODA4IDAgNTIuNzM0MzUycy0zOC4xNDI4MDggMTQuNDYzNTQ4LTUyLjczNDM1MiAwLTE0LjQ2MzU0OC0zOC4xNDI4MDggMC01Mi43MzQzNTJjMTQuNTkxNTQ0LTE0LjU5MTU0NCAzOC4xNDI4MDgtMTQuNTkxNTQ0IDUyLjczNDM1MiAwek05MTAuMDY3NTYgODcuNDUzMjY3YzIuODE1OTEyIDUuNTAzODI4IDYuNTI3Nzk2IDEwLjYyMzY2OCAxMS4wMDc2NTYgMTUuMjMxNTI0IDQuNDc5ODYgNC40Nzk4NiA5LjM0MzcwOCA4LjA2Mzc0OCAxNC43MTk1NCAxMC43NTE2NjRsLTEzLjU2NzU3NiAxMy41Njc1NzZMODk2LjM3MTk4OCAxMDEuMTQ4ODM5IDkxMC4wNjc1NiA4Ny40NTMyNjd6IG0tMi42ODc5MTYgNTQuMzk4M2wtNy4yOTU3NzIgNy4yOTU3NzItMjUuMDg3MjE2LTI1LjA4NzIxNi0wLjc2Nzk3Ni0wLjc2Nzk3NiA3LjQyMzc2OC03LjQyMzc2OCAyNS43MjcxOTYgMjUuOTgzMTg4eiBtLTQ4LjEyNjQ5Ni0zLjU4Mzg4OGwwLjc2Nzk3NiAwLjc2Nzk3NiAyNS4wODcyMTYgMjUuMDg3MjE2LTcuMjk1NzcyIDcuMjk1NzcyLTI1Ljg1NTE5Mi0yNS44NTUxOTIgNy4yOTU3NzItNy4yOTU3NzJ6IG0zLjU4Mzg4OCA0OC4yNTQ0OTJsLTcuMjk1NzcyIDcuMjk1NzcyLTI1LjA4NzIxNi0yNS4wODcyMTYtMC43Njc5NzYtMC43Njc5NzYgNy40MjM3NjgtNy40MjM3NjggMjUuNzI3MTk2IDI1Ljk4MzE4OHogbS00Ny45OTg1LTMuNDU1ODkyYzAuMTI3OTk2IDAuMTI3OTk2IDAuMjU1OTkyIDAuMzgzOTg4IDAuNTExOTg0IDAuNTExOTg0bDI0LjgzMTIyNCAyNC44MzEyMjRjLTUuNTAzODI4IDUuNTAzODI4LTEyLjY3MTYwNCAxMi43OTk2LTIxLjExOTM0IDIyLjAxNTMxMmwtMjYuMzY3MTc2LTI2LjM2NzE3NmM5LjM0MzcwOC04LjMxOTc0IDE2Ljc2NzQ3Ni0xNS40ODc1MTYgMjIuMTQzMzA4LTIwLjk5MTM0NHpNMzEzLjM1MDIwOCA5ODEuODg5MzE2Yy0xMzQuMDExODEyIDUxLjU4MjM4OC0yMDIuODczNjYtMTguMzAzNDI4LTIyNS41Mjg5NTItNDEuMjE0NzEyLTEuNzkxOTQ0LTEuOTE5OTQtMy4xOTk5LTMuMTk5OS01LjExOTg0LTUuMTE5ODQtMjIuOTExMjg0LTIyLjY1NTI5Mi05Mi43OTcxLTkxLjM4OTE0NC00MS4yMTQ3MTItMjI1LjUyODk1MiAyNS4wODcyMTYtNjUuNDA1OTU2IDc1LjEzMzY1Mi0xMjAuNTcyMjMyIDE1Ny4zMDcwODQtMTczLjQzNDU4IDY1LjE0OTk2NC00MS45ODI2ODggMTQ0LjUwNzQ4NC03OC4zMzM1NTIgMjIzLjYwOTAxMi0xMTEuNzQwNTA5aC0wLjEyNzk5NmMtMS42NjM5NDggMS42NjM5NDgtMS42NjM5NDggNC40Nzk4NiAwIDYuMjcxODA0bDY4Ljg2MTg0OCA2OC44NjE4NDgtMTIuNTQzNjA4IDEyLjU0MzYwOS03NS41MTc2NC03NS41MTc2NDFjLTEuNjYzOTQ4LTEuNjYzOTQ4LTQuNDc5ODYtMS42NjM5NDgtNi4yNzE4MDQgMC0xLjY2Mzk0OCAxLjY2Mzk0OC0xLjY2Mzk0OCA0LjQ3OTg2IDAgNi4yNzE4MDRsNzUuNTE3NjQgNzUuNTE3NjQxLTEyLjU0MzYwOCAxMi41NDM2MDgtNzUuNTE3NjQtNzUuNTE3NjQxYy0xLjY2Mzk0OC0xLjY2Mzk0OC00LjQ3OTg2LTEuNjYzOTQ4LTYuMjcxODA0IDAtMS42NjM5NDggMS42NjM5NDgtMS42NjM5NDggNC40Nzk4NiAwIDYuMjcxODA0bDc1LjUxNzY0IDc1LjUxNzY0MS04LjgzMTcyNCA4LjgzMTcyNC03NS41MTc2NC03NS41MTc2NDFjLTEuNjYzOTQ4LTEuNjYzOTQ4LTQuNDc5ODYtMS42NjM5NDgtNi4yNzE4MDQgMC0xLjY2Mzk0OCAxLjY2Mzk0OC0xLjY2Mzk0OCA0LjQ3OTg2IDAgNi4yNzE4MDRsNzUuNTE3NjQgNzUuNTE3NjQxLTguODMxNzI0IDguODMxNzI0LTc1LjUxNzY0LTc1LjUxNzY0MWMtMS42NjM5NDgtMS42NjM5NDgtNC40Nzk4Ni0xLjY2Mzk0OC02LjI3MTgwNCAwLTEuNjYzOTQ4IDEuNjYzOTQ4LTEuNjYzOTQ4IDQuNDc5ODYgMCA2LjI3MTgwNGw3NS41MTc2NCA3NS41MTc2NDEtOC44MzE3MjQgOC44MzE3MjQtNzUuNTE3NjQtNzUuNTE3NjQxYy0xLjY2Mzk0OC0xLjY2Mzk0OC00LjQ3OTg2LTEuNjYzOTQ4LTYuMjcxODA0IDAtMS42NjM5NDggMS42NjM5NDgtMS42NjM5NDggNC40Nzk4NiAwIDYuMjcxODA0bDc1LjUxNzY0IDc1LjUxNzY0MS04LjgzMTcyNCA4LjgzMTcyNC01Mi44NjIzNDgtNTIuODYyMzQ4Yy0xLjY2Mzk0OC0xLjY2Mzk0OC00LjQ3OTg2LTEuNjYzOTQ4LTYuMjcxODA0IDAtMS42NjM5NDggMS42NjM5NDgtMS42NjM5NDggNC40Nzk4NiAwIDYuMjcxODA0bDUyLjg2MjM0OCA1Mi44NjIzNDgtNi4xNDM4MDggNi4xNDM4MDgtNTQuMjcwMzA0LTU1LjAzODI4Yy0xLjY2Mzk0OC0xLjY2Mzk0OC00LjQ3OTg2LTEuNjYzOTQ4LTYuMjcxODA0IDAtMS42NjM5NDggMS42NjM5NDgtMS42NjM5NDggNC40Nzk4NiAwIDYuMjcxODA0bDU0Ljc4MjI4OCA1NC43ODIyODgtNi4xNDM4MDggNi4xNDM4MDgtNTQuNzgyMjg4LTU0Ljc4MjI4OGMtMS42NjM5NDgtMS42NjM5NDgtNC40Nzk4Ni0xLjY2Mzk0OC02LjI3MTgwNCAwLTEuNjYzOTQ4IDEuNjYzOTQ4LTEuNjYzOTQ4IDQuNDc5ODYgMCA2LjI3MTgwNGw1NC43ODIyODggNTQuNzgyMjg4LTQuOTkxODQ0IDQuOTkxODQ0LTE4Ljk0MzQwOC0xOC45NDM0MDhjLTEuNjYzOTQ4LTEuNjYzOTQ4LTQuNDc5ODYtMS42NjM5NDgtNi4yNzE4MDQgMC0xLjY2Mzk0OCAxLjY2Mzk0OC0xLjY2Mzk0OCA0LjQ3OTg2IDAgNi4yNzE4MDRsMTguOTQzNDA4IDE4Ljk0MzQwOC00Ljg2Mzg0OCA0Ljg2Mzg0OC0xOC45NDM0MDgtMTguOTQzNDA4Yy0xLjY2Mzk0OC0xLjY2Mzk0OC00LjQ3OTg2LTEuNjYzOTQ4LTYuMjcxODA0IDAtMS42NjM5NDggMS42NjM5NDgtMS42NjM5NDggNC40Nzk4NiAwIDYuMjcxODA0bDE4Ljk0MzQwOCAxOC45NDM0MDgtNC44NjM4NDggNC44NjM4NDgtMTguOTQzNDA4LTE4Ljk0MzQwOGMtMS42NjM5NDgtMS42NjM5NDgtNC40Nzk4Ni0xLjY2Mzk0OC02LjI3MTgwNCAwcy0xLjY2Mzk0OCA0LjQ3OTg2IDAgNi4yNzE4MDRsMTguOTQzNDA4IDE4Ljk0MzQwOC00Ljg2Mzg0OCA0Ljg2Mzg0OC0xOC45NDM0MDgtMTguOTQzNDA4Yy0xLjY2Mzk0OC0xLjY2Mzk0OC00LjQ3OTg2LTEuNjYzOTQ4LTYuMjcxODA0IDAtMS42NjM5NDggMS42NjM5NDgtMS42NjM5NDggNC40Nzk4NiAwIDYuMjcxODA0bDE4Ljk0MzQwOCAxOC45NDM0MDgtNC44NjM4NDggNC44NjM4NDgtMTguNTU5NDItMTkuMzI3Mzk2Yy0xLjY2Mzk0OC0xLjY2Mzk0OC00LjQ3OTg2LTEuNjYzOTQ4LTYuMjcxODA0IDBzLTEuNjYzOTQ4IDQuNDc5ODYgMCA2LjI3MTgwNGwxOC45NDM0MDggMTguOTQzNDA4LTQuODYzODQ4IDQuODYzODQ4LTE4Ljk0MzQwOC0xOC45NDM0MDhjLTEuNjYzOTQ4LTEuNjYzOTQ4LTQuNDc5ODYtMS42NjM5NDgtNi4yNzE4MDQgMHMtMS42NjM5NDggNC40Nzk4NiAwIDYuMjcxODA0bDE4Ljk0MzQwOCAxOC45NDM0MDgtMTAzLjgwNDc1NiAxMDMuODA0NzU2LTE0LjQ2MzU0OC0xNC43MTk1NGMtMTIuNjcxNjA0LTEyLjY3MTYwNC0zMy40MDY5NTYtMTIuNjcxNjA0LTQ2LjA3ODU2IDBsLTcuNDIzNzY4IDcuNDIzNzY4Yy0xMi42NzE2MDQgMTIuNjcxNjA0LTEyLjY3MTYwNCAzMy40MDY5NTYgMCA0Ni4wNzg1Nmw2MS4zMTAwODQgNjEuMzEwMDg0YzEyLjY3MTYwNCAxMi42NzE2MDQgMzMuNDA2OTU2IDEyLjY3MTYwNCA0Ni4wNzg1NiAwbDcuNDIzNzY4LTcuNDIzNzY4YzEyLjY3MTYwNC0xMi42NzE2MDQgMTIuNjcxNjA0LTMzLjQwNjk1NiAwLTQ2LjA3ODU2bC0xNC41OTE1NDQtMTQuNTkxNTQ0IDEwMy44MDQ3NTYtMTAzLjgwNDc1NiA1MS4wNzA0MDQgNTEuMDcwNDA0YzEuNjYzOTQ4IDEuNjYzOTQ4IDQuNDc5ODYgMS42NjM5NDggNi4yNzE4MDQgMCAxLjY2Mzk0OC0xLjY2Mzk0OCAxLjY2Mzk0OC00LjQ3OTg2IDAtNi4yNzE4MDRsLTUxLjA3MDQwNC01MS4wNzA0MDQgNC44NjM4NDgtNC44NjM4NDggNTEuMDcwNDA0IDUxLjA3MDQwNGMxLjY2Mzk0OCAxLjY2Mzk0OCA0LjQ3OTg2IDEuNjYzOTQ4IDYuMjcxODA0IDAgMS42NjM5NDgtMS42NjM5NDggMS42NjM5NDgtNC40Nzk4NiAwLTYuMjcxODA0bC01MS4wNzA0MDQtNTEuMDcwNDA0IDQuODYzODQ4LTQuODYzODQ4IDUxLjA3MDQwNCA1MS4wNzA0MDRjMS42NjM5NDggMS42NjM5NDggNC40Nzk4NiAxLjY2Mzk0OCA2LjI3MTgwNCAwIDEuNjYzOTQ4LTEuNjYzOTQ4IDEuNjYzOTQ4LTQuNDc5ODYgMC02LjI3MTgwNGwtNTEuMDcwNDA0LTUxLjA3MDQwNCA0Ljg2Mzg0OC00Ljg2Mzg0OCA1MS4wNzA0MDQgNTEuMDcwNDA0YzEuNjYzOTQ4IDEuNjYzOTQ4IDQuNDc5ODYgMS42NjM5NDggNi4yNzE4MDQgMCAxLjY2Mzk0OC0xLjY2Mzk0OCAxLjY2Mzk0OC00LjQ3OTg2IDAtNi4yNzE4MDRsLTUxLjA3MDQwNC01MS4wNzA0MDQgNC44NjM4NDgtNC44NjM4NDggNTEuMDcwNDA0IDUxLjA3MDQwNGMxLjY2Mzk0OCAxLjY2Mzk0OCA0LjQ3OTg2IDEuNjYzOTQ4IDYuMjcxODA0IDAgMS42NjM5NDgtMS42NjM5NDggMS42NjM5NDgtNC40Nzk4NiAwLTYuMjcxODA0TDM4NC44OTk5NzIgNjcwLjczMTA0bDQuODYzODQ4LTQuODYzODQ4IDUxLjA3MDQwNCA1MS4wNzA0MDRjMS42NjM5NDggMS42NjM5NDggNC40Nzk4NiAxLjY2Mzk0OCA2LjI3MTgwNCAwczEuNjYzOTQ4LTQuNDc5ODYgMC02LjI3MTgwNGwtNTEuMDcwNDA0LTUxLjA3MDQwNCA0Ljk5MTg0NC00Ljk5MTg0NCA1MS4wNzA0MDQgNTEuMDcwNDA0YzEuNjYzOTQ4IDEuNjYzOTQ4IDQuNDc5ODYgMS42NjM5NDggNi4yNzE4MDQgMCAxLjY2Mzk0OC0xLjY2Mzk0OCAxLjY2Mzk0OC00LjQ3OTg2IDAtNi4yNzE4MDRsLTUxLjA3MDQwNC01MS4wNzA0MDQgNi4xNDM4MDgtNi4xNDM4MDggNTEuMDcwNDA0IDUxLjA3MDQwNGMxLjY2Mzk0OCAxLjY2Mzk0OCA0LjQ3OTg2IDEuNjYzOTQ4IDYuMjcxODA0IDBzMS42NjM5NDgtNC40Nzk4NiAwLTYuMjcxODA0bC01MS4wNzA0MDQtNTEuMDcwNDA0IDYuMTQzODA4LTYuMTQzODA4IDUyLjk5MDM0NCA1Mi45OTAzNDRjMS42NjM5NDggMS42NjM5NDggNC40Nzk4NiAxLjY2Mzk0OCA2LjI3MTgwNCAwIDEuNjYzOTQ4LTEuNjYzOTQ4IDEuNjYzOTQ4LTQuNDc5ODYgMC02LjI3MTgwNGwtNTIuOTkwMzQ0LTUyLjk5MDM0NCA4LjgzMTcyNC04LjgzMTcyNCA3NS42NDU2MzYgNzUuNjQ1NjM2YzEuNjYzOTQ4IDEuNjYzOTQ4IDQuNDc5ODYgMS42NjM5NDggNi4yNzE4MDQgMCAxLjY2Mzk0OC0xLjY2Mzk0OCAxLjY2Mzk0OC00LjQ3OTg2IDAtNi4yNzE4MDRsLTc1LjY0NTYzNi03NS42NDU2MzYgOC44MzE3MjQtOC44MzE3MjQgNzUuNjQ1NjM2IDc1LjY0NTYzNmMxLjY2Mzk0OCAxLjY2Mzk0OCA0LjQ3OTg2IDEuNjYzOTQ4IDYuMjcxODA0IDAgMS42NjM5NDgtMS42NjM5NDggMS42NjM5NDgtNC40Nzk4NiAwLTYuMjcxODA0bC03NS45MDE2MjgtNzUuNTE3NjQgOC44MzE3MjQtOC44MzE3MjQgNzUuNjQ1NjM2IDc1LjY0NTYzNmMxLjY2Mzk0OCAxLjY2Mzk0OCA0LjQ3OTg2IDEuNjYzOTQ4IDYuMjcxODA0IDAgMS42NjM5NDgtMS42NjM5NDggMS42NjM5NDgtNC40Nzk4NiAwLTYuMjcxODA0bC03NS42NDU2MzYtNzUuNjQ1NjM2IDguODMxNzI0LTguODMxNzI0IDc1LjY0NTYzNiA3NS42NDU2MzZjMS42NjM5NDggMS42NjM5NDggNC40Nzk4NiAxLjY2Mzk0OCA2LjI3MTgwNCAwIDEuNjYzOTQ4LTEuNjYzOTQ4IDEuNjYzOTQ4LTQuNDc5ODYgMC02LjI3MTgwNEw0OTIuMjg4NjE2IDU2My4yMTQ0bDEyLjU0MzYwOC0xMi41NDM2MDggNzUuNjQ1NjM2IDc1LjY0NTYzNmMxLjY2Mzk0OCAxLjY2Mzk0OCA0LjQ3OTg2IDEuNjYzOTQ4IDYuMjcxODA0IDAgMS42NjM5NDgtMS42NjM5NDggMS42NjM5NDgtNC40Nzk4NiAwLTYuMjcxODA0bC03NS42NDU2MzYtNzUuNjQ1NjM2IDEyLjU0MzYwOC0xMi41NDM2MDggNjguOTg5ODQ0IDY4Ljk4OTg0NGMxLjY2Mzk0OCAxLjY2Mzk0OCA0LjM1MTg2NCAxLjY2Mzk0OCA2LjAxNTgxMiAwLjEyNzk5NkM1MjIuNDk1NjcyIDc4Mi4wODc1NiA0NDQuNDE4MTEyIDkzMS40NTg4OTIgMzEzLjM1MDIwOCA5ODEuODg5MzE2eiIvPjwvc3ZnPg==;" vertex="1" parent="1">
          <mxGeometry x="100" y="410" width="70" height="70" as="geometry" />
        </mxCell>
        <mxCell id="F-9ztQ3IZIlNfO3_O9eN-2" value="" style="shape=image;verticalLabelPosition=bottom;labelBackgroundColor=default;verticalAlign=top;aspect=fixed;imageAspect=0;image=data:image/svg+xml,PHN2ZyB4bWxuczp4bGluaz0iaHR0cDovL3d3dy53My5vcmcvMTk5OS94bGluayIgeG1sbnM9Imh0dHA6Ly93d3cudzMub3JnLzIwMDAvc3ZnIiBoZWlnaHQ9IjIwMCIgd2lkdGg9IjIwMCIgdmVyc2lvbj0iMS4xIiB2aWV3Qm94PSIwIDAgMTAyNCAxMDI0IiBjbGFzcz0iaWNvbiI+PHBhdGggZmlsbD0iIzY2NDEyNSIgZD0iTTk5Ni43MDM2NTYgMjc3LjM2NTkxN2wtMjIuNjU4NTQ3IDguOTcxNDA0YTguNjgzODU5IDguNjgzODU5IDAgMCAxLTkuNTQ2NDk0LTIuMTg1MzQybC0yMzUuMjExODE5LTIzNi44MjIwNyA0OS42ODc3NzgtNDQuNjI2OTg2YzIuNDcyODg3LTIuMTg1MzQyIDYuMzE0NDg4LTMuMTA1NDg2IDEwLjQ2NjYzOC0yLjUzMDM5NiAzNi4wNDY2NDIgNS4xMjk4MDMgNzIuNjU2ODczIDIyLjQyODUxMSAxMDkuODQyMTk0IDUxLjg3MzEyIDQ4LjY1MjYxNiAzOC40MTYwMTMgMTgwLjkyMzMyMSAxNjguODQ2NDMgOTcuNDIwMjUgMjI1LjMyMDI3eiIvPjxwYXRoIGZpbGw9IiM5MTYxM0YiIGQ9Ik03MjkuMjg2Nzk2IDQ3LjMyOTkwOWwyMzUuMjExODE5IDIzNi44MjIwN2MyLjUwNzM5MiAyLjY0NTQxNCA2LjMwMjk4NyAzLjUwODA0OSA5LjU0NjQ5NCAyLjE4NTM0MmwyMi42NTg1NDctOC45NzE0MDRjLTIwLjM5MjY5MiAxNS40MTI0MTMtMTkuMjc3MDE3IDMwLjU5NDc4OSAzLjMzNTUyMiA0NS41NDcxMyAyLjkyMTQ1NyAxNy4wMjI2NjUtMS4wNjk2NjcgMzEuMjM4ODktMTEuOTYxODczIDQyLjY3MTY3OWwtMjQuNDk4ODM1IDIyLjU0MzUyOWE4LjM5NjMxNCA4LjM5NjMxNCAwIDAgMS0xMC4xMjE1ODQgMC42OTAxMDhsLTM2LjgwNTc2MS0yMi43NzM1NjVjLTYuOTAxMDgtMTMuMTEyMDUyLTE3LjU5Nzc1NS0yMC45MzMyNzctMzIuMDkwMDIzLTIzLjQ2MzY3MyA2LjQ0MTAwOC0xMS44NDY4NTQgNDQuODU3MDIyLTM4Ljk5MTEwMyAxOS43ODMwOTYtNTAuMTQ3ODQ5LTMuMDAxOTctMS4zNDU3MTEtNi44MDkwNjYtMC41NzUwOS05Ljc3NjUzIDEuOTU1MzA2bC0yOS42NzQ2NDUgMjUuNjQ5MDE1Yy0zLjk3OTYyMy0xNS4xODIzNzctMTMuNzIxNjQ4LTIzLjk2OTc1Mi0yOS4yMTQ1NzMtMjYuMzM5MTIzIDYuNDQxMDA4LTE0LjE0NzIxNSA0NC45NzIwNC0zMy4yNDAyMDMgMjIuMzEzNDkzLTQ5LjM0MjcyNGE3LjkzNjI0MiA3LjkzNjI0MiAwIDAgMC05LjY2MTUxMyAwLjU3NTA5bC0yOS40NDQ2MDkgMjYuMjI0MTA1Yy01LjkwMDQyNC0xNC41NzI3ODEtMTYuNDQ3NTc1LTIzLjE5OTEzMS0zMS42Mjk5NTEtMjUuODc5MDUxIDUuMjkwODI4LTcuMDE2MDk4IDU0LjUxODUzNC00Ni4zNTIyNTYgMTYuNDQ3NTc1LTQ5LjIyNzcwNi0zLjM1ODUyNi0wLjI5OTA0Ny02Ljk3MDA5MSAxLjEyNzE3Ni05Ljg5MTU0OSAzLjkxMDYxMmwtMjMuODA4NzI2IDIyLjMxMzQ5M2MtNS44MTk5MTEtMTMuMjczMDc4LTE1LjU2MTkzNi0yMi4wNDg5NTEtMjkuMjE0NTc0LTI2LjMzOTEyM2wyNC44NDM4ODktMjcuMjU5MjY3YzIuNjIyNDEtMi44NDA5NDUgMy44NDE2MDEtNi41MjE1MjEgMy4zMzU1MjItMTAuMDA2NTY2LTUuMDYwNzkyLTMyLjMyMDA1OS00MS43NTE1MzYgOS42NjE1MTItNDguMzA3NTYxIDE3LjEzNzY4Mi00LjI5MDE3Mi0xMy42NTI2MzctMTIuOTE2NTIyLTIzLjIzMzYzNy0yNS44NzkwNTEtMjguNzU0NTAxbDE4LjI4Nzg2Mi0yMi4wODM0NTdjMy40NTA1NC00LjIyMTE2MSA1LjQ1MTg1My03LjM2MTE1MiA1Ljk4MDkzNy05LjQzMTQ3NiAyLjg0MDk0NS0xMi4xOTE5MDgtMS41NjQyNDUtMTcuNTI4NzQ0LTEzLjIyNzA3MS0xNS45ODc1MDItMy4xMTY5ODggMC40MzcwNjgtNi41MzMwMjMgMi4zMDAzNi05LjY2MTUxMiA1LjI5MDgyOGwtMjEuMDQ4Mjk1IDE5LjY2ODA3OC0xNC4zNzcyNS0xNy4yNTI3Yy0zNC4xOTQ4NTMtMzUuMTI2NDk4LTI4Ljc4OTAwNi02Mi44NDU4MzcgMTYuMjE3NTM4LTgzLjE1ODAxNyAzLjU4ODU2Mi0xLjY0NDc1NyA3LjQ2NDY2OC0yLjEyNzgzMyAxMS4wNDE3MjktMS4zODAyMTYgMTYuMDMzNTEgMy4zNzAwMjggMjkuNzg5NjYzIDExLjU3MDgxMSA0MS4yOTE0NjMgMjQuNjEzODUzeiIvPjxwYXRoIGZpbGw9IiMyNTUxNTkiIGQ9Ik02OTQuNzgxMzk1IDE0Ny4wNTA1MThsLTM4Ny40OTU2NTYgMzg2LjgwNTU0OGE3LjQ3NjE3IDcuNDc2MTcgMCAwIDAtMS4zODAyMTYgOC41MTEzMzNjOS44MjI1MzggMjAuNDczMjA1IDMuMTA1NDg2IDI3LjI1OTI2Ny0yMC4xMjgxNTEgMjAuMzU4MTg2YTkuNjM4NTA5IDkuNjM4NTA5IDAgMCAwLTkuNTQ2NDk0IDIuMDcwMzI0bC05OS4wMzA1MDIgOTcuODgwMzIyLTMyLjA5MDAyMyAyOS4zMjk1OTFjLTIuNzcxOTM0IDIuNTUzNC02LjQ5ODUxNyAzLjUxOTU1MS05Ljc3NjUzIDIuNTMwMzk2LTMzLjI0MDIwMy05Ljg5MTU0OCAxNC4xNDcyMTUtNDEuNzUxNTM2IDIxLjczODQwMi01MS45ODgxMzhsOTguNTcwNDMtOTguNjg1NDQ3YTEwLjAwNjU2NiAxMC4wMDY1NjYgMCAwIDAgMi4xODUzNDItOS42NjE1MTNjLTYuODIwNTY4LTIzLjM5NDY2Mi0wLjIzMDAzNi0zMC42NzUzMDIgMTkuNzgzMDk3LTIxLjg1MzQyMWE4LjE3Nzc4IDguMTc3NzggMCAwIDAgOS4yMDE0NC0xLjQ5NTIzNGwzODguMzAwNzgyLTM4Ni4zNDU0NzYgMjEuMDQ4Mjk1LTE5LjY2ODA3OGMzLjEyODQ5LTIuOTkwNDY4IDYuNTQ0NTI0LTQuODUzNzYgOS42NjE1MTItNS4yOTA4MjggMTEuNjYyODI2LTEuNTQxMjQxIDE2LjA2ODAxNSAzLjc5NTU5NCAxMy4yMjcwNzEgMTUuOTg3NTAyLTAuNTI5MDgzIDIuMDcwMzI0LTIuNTMwMzk2IDUuMjEwMzE2LTUuOTgwOTM3IDkuNDMxNDc2bC0xOC4yODc4NjIgMjIuMDgzNDU3eiIvPjxwYXRoIGZpbGw9IiNGRkMxMzMiIGQ9Ik02NjAuNzM2MDY2IDEwNy4yNTQyODlsMTQuMzc3MjUgMTcuMjUyNy0zODguMzAwNzgyIDM4Ni4zNDU0NzZhOC4xNzc3OCA4LjE3Nzc4IDAgMCAxLTkuMjAxNDQgMS40OTUyMzRjLTIwLjAxMzEzMy04LjgyMTg4MS0yNi42MDM2NjQtMS41NDEyNDEtMTkuNzgzMDk3IDIxLjg1MzQyMWExMC4wMDY1NjYgMTAuMDA2NTY2IDAgMCAxLTIuMTg1MzQyIDkuNjYxNTEzbC05OC41NzA0MyA5OC42ODU0NDdhOTkuMzk4NTU5IDk5LjM5ODU1OSAwIDAgMS00Ni4wMDcyMDEtMzcuMzgwODUxYzY4LjQzNTcxMi04NC42NTMyNTEgMTExLjU2NzQ2NC0xNjQuNzA1NzgyIDIwNi41NzIzMzUtMjM5LjU4MjUwM2E5NzU1Ljk4ODEzNiA5NzU1Ljk4ODEzNiAwIDAgMSAzNDMuMDk4NzA3LTI1OC4zMzA0Mzd6TTY5NC43ODEzOTUgMTQ3LjA1MDUxOGMxMi45NjI1MjkgNS41MjA4NjQgMjEuNTg4ODc5IDE1LjEwMTg2NCAyNS44NzkwNTEgMjguNzU0NTAxbC0zMDMuMTg3NDU5IDMwMS41NzcyMDdhOC44NzkzOSA4Ljg3OTM5IDAgMCAxLTkuNDMxNDc3IDEuODQwMjg4Yy0yMS4zOTMzNDktNy45MDE3MzctMjguMDE4Mzg2LTEuMjY1MTk4LTE5Ljg5ODExNCAxOS44OTgxMTVhOC44NzkzOSA4Ljg3OTM5IDAgMCAxLTEuODQwMjg4IDkuNDMxNDc2bC0xODUuNjM5MDU5IDE4NS4yOTQwMDUtMjMuNDYzNjczLTMxLjE2OTg3OSA5OS4wMzA1MDItOTcuODgwMzIyYTkuNjM4NTA5IDkuNjM4NTA5IDAgMCAxIDkuNTQ2NDk0LTIuMDcwMzI0YzIzLjIzMzYzNyA2LjkwMTA4IDI5Ljk1MDY4OCAwLjExNTAxOCAyMC4xMjgxNTEtMjAuMzU4MTg2YTcuNDc2MTcgNy40NzYxNyAwIDAgMSAxLjM4MDIxNi04LjUxMTMzM2wzODcuNDk1NjU2LTM4Ni44MDU1NDh6Ii8+PHBhdGggZmlsbD0iIzI1NTE1OSIgZD0iTTc0MC43ODg1OTYgMTk1LjkzMzE3bC0zMDAuMzEyMDA4IDMwMS40NjIxODlhOS4zMjc5NiA5LjMyNzk2IDAgMCAwLTIuMTg1MzQyIDkuNDMxNDc2YzYuMzcxOTk3IDIwLjg1Mjc2NC0xLjEwNDE3MyAyOC4yNDg0MjItMjIuNDI4NTExIDIyLjE5ODQ3NWE5LjU0NjQ5NCA5LjU0NjQ5NCAwIDAgMC05LjQzMTQ3NyAyLjMwMDM2bC0xODMuNjgzNzUyIDE4Mi42NDg1OTEtMjcuMTQ0MjQ5IDI0LjYxMzg1M2MtMy4xMDU0ODYgMi44MDY0MzktNi43MTcwNTEgNC40MTY2OTEtMTAuMTIxNTg1IDQuNDg1NzAyLTguNDMwODIgMC4yMzAwMzYtMTMuMDY2MDQ1LTMuNjExNTY1LTEzLjkxNzE3OC0xMS41MDE4MDEtMC4yOTkwNDctMi41OTk0MDcgMS4zMzQyMDktNi4xOTk0NyA0LjM3MDY4NC05LjY2MTUxMmwyNC43Mjg4NzEtMjguMDY0MzkzIDE4NS42MzkwNTktMTg1LjI5NDAwNWE4Ljg3OTM5IDguODc5MzkgMCAwIDAgMS44NDAyODgtOS40MzE0NzZjLTguMTIwMjcxLTIxLjE2MzMxMy0xLjQ5NTIzNC0yNy43OTk4NTIgMTkuODk4MTE0LTE5Ljg5ODExNSAzLjM4MTUyOSAxLjI2NTE5OCA3LjA3MzYwNyAwLjU0MDU4NSA5LjQzMTQ3Ny0xLjg0MDI4OGwzMDMuMTg3NDU5LTMwMS41NzcyMDdjNi41NTYwMjYtNy40NzYxNyA0My4yNDY3Ny00OS40NTc3NDIgNDguMzA3NTYxLTE3LjEzNzY4MiAwLjUwNjA3OSAzLjQ4NTA0Ni0wLjcxMzExMiA3LjE2NTYyMi0zLjMzNTUyMiAxMC4wMDY1NjZsLTI0Ljg0Mzg4OSAyNy4yNTkyNjd6Ii8+PHBhdGggZmlsbD0iI0ZGQzEzMyIgZD0iTTc0MC43ODg1OTYgMTk1LjkzMzE3YzEzLjY1MjYzNyA0LjI5MDE3MiAyMy4zOTQ2NjIgMTMuMDY2MDQ1IDI5LjIxNDU3NCAyNi4zMzkxMjNsLTIzOS41ODI1MDMgMjQxLjUzNzgwOWMtMzAuMzY0NzUzLTEwLjgxMTY5Mi0zOS45MTEyNDctNC4xMDYxNDMtMjguNjM5NDgzIDIwLjEyODE1YTcuOTkzNzUxIDcuOTkzNzUxIDAgMCAxLTEuNjEwMjUyIDkuMDg2NDIzbC0yNTEuMDg0MzAzIDI1MC4xNjQxNTktMjYuMzM5MTIzLTI5LjIxNDU3MyAxODMuNjgzNzUyLTE4Mi42NDg1OTFhOS41NDY0OTQgOS41NDY0OTQgMCAwIDEgOS40MzE0NzctMi4zMDAzNmMyMS4zMjQzMzggNi4wNDk5NDcgMjguODAwNTA4LTEuMzQ1NzExIDIyLjQyODUxMS0yMi4xOTg0NzVhOS4zMjc5NiA5LjMyNzk2IDAgMCAxIDIuMTg1MzQyLTkuNDMxNDc2bDMwMC4zMTIwMDgtMzAxLjQ2MjE4OXoiLz48cGF0aCBmaWxsPSIjMjU1MTU5IiBkPSJNNzg3LjI1NTg3IDI0NS4yNzU4OTRsLTIzNi43MDcwNTIgMjM1Ljc4NjkwOGMtMTQuMDMyMTk3IDIuMDcwMzI0LTIwLjczNzc0Ni0zLjY4MDU3Ni0yMC4xMjgxNTEtMTcuMjUyN2wyMzkuNTgyNTAzLTI0MS41Mzc4MDkgMjMuODA4NzI2LTIyLjMxMzQ5M2MyLjkyMTQ1Ny0yLjc4MzQzNiA2LjUzMzAyMy00LjIwOTY1OSA5Ljg5MTU0OS0zLjkxMDYxMiAzOC4wNzA5NTkgMi44NzU0NS0xMS4xNTY3NDYgNDIuMjExNjA4LTE2LjQ0NzU3NSA0OS4yMjc3MDZ6Ii8+PHBhdGggZmlsbD0iIzFENEQ1OSIgZD0iTTgzNS42Nzg0NSAyOTMuNjk4NDc0bC0xMDIuNDgxMDQyIDEwMi45NDExMTNhOC41Njg4NDEgOC41Njg4NDEgMCAwIDAtMS44NDAyODggOS4zMTY0NTljOC42NzIzNTggMjAuODUyNzY0IDEuMzExMjA1IDI4LjI0ODQyMi0yMi4wODM0NTcgMjIuMTk4NDc0YTkuOTE0NTUyIDkuOTE0NTUyIDAgMCAwLTkuNjYxNTEyIDIuNTMwMzk2bC0zNzkuMDk5MzQyIDM4MS4wNTQ2NDgtMjcuOTQ5Mzc1IDIzLjkyMzc0NWMtMy41NjU1NTggMy4wNDc5NzctNy4wMzkxMDIgNC44MzA3NTYtOS40MzE0NzYgNC44MzA3NTYtOS4xMjA5MjgtMC4xNjEwMjUtMTMuODM2NjY2LTQuNzk2MjUxLTE0LjE0NzIxNS0xMy45MTcxNzgtMC4wNjkwMTEtMi42MjI0MSAxLjY2Nzc2MS02LjE3NjQ2NyA0LjcxNTczOS05LjY2MTUxM2wyNC4yNjg3OTktMjcuNzE5MzM5IDM4MC40Nzk1NTctMzc5LjY3NDQzMWE5LjA0MDQxNSA5LjA0MDQxNSAwIDAgMCAxLjk1NTMwNi05LjQzMTQ3N2MtNy45NzA3NDgtMjIuMzk0MDA1IDAtMzAuMTM0NzE3IDIzLjkyMzc0NS0yMy4yMzM2MzYgMy4zNDcwMjQgMC45ODkxNTUgNi45NTg1ODkgMC4xMTUwMTggOS40MzE0NzYtMi4zMDAzNjFsMTA1LjEyNjQ1Ni0xMDMuNDAxMTg1IDI5LjQ0NDYwOS0yNi4yMjQxMDVhNy45MzYyNDIgNy45MzYyNDIgMCAwIDEgOS42NjE1MTMtMC41NzUwOWMyMi42NTg1NDcgMTYuMTAyNTIxLTE1Ljg3MjQ4NSAzNS4xOTU1MDktMjIuMzEzNDkzIDQ5LjM0MjcyNHoiLz48cGF0aCBmaWxsPSIjRkZDMTMzIiBkPSJNNzg3LjI1NTg3IDI0NS4yNzU4OTRjMTUuMTgyMzc3IDIuNjc5OTE5IDI1LjcyOTUyOCAxMS4zMDYyNyAzMS42Mjk5NTEgMjUuODc5MDUxbC0xMDUuMTI2NDU2IDEwMy40MDExODVhOS42MDQwMDMgOS42MDQwMDMgMCAwIDEtOS40MzE0NzYgMi4zMDAzNjFjLTIzLjkyMzc0NS02LjkwMTA4LTMxLjg5NDQ5MyAwLjgzOTYzMS0yMy45MjM3NDUgMjMuMjMzNjM2YTkuMDQwNDE1IDkuMDQwNDE1IDAgMCAxLTEuOTU1MzA2IDkuNDMxNDc3bC0zODAuNDc5NTU3IDM3OS42NzQ0MzEtMjYuMzM5MTIzLTI2LjMzOTEyMyAyNDcuMjg4NzA4LTI0OC4yMDg4NTJjMi4zMDAzNi0yLjM5MjM3NCA1Ljk4MDkzNi0zLjE5NzUwMSA5LjQzMTQ3Ny0yLjA3MDMyNSAyMi4zOTQwMDUgNy40MzAxNjMgMjkuNzg5NjYzLTMuMDcwOTgxIDIyLjE5ODQ3NS0zMS41MTQ5MzNsMjM2LjcwNzA1Mi0yMzUuNzg2OTA4eiIvPjxwYXRoIGZpbGw9IiMxRDRENTkiIGQ9Ik04ODQuNTYxMTAyIDM0Mi41ODExMjVsLTI5OS45NjY5NTUgMjk5LjUwNjg4M2ExMC41MzU2NDkgMTAuNTM1NjQ5IDAgMCAwLTIuNzYwNDMyIDkuNjYxNTEyYzQuMzAxNjczIDIyLjM4MjUwNC0xLjQ5NTIzNCAyOC44Njk1MTktMTcuMzY3NzE5IDE5LjQzODA0My0zLjAxMzQ3Mi0xLjgyODc4Ni02LjcxNzA1MS0xLjU0MTI0MS04Ljk3MTQwNCAwLjY5MDEwOGwtMTg4Ljk3NDU4MSAxOTEuNjE5OTk1Yy0xMC44MTE2OTIgNS41MjA4NjQtNDUuNjYyMTQ4IDQyLjMyNjYyNi00OC40MjI1OCAxMS44NDY4NTQtMC4yODc1NDUtMy4zNzAwMjggMS4wOTI2NzEtNi45NzAwOTEgMy43OTU1OTQtOS44OTE1NDhsMjQuOTU4OTA3LTI3LjM3NDI4NSAxODMuNjgzNzUzLTE4Mi45OTM2NDRhOS4xNTU0MzMgOS4xNTU0MzMgMCAwIDAgMi4wNzAzMjQtOS40MzE0NzdjLTguMDUxMjYtMjMuODU0NzM0LTAuMjMwMDM2LTMxLjYyOTk1MSAyMy40NjM2NzMtMjMuMzQ4NjU1YTguODIxODgxIDguODIxODgxIDAgMCAwIDkuMzE2NDU4LTEuOTU1MzA2bDI5OS41MDY4ODMtMzAwLjMxMjAwOCAyOS42NzQ2NDUtMjUuNjQ5MDE1YzIuOTY3NDY1LTIuNTMwMzk2IDYuNzc0NTYtMy4zMDEwMTcgOS43NzY1My0xLjk1NTMwNiAyNS4wNzM5MjUgMTEuMTU2NzQ2LTEzLjM0MjA4OCAzOC4zMDA5OTUtMTkuNzgzMDk2IDUwLjE0Nzg0OXoiLz48cGF0aCBmaWxsPSIjRkZDMTMzIiBkPSJNODM1LjY3ODQ1IDI5My42OTg0NzRjMTUuNDkyOTI1IDIuMzY5MzcxIDI1LjIzNDk1IDExLjE1Njc0NiAyOS4yMTQ1NzMgMjYuMzM5MTIzbC0yOTkuNTA2ODgzIDMwMC4zMTIwMDhhOC44MjE4ODEgOC44MjE4ODEgMCAwIDEtOS4zMTY0NTggMS45NTUzMDZjLTIzLjY5MzcwOS04LjI4MTI5Ni0zMS41MTQ5MzMtMC41MDYwNzktMjMuNDYzNjczIDIzLjM0ODY1NWE5LjE1NTQzMyA5LjE1NTQzMyAwIDAgMS0yLjA3MDMyNCA5LjQzMTQ3N2wtMTgzLjY4Mzc1MyAxODIuOTkzNjQ0YTU0LjMgNTQuMyAwIDAgMS0yNi4zMzkxMjMtMjYuMzM5MTIzbDM3OS4wOTkzNDItMzgxLjA1NDY0OGMyLjQxNTM3OC0yLjQ5NTg5MSA2LjA5NTk1NC0zLjQ1MDU0IDkuNjYxNTEyLTIuNTMwMzk2IDIzLjM5NDY2MiA2LjA0OTk0NyAzMC43NTU4MTQtMS4zNDU3MTEgMjIuMDgzNDU3LTIyLjE5ODQ3NGE4LjU2ODg0MSA4LjU2ODg0MSAwIDAgMSAxLjg0MDI4OC05LjMxNjQ1OWwxMDIuNDgxMDQyLTEwMi45NDExMTN6Ii8+PHBhdGggZmlsbD0iIzlEQzJDNCIgZD0iTTEwMDAuMDM5MTc4IDMyMi45MTMwNDdjMTEuNjYyODI2IDE5LjMyMzAyNSA3LjY3MTcwMSAzMy41MzkyNS0xMS45NjE4NzMgNDIuNjcxNjc5IDEwLjg5MjIwNS0xMS40MzI3OSAxNC44ODMzMy0yNS42NDkwMTUgMTEuOTYxODczLTQyLjY3MTY3OXoiLz48cGF0aCBmaWxsPSIjRkZDMTMzIiBkPSJNODg0LjU2MTEwMiAzNDIuNTgxMTI1YzE0LjQ5MjI2OSAyLjUzMDM5NiAyNS4xODg5NDMgMTAuMzUxNjIgMzIuMDkwMDIzIDIzLjQ2MzY3My0xNzkuNDI4MDg2IDI0OC40Mzg4ODktMjc4LjgwMzY0MiA0MTQuNDA5ODY5LTQ5Ny45MTI5NCA1NDMuOTIwMTQybC01Mi4yMTgxNzQtNDYuNDY3Mjc0IDE4OC45NzQ1ODEtMTkxLjYxOTk5NWMyLjI1NDM1My0yLjIzMTM0OSA1Ljk1NzkzMy0yLjUxODg5NCA4Ljk3MTQwNC0wLjY5MDEwOCAxNS44NzI0ODUgOS40MzE0NzYgMjEuNjY5MzkyIDIuOTQ0NDYxIDE3LjM2NzcxOS0xOS40MzgwNDNhMTAuNTM1NjQ5IDEwLjUzNTY0OSAwIDAgMSAyLjc2MDQzMi05LjY2MTUxMmwyOTkuOTY2OTU1LTI5OS41MDY4ODN6Ii8+PHBhdGggZmlsbD0iIzFENEQ1OSIgZD0iTTUzMC40MjA2NjcgNDYzLjgxMDEwMmMtMC42MDk1OTUgMTMuNTcyMTI0IDYuMDk1OTU0IDE5LjMyMzAyNSAyMC4xMjgxNTEgMTcuMjUyNyA3LjU5MTE4OCAyOC40NDM5NTIgMC4xOTU1MzEgMzguOTQ1MDk2LTIyLjE5ODQ3NSAzMS41MTQ5MzMtMy40NTA1NC0xLjEyNzE3Ni03LjEzMTExNi0wLjMyMjA1LTkuNDMxNDc3IDIuMDcwMzI1bC0yNDcuMjg4NzA4IDI0OC4yMDg4NTItMjMuNjkzNzA5IDIyLjU0MzUyOWMtMy42MjMwNjcgMy40MDQ1MzMtNi45NTg1ODkgNS42MzU4ODItOC45NzE0MDUgNS45ODA5MzYtNDcuNTAyNDM2IDcuOTM2MjQyIDUuOTgwOTM2LTQzLjU5MTgyNCAxMC4xMjE1ODUtNDguMTkyNTQzbDI1MS4wODQzMDMtMjUwLjE2NDE1OWE3Ljk5Mzc1MSA3Ljk5Mzc1MSAwIDAgMCAxLjYxMDI1Mi05LjA4NjQyM2MtMTEuMjcxNzY0LTI0LjIzNDI5My0xLjcyNTI3LTMwLjkzOTg0MyAyOC42Mzk0ODMtMjAuMTI4MTV6Ii8+PHBhdGggZmlsbD0iIzkxNjEzRiIgZD0iTTExMS4wNjUwMjQgNjA1LjE2NzIyOWE5OS4zOTg1NTkgOTkuMzk4NTU5IDAgMCAwIDQ2LjAwNzIwMSAzNy4zODA4NTFjLTcuNTkxMTg4IDEwLjIzNjYwMi01NC45Nzg2MDYgNDIuMDk2NTktMjEuNzM4NDAyIDUxLjk4ODEzOCAzLjI3ODAxMyAwLjk4OTE1NSA3LjAwNDU5NiAwLjAyMzAwNCA5Ljc3NjUzLTIuNTMwMzk2bDMyLjA5MDAyMy0yOS4zMjk1OTEgMjMuNDYzNjczIDMxLjE2OTg3OS0yNC43Mjg4NzEgMjguMDY0MzkzYy0zLjAzNjQ3NSAzLjQ2MjA0Mi00LjY2OTczMSA3LjA2MjEwNS00LjM3MDY4NCA5LjY2MTUxMiAwLjg1MTEzMyA3Ljg5MDIzNSA1LjQ4NjM1OSAxMS43MzE4MzYgMTMuOTE3MTc4IDExLjUwMTgwMSAzLjQwNDUzMy0wLjA2OTAxMSA3LjAxNjA5OC0xLjY3OTI2MyAxMC4xMjE1ODUtNC40ODU3MDJsMjcuMTQ0MjQ5LTI0LjYxMzg1MyAyNi4zMzkxMjMgMjkuMjE0NTczYy00LjE0MDY0OCA0LjYwMDcyLTU3LjYyNDAyIDU2LjEyODc4Ni0xMC4xMjE1ODUgNDguMTkyNTQzIDIuMDEyODE1LTAuMzQ1MDU0IDUuMzQ4MzM3LTIuNTc2NDAzIDguOTcxNDA1LTUuOTgwOTM2bDIzLjY5MzcwOS0yMi41NDM1MjkgMjYuMzM5MTIzIDI2LjMzOTEyMy0yNC4yNjg3OTkgMjcuNzE5MzM5Yy0zLjA0Nzk3NyAzLjQ4NTA0Ni00Ljc4NDc0OSA3LjAzOTEwMi00LjcxNTczOSA5LjY2MTUxMyAwLjMxMDU0OSA5LjEyMDkyOCA1LjAyNjI4NyAxMy43NTYxNTMgMTQuMTQ3MjE1IDEzLjkxNzE3OCAyLjM5MjM3NCAwIDUuODY1OTE4LTEuNzgyNzc5IDkuNDMxNDc2LTQuODMwNzU2bDI3Ljk0OTM3NS0yMy45MjM3NDVhNTQuMyA1NC4zIDAgMCAwIDI2LjMzOTEyMyAyNi4zMzkxMjNsLTI0Ljk1ODkwNyAyNy4zNzQyODVjLTIuNzAyOTIzIDIuOTIxNDU3LTQuMDgzMTM5IDYuNTIxNTIxLTMuNzk1NTk0IDkuODkxNTQ4IDIuNzYwNDMyIDMwLjQ3OTc3MSAzNy42MTA4ODctNi4zMjU5OSA0OC40MjI1OC0xMS44NDY4NTRsNTIuMjE4MTc0IDQ2LjQ2NzI3NGMyNS40NjQ5ODYgMjcuNjA0MzIxIDIwLjA5MzY0NSA1Mi45NzcyOTMtMTYuMTAyNTIxIDc2LjE0MTkxOC0xMy40OTE2MTIgOC41ODAzNDMtMjUuOTQ4MDYyIDcuNzc1MjE3LTM3LjM4MDg1MS0yLjQxNTM3OGwtMTguMTcyODQ1LTE2LjMzMjU1NmMtNjguNTUwNzMtNjkuNzAwOTExLTI2Ny4wNzE4MDYtMjgwLjY0MzkzLTI5MC42NTA0OTYtMjgyLjU5OTIzNnYtNC40ODU3MDNhOS45ODM1NjMgOS45ODM1NjMgMCAwIDAtMy4xMDU0ODYtNy4zNjExNTJjLTUyLjQ0ODIxLTQ4Ljc2NzYzNCAyMi41NDM1MjktMTA5LjE1MjA4NiA1Ny43MzkwMzgtNjcuNzQ1NjA0eiIvPjxwYXRoIGZpbGw9IiM2NjQxMjUiIGQ9Ik01Ni40MzE0NzIgNjg0Ljc1OTY4OGMyMy41Nzg2OTEgMS45NTUzMDYgMjIyLjA5OTc2NiAyMTIuODk4MzI2IDI5MC42NTA0OTYgMjgyLjU5OTIzNi00Ni44MTIzMjggNDEuNTIxNDk5LTczLjg0MTU1OSA4OC4yMTg4MDktMTM2Ljk4NjQ0MyAyNy42MDQzMjEtOTcuMzc0MjQyLTkzLjQ3NTEzMi0xNjEuNDM5MjcxLTE1Ny4wNDU1ODMtMTkyLjE5NTA4NS0xOTAuNjk5ODUxLTQyLjU1NjY2Mi00Ni42OTczMSAwLjU3NTA5LTg0Ljg4MzI4NyAzOC41MzEwMzItMTE5LjUwMzcwNnoiLz48L3N2Zz4=;" vertex="1" parent="1">
          <mxGeometry x="80" y="530" width="70" height="70" as="geometry" />
        </mxCell>
        <mxCell id="F-9ztQ3IZIlNfO3_O9eN-3" value="" style="shape=image;verticalLabelPosition=bottom;labelBackgroundColor=default;verticalAlign=top;aspect=fixed;imageAspect=0;image=data:image/svg+xml,PHN2ZyB4bWxuczp4bGluaz0iaHR0cDovL3d3dy53My5vcmcvMTk5OS94bGluayIgeG1sbnM9Imh0dHA6Ly93d3cudzMub3JnLzIwMDAvc3ZnIiBoZWlnaHQ9IjIwMCIgd2lkdGg9IjIwMCIgdmVyc2lvbj0iMS4xIiB2aWV3Qm94PSIwIDAgMTAyNCAxMDI0IiBjbGFzcz0iaWNvbiI+PHBhdGggZmlsbD0iI0U4M0EzQSIgZD0iTTM4MS43OSA5NjguMjdjLTAuNCAwLjEyLTAuODEgMC4yMy0xLjIzIDAuMzItOS4zNSAyLTE1LjEzLTYuMTYtMjEuMjUtMTQuOHMtMTMtMTguMzYtMjQuNy0yMi4yYy0xMy42Ni00LjQ5LTI2LjQ4IDIuNi00MC4wNyAxMC4xLTE1IDguMy0zMC41OCAxNi44OS00Ny4zOSA4LjUzLTkuNjItNC43OS0xMy40Ni0xMC40Ni0yNC44My0yNy4yOC0yLjI0LTMuMy00Ljc3LTcuMDYtNy43My0xMS4zNS0xNS40NC0yMi40Ny0yNy40MS0zOC4yNi0zNi4xNi00OS44LTE3LjI5LTIyLjc5LTIzLjc2LTMxLjM0LTIwLjQzLTQ0LjY1IDIuNzgtMTEuMDkgMTEuODQtMjIgMjQuMjMtMjkuMDkgMTEuNjEtNi42OCAyMy44OS04Ljg5IDMzLjY5LTYuMDYgMzAuNzkgOC44OCA0Mi4xIDcwLjA4IDQ1LjgxIDkwLjE5IDEuMDkgNS44OSAxLjc4IDEwLjg3IDIuMzkgMTUuMjcgMS42NSAxMS45MSAyLjQ4IDE3Ljg4IDguMzUgMjMuNjYgMTMgMTIuNzcgMzkuOTQgMTQuNjUgNTYuNTggMy45NSAxMi42OS04LjE2IDE3Ljc4LTIyLjUxIDIxLjg3LTM0IDMuOTItMTEuMDYgNy4zMS0yMC42MiAxNi41LTIxLjE1IDcuODYtMC40NSAxMi45MyA2LjQzIDE4LjMgMTMuNzIgNS43MiA3Ljc2IDEyLjE5IDE2LjU1IDIyLjY1IDE3Ljg1IDQuNSAwLjU2IDguMzEtMC42NyAxMS4zOC0xLjY1IDMuMjUtMSA3LjY5LTIuNDYgMTAuMzIgMS4zOWE3LjI1IDcuMjUgMCAwIDEgMC43NyA2LjE1IDI3LjY2IDI3LjY2IDAgMCAxLTUuMDUgOS4xM2M3LjE3IDIuMTYgMTAgNCA5LjYzIDguMTQtMC4zNyA0LjU3LTQuOTMgNS4zNS04LjU5IDZhNDIgNDIgMCAwIDAtOS45NSAyLjY2Yy0xMS42NCA1LTE2LjQzIDE2LjI2LTIwLjY2IDI2LjE5LTMuNiA4LjQzLTcuMDMgMTYuNTEtMTQuNDMgMTguNzh6IG0tMTUtMTkuMDhjNS4xMyA3LjIyIDguNDkgMTEuNTYgMTEuOTMgMTAuODMgMy44NC0wLjgzIDYuNDMtNi45NCA5LjQ0LTE0IDIuNDUtNS43NCA1LjIxLTEyLjIzIDkuNDctMThhNzQuODggNzQuODggMCAwIDEtNC4xMyAxLjYxYy01LjA5IDYuODUtMTYuNSAyMC41LTI2LjcxIDE5LjU2eiBtLTMtMTUuMDhjMS4zMiA0LjI1IDIuOTEgNi4xMyAzLjU0IDYuMyAxLjE4IDAuMzMgNS4wOS0wLjcgMTEuNDQtN2wwLjE4LTAuMThhNzYuNDMgNzYuNDMgMCAwIDEtMTUuMTYgMC44OHogbS0xMS4xMi0xLjg2YzAuNzEgMC42MyAxLjM5IDEuMjcgMi4wNiAxLjkzLTAuMTItMC40Ny0wLjIzLTAuOTQtMC4zMi0xLjQtMC42Mi0wLjE3LTEuMi0wLjM0LTEuNzQtMC41M3ogbTkuNDMtN2E3MS4zNCA3MS4zNCAwIDAgMCAyNS45NS0zLjA4YzQuMy02LjM0IDYuOTItMTIuMiA3LjI3LTE1bC0yLjEtMC42MmMtMi41NyAwLjE5LTcgMS4wOC0xMy44NyAzLjczYTEwMy40OSAxMDMuNDkgMCAwIDAtMTcuNTQgOC43NCA1Ny4xNSA1Ny4xNSAwIDAgMCAwLjI5IDYuMjR6IG00MS42Ni0xNS42N2EzMiAzMiAwIDAgMS0yLjE5IDYuNTYgNjYuODMgNjYuODMgMCAwIDAgNy4zNC01LjE2cS0yLjQzLTAuNjQtNS4xNS0xLjM5ek0zMzQgOTIyLjMzcTEuNjggMC4zOCAzLjM5IDAuOTNhNDEuMyA0MS4zIDAgMCAxIDkuMTMgNC4zMSA3IDcgMCAwIDEtMC41My0xLjQ5Yy0wLjgxLTMuNjIgMS42NS03LjU5IDcuMzQtMTEuODggMC44NS05LjcgNC4xMi0xOC41OSAxMC42NC0yMi4wNyA0Ljc2LTIuNTUgOC42OC0xLjI4IDE4LjE2IDEuNzkgMS41OCAwLjUxIDMuMzYgMS4wOSA1LjM2IDEuNzIgMi40MyAwLjc3IDQuNzUgMS40OCA3IDIuMTVhMTEuMTUgMTEuMTUgMCAwIDEgNi43MiAyYzYgMS43MSAxMS4wOCAzIDE1LjMgNC4xNmE0NC4zOSA0NC4zOSAwIDAgMCA0LjEzLTUuMTkgMzEuNjMgMzEuNjMgMCAwIDEtMTMuMjggMS40MmMtMTQuMi0xLjc2LTIyLjItMTIuNjItMjguNjMtMjEuMzUtMy45Mi01LjMyLTcuNjItMTAuMzUtMTAuNzQtMTAuMTctMy4zOCAwLjE5LTYgNy41NS04Ljc0IDE1LjMzLTQuMzQgMTIuMDEtMTAuMiAyOC41NC0yNS4yNSAzOC4zNHogbS0xMzcuNTMtMTMxYTQ5IDQ5IDAgMCAwLTkuODIgNC4zNGMtMTAuMzcgNi0xNy44OCAxNC43OS0yMC4xIDIzLjYyczEuNzQgMTQuNTggMTguOTEgMzcuMjNjOC44IDExLjYgMjAuODQgMjcuNDkgMzYuNCA1MC4xMiAzIDQuMzIgNS41MiA4LjA5IDcuNzYgMTEuNDEgMTEgMTYuMjIgMTMuOTIgMjAuNTggMjEuNDggMjQuMzQgMTIuNjkgNi4zMSAyNS0wLjQ5IDM5LjI1LTguMzUgMi4xNC0xLjE5IDQuMzItMi4zOSA2LjU0LTMuNTctMTEuNzgtMS4xOC0yMi45NC01LjYyLTMwLjUyLTEzLjA5LTgtNy44Ny05LjE0LTE2LjE2LTEwLjg4LTI4LjcxLTAuNi00LjMtMS4yNy05LjE4LTIuMzMtMTQuODgtOS4zMS01MC40MS0yMi42NC03OC40Ni0zOS42Mi04My4zNS00LjktMS40NC0xMC45LTEuMDctMTcuMTEgMC44N3ogbTEzNSAxMjcuNDN6IG0zNy4wNS0xOS4wNmEyLjY1IDIuNjUgMCAwIDAtMC40MiAwLjE4Yy0yLjEzIDEuMTQtMy44MiA0LjE1LTQuOTEgOC4yNSAxLjQ1LTAuNzcgMy0xLjU0IDQuNjEtMi4zMiAyLjc4LTEuMzMgNi4xMi0yLjgzIDkuNjUtNC4xNy01LjgtMS44Ni03Ljc1LTIuMzQtOC45Ny0xLjk2eiIvPjxwYXRoIGZpbGw9IiMzRTkyODAiIGQ9Ik05NjcuNjMgNzNjNC45LTIgOS4zOSAwLjMgMTEuOCAxLjUxIDEuNiAwLjggNy43MiAzLjg4IDkuMjYgMTAuNTcgMS4zOSA2LTEuODEgMTEtMi42IDEyLjIxLTQuMjIgNi4yMi05LjIxIDQuMy0xNi4xNSAxMWEzMy43MiAzMy43MiAwIDAgMC03Ljg3IDEyLjMxYy0yLjI4IDYuMjgtMC44IDguNC0zLjE4IDE0LTAuODYgMi0zLjU5IDguNDItOC43NiAxMC45Mi0xMC4yNCA0Ljk0LTI3LjgyLTYuNTItMzMuMi0yMC40Ny0wLjkxLTIuMzQtMy43LTkuNTktMC4zOC0xNS4xNiAxLjM1LTIuMjQgMy4xOC0zLjM3IDEwLjU3LTYuNzcgMTEuNjMtNS4zNCAxNC4zMi01Ljg3IDE4LjQ4LTguMTZhNDUuMjkgNDUuMjkgMCAwIDAgMTQuNjctMTMuMzFjMC4yMi0wLjggMS45MS02LjUxIDcuMzYtOC42NXoiLz48cGF0aCBmaWxsPSIjRThBOTM1IiBkPSJNOTI0LjEgMTEwYzEzLjMyLTMuMjMgMzUgMTkgMzEuMzggMzEuODQtMSAzLjQ4LTQuNDYgNC4yNy02LjY2IDEwYTI0LjQ2IDI0LjQ2IDAgMCAwLTEuMjQgMTEuNzFjMSAxMC4zNi0zLjcgNTMuNTgtMjkuNzQgODYuMTMtMy43NiA0LjctMTguMjQgMjIuOC0zOS40NCAzMS42OWExODQuMyAxODQuMyAwIDAgMS0yNi43NyA5LjJjLTEwIDIuMzEtMTMuMTYgMS44LTE2LjY0IDQuNTgtMTAuMTkgOC4xNC01IDMwLTQgMzYuMTYgNi4yNCAzNy45Mi0zNC41MiAxMTMuNjUtOTYuNDkgMTI2LjI2LTU4LjIxIDExLjg1LTEyMy0zNC40Ny0xMzguOTItOTQuNjktMTEuMTQtNDIuMSAwLjQ5LTk1LjExIDMzLjk0LTExOS44OCAxNC4xNC0xMC40OCA1Mi4yNS0zMC43NyA4Ny4yNC0yMi4yOSA5LjUxIDIuMyAzMS43IDkuODUgNDMuODYtMC45NWEyMC4yNyAyMC4yNyAwIDAgMCA0LTQuODhjMS03LjM4IDcuMTktNDcgNDMuNTYtNzQuMjIgMzguNTgtMjguODkgODEuMTktMjEuNDUgODgtMjAuMTRhNDYuMTkgNDYuMTkgMCAwIDAgMTYuMzEtMy45M2M3LjAxLTMuMSA3LjcxLTUuNTkgMTEuNjEtNi41OXoiLz48cGF0aCBmaWxsPSIjRURDNTgwIiBkPSJNNzI4LjY1IDM4MS43NWE1Ny4zOCA1Ny4zOCAwIDEgMSAzNy42Ny03MS44OCA1Ny40NCA1Ny40NCAwIDAgMS0zNy42NyA3MS44OHogbS0zMS42LTEwMS4xOEE0OC42MiA0OC42MiAwIDEgMCA3NTggMzEyLjQ4YTQ4LjY3IDQ4LjY3IDAgMCAwLTYwLjk1LTMxLjkxek04NjEuMTcgMjM4LjE2Yy05LjggMy4wNi0xOS45NSAxLjkzLTI3LjU3LTQtMTMuOC0xMC43OS0xNC4yMS0zMy40MS0wLjkxLTUwLjQyczM1LjM1LTIyLjA3IDQ5LjE1LTExLjI3YzYuODggNS4zOCAxMC42NyAxMy43MyAxMC42NyAyMy41MWE0NC4yNyA0NC4yNyAwIDAgMS05Ljc2IDI2LjkxIDQ0Ljc3IDQ0Ljc3IDAgMCAxLTIxLjU4IDE1LjI3eiBtLTMuNy01OS44MkEzNC41MSAzNC41MSAwIDAgMCA4NDEgMTkwLjE5Yy05LjczIDEyLjQ0LTEwLjE0IDI4LjQzLTAuOSAzNS42NXMyNC42NSAzIDM0LjM4LTkuNDdBMzMuNjMgMzMuNjMgMCAwIDAgODgyIDE5NmMwLTYuNDgtMi4zNS0xMS44OC02LjYzLTE1LjIzLTQuODQtMy44My0xMS4zNy00LjQ2LTE3LjktMi40M3oiLz48cGF0aCBmaWxsPSIjRTgzQTNBIiBkPSJNMzg5LjE0IDk5Ni4zNmMtMC45MSAwLjI4LTEuODUgMC41My0yLjgxIDAuNzMtMTQuNDcgMy4xMy0zMC43LTQuMjUtMzcuNzQtMTcuMTctNS44My0xMC43LTQuODUtMjUuNDYgMi41NS0zOC41MiA2Ljc2LTExLjk1IDE3LTE5LjMzIDI3LjM4LTE5Ljc2IDcuNy0wLjMxIDE2IDMuMjUgMjIuNzkgOS43OWE0MC41IDQwLjUgMCAwIDEgMTIuNzMgMjljLTAuMDQgMTQuMS04Ljc2IDMwLjg5LTI0LjkgMzUuOTN6IG0tMTQuMy02NS4yNGMtNS45NSAxLjg2LTExLjg1IDcuMTQtMTYuMDggMTQuNi01LjkxIDEwLjQ1LTYuODYgMjEuOTUtMi40NyAzMCA0LjUzIDguMyAxNi4zMSAxNS4zNiAyOC4xOSAxMi44IDEzLjQ2LTIuOTEgMjAuNzYtMTYuNjUgMjAuOC0yOC4xMSAwLTguMTItMy43My0xNi41OS0xMC0yMi42OC01LjA3LTQuODgtMTEtNy41Ni0xNi4zNS03LjM0YTE2LjA2IDE2LjA2IDAgMCAwLTQuMDkgMC43M3pNMzc0LjkyIDg5Mi4zNWMtMTIuNTYgMy45Mi0yNi43Mi00Ljc4LTMyLjM1LTE1Ljc2LTYuMTYtMTItMS44NS0yNi41MiA0LjIzLTM2LjFzMTQuMzQtMTUuMzQgMjEuNTgtMTUuMDhjMTIuNjcgMC40NCAyMi44MyAxOC40OSAyMy40NSAzNC4zNCAwLjEgMi42NiAwLjU1IDI2LjEzLTE1Ljg1IDMyLjI0LTAuMzUgMC4xMy0wLjcgMC4yNS0xLjA2IDAuMzZ6IG0tOS01Ny44NWMtMy42OSAxLjE2LTguMiA1LjIxLTExLjY5IDEwLjY5LTQuNTYgNy4xOS04LjMxIDE4LjY3LTMuODMgMjcuNCA0IDcuNzYgMTQuNDUgMTQuMTkgMjIuNTUgMTEuMTggMTAuOC00IDEwLjE4LTIyLjg4IDEwLjE1LTIzLjY4LTAuNDgtMTIuMTItOC4zMi0yNS42OS0xNS0yNS45MmE2Ljc0IDYuNzQgMCAwIDAtMi4yMSAwLjMzeiIvPjxwYXRoIGZpbGw9IiNFODNBM0EiIGQ9Ik0zOTQuMTUgMTAxMy44NGMtMS4zOCAwLjQzLTIuNzcgMC44LTQuMiAxLjExLTIyLjU1IDQuODctNDcuNjUtNi42Ny01NS45My0yNS43MS01LjEzLTExLjgtMi4zOS0yMi43MyAwLjc5LTM1LjM3IDIuOC0xMS4xNyAxMS4zNS00NS4xNiAzNC4xOC00OSAxMi41My0yLjEyIDIzLjA3IDYgMzMuMjcgMTMuOTQgMTAuNjkgOC4yOCAyNi44NSAyMC44IDI4LjY1IDQxLjQyIDIuMDkgMjMuNC0xNC4xNyA0Ni41Ni0zNi43NiA1My42MXpNMzY4LjM0IDkxNGMtMTAuNDMgMy4yNi0xOC44NCAxNy4zNy0yNSA0Mi0zIDEyLTUuMTkgMjAuNjgtMS4yNSAyOS43NCA2LjcgMTUuNDIgMjcuMzYgMjQuNjcgNDYgMjAuNjQgMjIuMzMtNC44MSAzNS42NC0yNy4zNyAzNC4wNy00NS40LTEuNDYtMTYuODEtMTUuMjMtMjcuNDctMjUuMjgtMzUuMjYtOS41LTcuMzUtMTcuNy0xMy43MS0yNi40NC0xMi4yM2ExNS40MyAxNS40MyAwIDAgMC0yLjEgMC41MXogbTU4LjIgNDYuNnoiLz48cGF0aCBmaWxsPSIjM0U5MjgwIiBkPSJNODcuMTYgODY2LjU0YTIwOS41OSAyMDkuNTkgMCAwIDEtMjIgMTAuODNjLTIwLjkzIDguOC0yOS40MiA4LjMxLTMzLjQzIDE0LjM0LTMuNjMgNS40Ni0zLjc1IDE2LjQ4IDE1LjE4IDQxLjQ1IDIzLjY3IDIzIDM0LjMzIDIwLjQ5IDM4LjI1IDE4LjU4IDYuMTMtMyA3LjI4LTEwLjIgMTguNDgtMzIuMzIgNS0xMCA5LjU3LTE3Ljg5IDEyLjUxLTIyLjg4IDEuOTItMS43OCA0LjEtMy42NSA2LjUtNS41NGwtMjcuNzItMjkuODVhNDUuMTUgNDUuMTUgMCAwIDEtNy43NyA1LjM5eiIvPjxwYXRoIGZpbGw9IiNFOEE5MzUiIGQ9Ik02NTkuMzUgMzk0Ljg0QTIxIDIxIDAgMCAwIDY0Ny43MSAzODFjLTkuMTEtNC0xNy45LTAuMjEtMTkuMjIgMC4zOWwtMTQuMTkgNi42Ny01MDQuOTIgNDQ4YTQyIDQyIDAgMCAxLTcuMTQgMTcgNDMuNjkgNDMuNjkgMCAwIDEtNy4zMSA4TDEyMi42MiA4OTFjMS44Mi0xLjQ0IDMuNzQtMi44OSA1Ljg0LTQuMzRhMTEwLjQ0IDExMC40NCAwIDAgMSAxNi44My05LjU4bDUwNS4xNy00NDguMjZjMC42MS0wLjUzIDMuODYtNyA3LjM3LTE0LjA4IDIuMDktNC4yMyAzLjItNi42OSAzLjQ5LTEwYTE4LjYxIDE4LjYxIDAgMCAwLTEuOTctOS45ek02NzIuMjIgNDIyTDE5OS4zOSA4MzQuMTZhMTAuMjggMTAuMjggMCAwIDAgMC4xNSA2LjM4YzIgNS4xNiA4Ljg2IDguNDUgMTcuMDUgNy41M2wxMzIuMTktMTA5LjgxYTUyLjUxIDUyLjUxIDAgMCAwIDE5Ljc2LTYuNTMgNTEuMjggNTEuMjggMCAwIDAgMTQuNzQtMTIuODljNy43NC05LjY3IDkxLjM5LTgzLjY0IDMyMy42Mi0yODIuOTF6Ii8+PHBhdGggZmlsbD0iIzNFOTI4MCIgZD0iTTE5NS40NDAxOCA4MzcuNjgzMDA2bTguOTY1NTIyLTcuNzMzMzcxbDU1LjA4Nzk4LTQ3LjUxNzEyMnE4Ljk2NTUyMS03LjczMzM3MSAxNi42OTg4OTIgMS4yMzIxNWwtMC4wMDY1MzEtMC4wMDc1NzJxNy43MzMzNzEgOC45NjU1MjEtMS4yMzIxNTEgMTYuNjk4ODkybC01NS4wODc5OCA0Ny41MTcxMjNxLTguOTY1NTIxIDcuNzMzMzcxLTE2LjY5ODg5Mi0xLjIzMjE1MWwwLjAwNjUzMSAwLjAwNzU3M3EtNy43MzMzNzEtOC45NjU1MjEgMS4yMzIxNTEtMTYuNjk4ODkzWiIvPjxwYXRoIGZpbGw9IiNFOEE5MzUiIGQ9Ik02MDguNzEgMzM4LjIyTDQwNi41NCA1MTIuM2E0Ni4wNyA0Ni4wNyAwIDAgMC0xMC45NCAzNS41NkwyNzkuNyA2NTIuMTlsMTMuODUgMTMgMzQzLjU5LTMwOC41eiIvPjxwYXRoIGZpbGw9IiNFODNBM0EiIGQ9Ik0zNjIuNjYgOTA3LjY2Yy02LjkxIDIuMTYtMTMuNDcgMi4yNC0xOC44Mi0wLjU2LTcuODktNC4xMi0xMy4zMy0xNC43Ny0xNC45My0yOS4yMi0yLjM0LTIxLjIyIDQtNDkuOTQgMjMuMy02Ni4yOSAxMi43My0xMC43NiAzNy41OS0yMC44MyA1My05LjU0IDE4LjMxIDEzLjM5IDExLjI3IDQ5LjEyLTAuODYgNjkuNzYtOS41NiAxNi4yOC0yNi40OCAzMS4wOS00MS42OSAzNS44NXogbS0xNC43Ny04LjMzYzExIDUuNzQgMzYuNTktMTEgNDguOS0zMiAxMC40LTE3LjcxIDE2LjY2LTQ4LjQ0IDMuMjQtNTguMjYtMTAtNy4zNS0yOS45MS0xLjE5LTQyLjE3IDkuMTYtMTYuODYgMTQuMzItMjIuMzMgMzkuNzctMjAuMjQgNTguNjkgMS4yMyAxMS4xNiA1LjE3IDE5Ljc0IDEwLjI3IDIyLjQxeiIvPjxwYXRoIGZpbGw9IiNFREM1ODAiIGQ9Ik00MjIuNjc3MDk5IDg4NC4yNTU5MjVtMTIuMzAzNTE3LTMuODQzOWwwIDBxMTIuMzAzNTE3LTMuODQzOSAxNi4xNDc0MTcgOC40NTk2MTZsNC40NjQxNzMgMTQuMjg4ODc5cTMuODQzOSAxMi4zMDM1MTctOC40NTk2MTcgMTYuMTQ3NDE3bDAgMHEtMTIuMzAzNTE3IDMuODQzOS0xNi4xNDc0MTctOC40NTk2MTZsLTQuNDY0MTczLTE0LjI4ODg3OXEtMy44NDM5LTEyLjMwMzUxNyA4LjQ1OTYxNy0xNi4xNDc0MTdaIi8+PHBhdGggb3BhY2l0eT0iLjY0IiBmaWxsPSIjRTgzQTNBIiBkPSJNNDAzLjI0IDk0MC40NmwtMTYuNzggMzBjLTUuNTctNC0xMS41MS04LjA4LTE3Ljg1LTEyLjEyYTM2Ny44NDUgMzY3Ljg0NSAwIDAgMC0yNi4yMS0xNS4yNGwtMjUuNTMtMTguMjNjNS42OC0zLjQ2IDIxLjY2LTE0LjI0IDI3LjQ4LTM0LjMzYTU0LjQ0IDU0LjQ0IDAgMCAwIDIuMTItMTUuOTNsMTcuODMtMjIuMTRjNy43NiA1LjQ1IDE1LjgyIDExLjUgMjQuMDUgMTguMjFxOC45MSA3LjI1IDE2Ljc0IDE0LjM2bDI1LjU5IDE1LjI4YTEzOS41OCAxMzkuNTggMCAwIDAtMjcuNDQgNDAuMTZ6Ii8+PHBhdGggZmlsbD0iI0U4M0EzQSIgZD0iTTQ0Mi44NTE0OTEgODY2LjUwNzEwOG0yNi4xMjQ2OS04LjE2MTk1MmwyLjEzODA4Mi0wLjY2Nzk4NXEyNi4xMjQ2OS04LjE2MTk1MiAzNC4yODY2NDIgMTcuOTYyNzM5bDAuNjY3OTg2IDIuMTM4MDgycTguMTYxOTUyIDI2LjEyNDY5LTE3Ljk2MjczOSAzNC4yODY2NDJsLTIuMTM4MDgyIDAuNjY3OTg1cS0yNi4xMjQ2OSA4LjE2MTk1Mi0zNC4yODY2NDItMTcuOTYyNzM5bC0wLjY2Nzk4Ni0yLjEzODA4MnEtOC4xNjE5NTItMjYuMTI0NjkgMTcuOTYyNzM5LTM0LjI4NjY0MloiLz48cGF0aCBmaWxsPSIjRTgzQTNBIiBkPSJNNTExLjA2IDg2My43N2wtMS0xLjQ2YTU4MS42NCA1ODEuNjQgMCAwIDEgNjguNjgtMzkuODdjMzcuMzctMTguNCA2Ny42Mi0yOC4yNiA5MS45Mi0zNi4xOCAzNi42OS0xMiA1OC44NC0xOS4xOCA3Mi4yNC00My44OSAxNi4yNC0yOS45MyA4LjY3LTY1LjgxIDQuNjEtODUuMDhhMTY4LjM3IDE2OC4zNyAwIDAgMC0zNC44LTcybDEuMzUtMS4xMWExNzAuMDcgMTcwLjA3IDAgMCAxIDM1LjE2IDcyLjdjNC4xMiAxOS41IDExLjc3IDU1Ljc5LTQuNzcgODYuMjktMTMuNzQgMjUuMzItMzcuNDIgMzMtNzMuMjUgNDQuNzItMjQuMjUgNy45LTU0LjQzIDE3Ljc0LTkxLjY4IDM2LjA4YTU3OS42OSA1NzkuNjkgMCAwIDAtNjguNDYgMzkuOHoiLz48cGF0aCBmaWxsPSIjRTgzQTNBIiBkPSJNNTExLjcyIDg2NC43NmwtMS0xLjQ3YTgxMC40NjQgODEwLjQ2NCAwIDAgMSA2OC45Mi00MC43YzQtMi4xMSA4LTQuMTUgMTEuODQtNi4wOSAyOC42OS0xNC40MiA1Mi45NC0yNC4xMSA3Mi40Mi0zMS44OSAyNS4yNi0xMC4xIDQzLjUxLTE3LjM5IDU3Ljg0LTI4Ljg0YTcyIDcyIDAgMCAwIDE4LjA2LTIxLjE0YzE1LjgtMjggMTIuODctNjEuMjUgMTEuMTItODEuMTRsLTAuMTgtMi4xMWMtMi40OS0yOC42NC0xMy44OS01MC4yNi0yMC43LTYzLjE3LTEuMjctMi40MS0yLjQtNC41Ny0zLjMzLTYuNDZsMS41OC0wLjc3YzAuOTIgMS44OCAyIDQgMy4zMSA2LjQxIDYuODcgMTMgMTguMzcgMzQuODQgMjAuODggNjMuODRsMC4xOSAyLjFjMS43NyAyMC4xIDQuNzMgNTMuNzQtMTEuMzQgODIuMTdhNzQgNzQgMCAwIDEtMTguNDkgMjEuNjRjLTE0LjU0IDExLjYxLTMyLjg5IDE5LTU4LjI5IDI5LjEtMTkuNDUgNy43Ny00My42NiAxNy40NC03Mi4yOSAzMS44MnEtNS43OSAyLjkzLTExLjggNi4wOGE4MTUuNDgxIDgxNS40ODEgMCAwIDAtNjguNzQgNDAuNjJ6Ii8+PHBhdGggZmlsbD0iI0U4M0EzQSIgZD0iTTUxMi4zOSA4NjUuNzRsLTAuOTUtMS40N2MyMy4yMi0xNC45MiA0NS44NS0yOC41IDY5LjE3LTQxLjUzbDEuMjEtMC42OGMzLjU1LTIgNy0zLjkyIDEwLjUtNS43OSAyNC41Ny0xMy4zMiA0NC45NS0yMyA2Mi45My0zMS41OCAyNy42MS0xMy4xNCA0Ny41NS0yMi42MyA2My40LTM2LjNhODQuMTMgODQuMTMgMCAwIDAgMTguMS0yMS41YzE1LjQzLTI2LjE5IDE2LjQ2LTU2Ljk1IDE3LjE0LTc3LjMxbDAuMTUtNC4xMWMwLjg0LTIyLjQ0LTUtNDAuNC05LjMtNTMuNTJhMTA3LjUyIDEwNy41MiAwIDAgMS0zLjkyLTEzLjg0bDEuNzItMC4zYTEwOC4wNyAxMDguMDcgMCAwIDAgMy44NyAxMy41OWM0LjMyIDEzLjI1IDEwLjIzIDMxLjM5IDkuMzggNTQuMTNsLTAuMTQgNC4xMWMtMC42OSAyMC41NC0xLjczIDUxLjU2LTE3LjM5IDc4LjE0YTg2LjgyIDg2LjgyIDAgMCAxLTE4LjQ3IDIxLjk0Yy0xNiAxMy44Mi0zNi4wNiAyMy4zNi02My43OSAzNi41Ni0xOCA4LjU0LTM4LjMyIDE4LjIzLTYyLjg0IDMxLjUzYTkwNi4wNiA5MDYuMDYgMCAwIDAtMTAuNDkgNS43OWwtMS4yMSAwLjY3Yy0yMy4yOSAxMy4wMS00NS44OCAyNi41OC02OS4wNyA0MS40N3oiLz48cGF0aCBmaWxsPSIjRTgzQTNBIiBkPSJNNTEzLjA1IDg2Ni43M2wtMC45My0xLjQ4YzE1LjQ4LTkuNyAzOS41MS0yNC42NCA2OS40MS00Mi4zNmw0LjI2LTIuNTJjMi40Ni0xLjQ2IDQuOS0yLjkxIDcuMzQtNC4zMyAxOC42Mi0xMC44NyAzNC44Mi0xOS44MSA0OS4xMS0yNy43IDMyLTE3LjY2IDU1LTMwLjQxIDczLjI4LTQ3LjMyYTEwMi4yNiAxMDIuMjYgMCAwIDAgMTguMTUtMjEuODdjMTUuMDktMjQuNTkgMTkuNDgtNTIuODcgMjIuNjktNzMuNTMgMC4zMy0yLjExIDAuNjQtNC4xMyAwLjk1LTYuMDYgMi45Mi0xOCAwLjc1LTMzLjM3LTEtNDUuNjktMS4wOC03LjY1LTItMTQuMjUtMS4zNi0xOS40MmwxLjc0IDAuMjJjLTAuNjMgNC45MyAwLjI5IDExLjQzIDEuMzYgMTkgMS43NiAxMi40NCA0IDI3LjkyIDEgNDYuMjEtMC4zMSAxLjkyLTAuNjIgMy45NS0wLjk1IDYtMy4yMyAyMC44LTcuNjYgNDkuMjktMjIuOTMgNzQuMThhMTAzLjc1IDEwMy43NSAwIDAgMS0xOC40NSAyMi4yNGMtMTguMzggMTcuMDUtNDEuNTYgMjkuODUtNzMuNjMgNDcuNTYtMTQuMjggNy44OS0zMC40NyAxNi44My00OS4wNyAyNy42OC0yLjQzIDEuNDItNC44NyAyLjg3LTcuMzMgNC4zM2wtNC4yNSAyLjUyYy0yOS45IDE3LjcyLTUzLjkyIDMyLjYxLTY5LjM5IDQyLjM0eiIvPjxwYXRoIGZpbGw9IiNFODNBM0EiIGQ9Ik01MTMuNzIgODY3LjcybC0wLjkxLTEuNDljMTEuODctNy4yMyAzNi43MS0yMi41MyA2OS42NS00My4yMyAyLTEuMjYgNC0yLjUzIDYtMy43OXEyLjczLTEuNzQgNS40NS0zLjQ0YzguMTItNS4wOCAxNS43My05LjgxIDIyLjktMTQuMjcgNDUuMzktMjguMjIgNzIuNzgtNDUuMjUgOTUuNTYtNjcuODlhMTI3LjU1IDEyNy41NSAwIDAgMCAxOC4xOS0yMi4yNGMxNC43MS0yMyAyMS45Mi00OC44MiAyNy43LTY5LjU0cTEuMi00LjI3IDIuMzItOC4yMWM0LjE2LTE0LjQ3IDQuNy0yNy4zIDUuMTgtMzguNjIgMC40MS05LjU3IDAuNzYtMTcuODQgMy4zNi0yNC4yMmwxLjYzIDAuNjZjLTIuNDkgNi4xLTIuODQgMTQuMjMtMy4yNCAyMy42My0wLjQ4IDExLjQyLTEgMjQuMzYtNS4yNSAzOS0wLjc1IDIuNjItMS41MSA1LjM2LTIuMzEgOC4yLTUuODIgMjAuODQtMTMuMDYgNDYuNzctMjcuOTEgNzBhMTI5LjMyIDEyOS4zMiAwIDAgMS0xOC40NCAyMi41M2MtMjIuOTEgMjIuNzktNTAuMzcgMzkuODYtOTUuODYgNjguMTQtNy4xNyA0LjQ1LTE0Ljc4IDkuMTktMjIuOSAxNC4yNmwtNS40NSAzLjQ0LTYgMy44Yy0zMi45NSAyMC43NS01Ny43OSAzNi4wMi02OS42NyA0My4yOHoiLz48cGF0aCBmaWxsPSIjRTgzQTNBIiBkPSJNNTE0LjM5IDg2OC43MWwtMC45LTEuNTFjMjMuMTMtMTMuNzkgNDYuNjQtMjguNiA2OS45LTQ0cTMuODEtMi41MiA3LjU3LTUuMDdsMy43OC0yLjU0YzU1Ljg2LTM3LjQyIDg3LjI0LTYwLjMzIDExNC41Mi04OS4zYTE3MC4zIDE3MC4zIDAgMCAwIDE4LjI0LTIyLjYxYzE0LjA4LTIxLjE1IDIzLjQ0LTQ0LjE3IDMxLjctNjQuNDcgMS42MS0zLjk0IDMuMTYtNy43NiA0LjctMTEuNDQgNC43OC0xMS40NCA3LjI5LTIyLjMyIDkuNTEtMzEuOTMgMi42MS0xMS4yOCA0Ljg1LTIxIDEwLTI4LjU4bDEuNDUgMWMtNC45MiA3LjI4LTcuMTMgMTYuODgtOS43IDI4LTIuMjMgOS42Ny00Ljc2IDIwLjYzLTkuNiAzMi4yMS0xLjU0IDMuNjctMy4wOSA3LjQ5LTQuNyAxMS40Mi04LjI5IDIwLjM4LTE3LjY5IDQzLjQ4LTMxLjg2IDY0Ljc4YTE3Mi4yNiAxNzIuMjYgMCAwIDEtMTguNDIgMjIuODRjLTI3LjM5IDI5LjEtNTguODUgNTIuMDYtMTE0LjgzIDg5LjU2bC0zLjc3IDIuNTRjLTIuNTIgMS42OS01IDMuMzktNy41OSA1LjA3LTIzLjMxIDE1LjQtNDYuODUgMzAuMjItNzAgNDQuMDN6Ii8+PHBhdGggZmlsbD0iI0U4M0EzQSIgZD0iTTUxNS4wNSA4NjkuN2wtMC44OC0xLjUyYzIzLjc2LTEzLjgzIDQ3LjM2LTI4LjkyIDcwLjE0LTQ0Ljg0IDMuMDUtMi4xMiA2LjA3LTQuMjggOS4wOS02LjQ1bDIuMTUtMS41NGM1Ny41MS00MS4xNSA4NS02Ny40MSAxMTAuNTgtOTYuNDVhMjQ2LjI3IDI0Ni4yNyAwIDAgMCAxOC4yOC0yM2MxMi42My0xOC4yMyAyMy0zNy40IDMyLjk0LTU1Ljk0IDMuMzktNi4zIDYuNTktMTIuMjYgOS44Ni0xOC4xMmEyNjIuNDMgMjYyLjQzIDAgMCAwIDEyLTI1LjM5YzUuNDktMTIuODUgMTAuMjMtMjQgMTguMzktMzIuNzRsMS4yOCAxLjJjLTcuOTQgOC41Ni0xMi42MyAxOS41My0xOC4wNiAzMi4yM2EyNjYuNzkgMjY2Ljc5IDAgMCAxLTEyLjA3IDI1LjU2Yy0zLjI2IDUuODQtNi40NiAxMS43OS05Ljg1IDE4LjA5LTEwIDE4LjU4LTIwLjM1IDM3LjgtMzMgNTYuMTFhMjQ3Ljc5IDI0Ny43OSAwIDAgMS0xOC40IDIzLjEzYy0yNS43MSAyOS4xMy01My4yMyA1NS40Ny0xMTAuODggOTYuNzJsLTIuMTUgMS41NGMtMyAyLjE3LTYuMDYgNC4zNC05LjExIDYuNDYtMjIuODYgMTUuOTctNDYuNSAzMS4wOS03MC4zMSA0NC45NXoiLz48cGF0aCBmaWxsPSIjRTgzQTNBIiBkPSJNNTE1LjcyIDg3MC42OWwtMC44Ny0xLjUzYTcxNy4xMyA3MTcuMTMgMCAwIDAgNzAuMzktNDUuNjdjMy44NC0yLjgxIDcuNy01Ljc2IDExLjExLTguMzYgNTIuMzctNDAgNzcuMjQtNjguMTQgMTA2LjY2LTEwMy42IDUuNDgtNi42IDExLjg3LTE0LjQgMTguMzItMjMuMzQgOS0xMi41MyAxNy44Mi0yNS43MyAyNi4zMS0zOC41IDcuNDEtMTEuMTQgMTUuMDctMjIuNjcgMjIuODgtMzMuNyA0LjQ3LTYuMyA4LjQ2LTEyLjYgMTIuMzItMTguNjggOC43Ni0xMy43OSAxNy0yNi44MiAyOS0zN2wxLjE0IDEuMzNjLTExLjc0IDEwLTE5Ljk0IDIzLTI4LjYyIDM2LjY1LTMuODcgNi4xLTcuODggMTIuNDEtMTIuMzcgMTguNzYtNy43OSAxMS0xNS40NSAyMi41Mi0yMi44NSAzMy42Ni04LjUgMTIuNzctMTcuMjggMjYtMjYuMzUgMzguNTUtNi40OCA5LTEyLjg5IDE2LjgtMTguMzkgMjMuNDMtMjkuNDkgMzUuNTUtNTQuNDMgNjMuODEtMTA2Ljk0IDEwMy44Ny0zLjQyIDIuNjEtNy4yOSA1LjU2LTExLjE0IDguMzlhNzIzLjY0IDcyMy42NCAwIDAgMS03MC42IDQ1Ljc0eiIvPjxwYXRoIGZpbGw9IiNFODNBM0EiIGQ9Ik01MTYuMzkgODcxLjY3bC0wLjg2LTEuNTNhNTYxLjMzIDU2MS4zMyAwIDAgMCA3MC42NC00Ni41YzQtMy4xIDgtNi4zIDExLTguNzQgNDYuNDgtMzcuNzQgNzAuMi02OC41NSA5My4xMy05OC4zNCAzLjE5LTQuMTQgNi4zNy04LjI3IDkuNi0xMi40bDMuNy00LjczYzQuNy02IDkuNTYtMTIuMiAxNC42NS0xOWwzLjQ1LTQuNThjMTYuMS0yMS40MyAzMi43NS00My42IDUyLjE1LTY1Ljc1IDMuMTQtMy41OCA2LjIxLTcuMTggOS4yNS0xMC43NUM3OTYuMzkgNTgzLjc2IDgwOSA1NjkgODI2IDU1Ni44MmwxIDEuNDJjLTE2Ljg3IDEyLjA4LTI5LjM3IDI2Ljc0LTQyLjU5IDQyLjI2LTMgMy41OC02LjEyIDcuMTktOS4yNyAxMC43OC0xOS4zNiAyMi4xLTM2IDQ0LjI0LTUyLjA3IDY1LjY1bC0zLjQ1IDQuNThjLTUuMSA2Ljc5LTEwIDEzLTE0LjY3IDE5bC0zLjcgNC43M2MtMy4yMyA0LjEzLTYuNCA4LjI1LTkuNTkgMTIuMzktMjMgMjkuODctNDYuNzcgNjAuNzYtOTMuNDEgOTguNjMtMyAyLjQ1LTcgNS42NS0xMSA4Ljc3YTU2My41OCA1NjMuNTggMCAwIDEtNzAuODYgNDYuNjR6Ii8+PHBhdGggZmlsbD0iI0U4M0EzQSIgZD0iTTUxNy4wNSA4NzIuNjZsLTAuODMtMS41NGE0NjMuNyA0NjMuNyAwIDAgMCA3MC44Ny00Ny4zMmMzLjQzLTIuNzggNy01Ljc2IDEwLjg4LTkuMTIgNDAuNzctMzUuMiA2Mi4xMi02NS43OCA4Mi43Ny05NS4zNSA1LjQyLTcuNzYgMTAuNTQtMTUuMSAxNi0yMi41NSA1LTYuNzUgMTAuODEtMTQuNCAxOC4zOS0yNC4wNyAyMC42My0yNi4zMiA0MC4zMy00OC4wNyA2Mi02OC40NSAyMC4xOC0xOSAzOC44NS0zNS45IDYzLTUwLjg4bDAuOTMgMS40OWMtMjQgMTQuOS00Mi42NCAzMS43Ni02Mi43NSA1MC42Ny0yMS42IDIwLjMxLTQxLjI1IDQyLTYxLjgyIDY4LjI1LTcuNTcgOS42Ni0xMy40IDE3LjI5LTE4LjM2IDI0LTUuNDcgNy40My0xMC41OSAxNC43Ni0xNiAyMi41Mi0yMC42NiAyOS42OS00Mi4wOCA2MC4zNi04My4wMSA5NS42OS0zLjkxIDMuMzgtNy40OCA2LjM3LTEwLjkyIDkuMTZhNDY2LjEgNDY2LjEgMCAwIDEtNzEuMTUgNDcuNXoiLz48cGF0aCBmaWxsPSIjRTgzQTNBIiBkPSJNNTE3LjcyIDg3My42NWwtMC44Mi0xLjU1YTM5NC45MiAzOTQuOTIgMCAwIDAgODEuODgtNTcuNjVjMzctMzMuODggNTYuNDMtNjQuODcgNzUuMjUtOTQuODQgNi41Ni0xMC40NiAxMi43Ni0yMC4zNCAxOS42MS0zMC4yIDM4LjEzLTU0Ljg4IDkyLjItMTAxLjggMTYwLjcyLTEzOS40NmwwLjg1IDEuNTRDNzg2LjkyIDU4OSA3MzMuMDUgNjM1Ljc1IDY5NS4wOSA2OTAuNDFjLTYuODMgOS44My0xMyAxOS42OS0xOS41OCAzMC4xMy0xOC44OCAzMC4wNy0zOC40IDYxLjE2LTc1LjU1IDk1LjJhMzk2Ljg2IDM5Ni44NiAwIDAgMS04Mi4yNCA1Ny45MXoiLz48cGF0aCBmaWxsPSIjM0U5MjgwIiBkPSJNNjA3LjU0IDM4OS41NGwtNjEgNTAuOTEtMjQuNDctMjguMzcgNzIuMjYtNjIuNjhhMTAyIDEwMiAwIDAgMCA1Ljg2IDI0LjQ1IDEwNi41MSAxMDYuNTEgMCAwIDAgNy4zNSAxNS42OXpNNjUxLjc2IDQzOWwtNTkuMzkgNTIuNzkgMjIuNTIgMjYuMTEgNzIuNi02Mi4yOEE5MS44MyA5MS44MyAwIDAgMSA2NTEuNzYgNDM5ek02NDYuNTMgNDMzbC0xMDcuNDUgOTcuMzctMzcuNTctNDEuNDRMNjA5IDM5MS41M0E1Ni45IDU2LjkgMCAwIDAgNjQ2LjUzIDQzM3pNMzI3LjQzIDYzNi40M2wtMjkuMTEgMjUuMWE5LjQ5IDkuNDkgMCAwIDEtMTMuMzUtMWwtMy4wOS0zLjUzYTkuNSA5LjUgMCAwIDEgMS0xMy4zNSA3Mi44OCA3Mi44OCAwIDAgMCAyMC0xMy41NGM3LjI0LTcgMTAuNDQtMTMuMTYgMTcuODgtMTQuNzlhMjAuMyAyMC4zIDAgMCAxIDEyLjM5IDEuNjggMTYuNTMgMTYuNTMgMCAwIDEgMC43OCA5Ljg2IDE2LjcgMTYuNyAwIDAgMS02LjUgOS41N3oiLz48cGF0aCBmaWxsPSIjRThBOTM1IiBkPSJNMTEyLjkzIDkwMy4wNmEyLjYyIDIuNjIgMCAwIDEtMi43OC0wLjc5bC0yNS43Mi0yOS44MmEyLjYzIDIuNjMgMCAxIDEgNC0zLjQ0bDI1LjcyIDI5LjgyYTIuNjMgMi42MyAwIDAgMS0wLjI3IDMuNzEgMi40NiAyLjQ2IDAgMCAxLTAuOTUgMC41MnoiLz48cGF0aCBmaWxsPSIjRURDNTgwIiBkPSJNNDk0Ljk2NzMwNSA4NTkuMTMwNjNtMTMuNTkyMDkzLTQuMjQ2NDgxbDAgMHExMy41OTIwOTMtNC4yNDY0ODEgMTcuODM4NTc1IDkuMzQ1NjEybDAgMHE0LjI0NjQ4MSAxMy41OTIwOTMtOS4zNDU2MTIgMTcuODM4NTc0bDAgMHEtMTMuNTkyMDkzIDQuMjQ2NDgxLTE3LjgzODU3NS05LjM0NTYxMmwwIDBxLTQuMjQ2NDgxLTEzLjU5MjA5MyA5LjM0NTYxMi0xNy44Mzg1NzRaIi8+PHBhdGggZmlsbD0iIzNFOTI4MCIgZD0iTTQ4Ny44MyA1MzUuOG0tMTIuMjcgMGExMi4yNyAxMi4yNyAwIDEgMCAyNC41NCAwIDEyLjI3IDEyLjI3IDAgMSAwLTI0LjU0IDBaIi8+PHBhdGggZmlsbD0iIzNFOTI4MCIgZD0iTTQ4Ny44MyA1MzUuOG0tMTIuMjcgMGExMi4yNyAxMi4yNyAwIDEgMCAyNC41NCAwIDEyLjI3IDEyLjI3IDAgMSAwLTI0LjU0IDBaIi8+PHBhdGggZmlsbD0iIzNFOTI4MCIgZD0iTTQzNy43MyA1NzkuOTltLTEyLjI3IDBhMTIuMjcgMTIuMjcgMCAxIDAgMjQuNTQgMCAxMi4yNyAxMi4yNyAwIDEgMC0yNC41NCAwWiIvPjxwYXRoIGZpbGw9IiMzRTkyODAiIGQ9Ik0zODcuNjQgNjI0LjE5bS0xMi4yNyAwYTEyLjI3IDEyLjI3IDAgMSAwIDI0LjU0IDAgMTIuMjcgMTIuMjcgMCAxIDAtMjQuNTQgMFoiLz48cGF0aCBmaWxsPSIjM0U5MjgwIiBkPSJNMzM3LjU1IDY2OC4zOW0tMTIuMjcgMGExMi4yNyAxMi4yNyAwIDEgMCAyNC41NCAwIDEyLjI3IDEyLjI3IDAgMSAwLTI0LjU0IDBaIi8+PHBhdGggZmlsbD0iIzNFOTI4MCIgZD0iTTI5Ni42NiA3MDQuNDdtLTEyLjI3IDBhMTIuMjcgMTIuMjcgMCAxIDAgMjQuNTQgMCAxMi4yNyAxMi4yNyAwIDEgMC0yNC41NCAwWiIvPjxwYXRoIGZpbGw9IiMzRTkyODAiIGQ9Ik0yNDcuODggNzQ3LjUxbS0xMi4yNyAwYTEyLjI3IDEyLjI3IDAgMSAwIDI0LjU0IDAgMTIuMjcgMTIuMjcgMCAxIDAtMjQuNTQgMFoiLz48cGF0aCBmaWxsPSIjM0U5MjgwIiBkPSJNMTg3LjI3IDgwMC45OW0tMTIuMjcgMGExMi4yNyAxMi4yNyAwIDEgMCAyNC41NCAwIDEyLjI3IDEyLjI3IDAgMSAwLTI0LjU0IDBaIi8+PHBhdGggb3BhY2l0eT0iLjY0IiBmaWxsPSIjRTgzQTNBIiBkPSJNMzM4Ljg4NDc2MSA4OTguOTg0NTQzbTI2LjEyNDY5MS04LjE2MTk1MmwyLjEzODA4Mi0wLjY2Nzk4NXEyNi4xMjQ2OS04LjE2MTk1MiAzNC4yODY2NDIgMTcuOTYyNzM4bDAuNjY3OTg1IDIuMTM4MDgzcTguMTYxOTUyIDI2LjEyNDY5LTE3Ljk2MjczOSAzNC4yODY2NDFsLTIuMTM4MDgyIDAuNjY3OTg2cS0yNi4xMjQ2OSA4LjE2MTk1Mi0zNC4yODY2NDItMTcuOTYyNzM5bC0wLjY2Nzk4NS0yLjEzODA4MnEtOC4xNjE5NTItMjYuMTI0NjkgMTcuOTYyNzM5LTM0LjI4NjY0MloiLz48cGF0aCBmaWxsPSIjRURDNTgwIiBkPSJNODYyLjU2IDI4NS40OWMtNiAxLjg2LTEyLjE2IDEuNzYtMTYuMjUgMS42OC0yMi43LTAuMzktNDEuODYtMTYuOTUtNTEuMzgtMzEtOC42OS0xMi44NS0xMS41MS0yNS45LTcuNzQtMzUuODEgNS43LTE1IDI3LjItMjQuMzUgNDMuODYtMjQuNDRhMTQ4LjU5IDE0OC41OSAwIDAgMSAxOC4xMyAxQzg0NSAxODIuMzkgODQzLjgzIDE2OSA4NTEuNDEgMTU5YTI5LjEgMjkuMSAwIDAgMSAxNi44My0xMC4yMUM4ODIuOTEgMTQ2IDg5NSAxNTYuNjUgODk5IDE2MC4xNmMxMi4wNyAxMC42NiAyNC41NyAzMS41NCAxNi42NCA0My4wNS01LjU5IDguMTItMjAuODMgNi44OC01My44MSAzLjcxIDEuNTggNC4yMSAzLjI5IDguNDggNSAxMi43MiA5LjM1IDIzLjM3IDE4LjE4IDQ1LjQ0IDYuNjUgNTguOTFhMjMuMDcgMjMuMDcgMCAwIDEtMTAuOTIgNi45NHpNODE3LjI5IDIwN2MtOS44NiAzLjA4LTE5LjA3IDktMjEuOTEgMTYuNS0yLjcgNy4xLTAuMTUgMTcuNDggNi44MSAyNy43OCA5IDEzLjI5IDI2LjE3IDI2Ljg0IDQ0LjI3IDI3LjE2IDYuMTIgMC4xIDE1LjM2IDAuMjYgMjAuMzUtNS41NiA4LjA4LTkuNDQtMC4xNi0zMC04LjEzLTUwLTIuMjYtNS42NC00LjUzLTExLjMyLTYuNTMtMTYuOTItMTIuMjQtMS4xNy0xNC42Mi0xLjMzLTIxLjA2LTEuM2E0Ny44MyA0Ny44MyAwIDAgMC0xMy44IDIuMzR6IG00MS4zNC05LjE3bDEuMTkgMC4xMmMyNC41NiAyLjM3IDQ1Ljc4IDQuNDIgNDguNiAwLjMyIDMuNzYtNS40Ni00LjA2LTIxLjY1LTE1LjIyLTMxLjUtMy4xOC0yLjgxLTEyLjg2LTExLjM0LTIzLjMxLTkuMzRhMjAuNTUgMjAuNTUgMCAwIDAtMTEuNTEgNi45MmMtNS45IDcuNzItNC4xIDE5LjkyIDAuMjUgMzMuNDV6IG0tMy43My0zNi4xNHoiLz48cGF0aCBmaWxsPSIjRURDNTgwIiBkPSJNNzQwLjE4IDQyOS4yNWE2OC4xMSA2OC4xMSAwIDAgMS0yMS43NyAzLjEzYy0xNi4xOC0wLjM0LTMxLjQ2LTYuMzItNDMuMjEtMTQuMS05LjQgNy4yNi0yMi44NCA5LjEyLTMzLjY0IDcuMzgtMjIuODgtMy42OC0zNC40OC0yOC43OC0zMi40OC01MC45MSAxLjI2LTEzLjg5IDcuODUtMjUuMjggMTcuMjUtMzcuMTktMTAuMDgtOC44My0xNi45Mi0yMi4zMS0xMy4zMy0zMy41NiAzLjQ3LTExIDE0Ljk0LTE0LjUxIDI2LjA2LTE3LjkybDAuMTktMC4wNWEzOC4zMiAzOC4zMiAwIDAgMSAzLjM2LTEwLjE5YzMuODgtNy44NSAxMC41OS0xNC43IDE5LjU0LTIwLjEtMS4zNC02LTIuMzktMTIuODIgMi0yMC44OSA0LjY1LTguNTggMTQuNzYtMTcuMiAyNS45NC0xNS44OCAxMi4xMiAxLjQ0IDIwLjkzIDEzLjQ4IDIyLjE3IDI0LjMxYTkxLjg2IDkxLjg2IDAgMCAxIDI1Ljg0IDQuMTNjMy42My02LjI1IDYuNzMtOS41NSAxMi4yNy0xMC4yNiAxMC4zOC0xLjMzIDE5LjgzIDcuMTMgMjguNDcgMTcuODdhMzEuODQgMzEuODQgMCAwIDEgOC4yOC00LjU4IDMwLjExIDMwLjExIDAgMCAxIDE1LjY0LTEuODFjLTAuNTItMi44NS0xLjEyLTUuNzYtMS43OS04LjdhMTI1LjgxIDEyNS44MSAwIDAgMC04LjQzLTI1LjM4Yy0yLjY1LTYuMDgtNC43NS0xMC44OC00LjQ2LTE4LjY0IDAuNTYtMTQuODkgOS42My0zMi4wNyAyMy42OS00NC44NUM4MjcuMTggMTM3IDg0Ni4zIDEyOS45MSA4NjUuNTQgMTMxYzMxLjM4IDEuODEgNjAuNTQgMjUgNjUgNTEuNjkgMi41MyAxNS4xMS0yLjU1IDMxLTE0LjY3IDQ2LTE3LjYgMjEuNzMtNDYuNTEgMzcuMDctNzEuOTMgMzguMTctMTMuMjYgMC41OC0yMi44My0zLTMwLjUzLTUuODcgMC40MyAzLjYyIDAuNzMgNy4wOCAwLjg5IDEwLjI2IDAuNzcgMTQuODctMS4zOCAyMi40Ni03IDI0LjYxLTcuODkgMy4wNi0xNC45My02Ljk0LTI0LjY4LTIwLjc2LTEuNC0yLTIuODktNC4xMS00LjQ0LTYuMjVhNDYuMjUgNDYuMjUgMCAwIDAtMyA1Ljg0YzYgOC4xNiA5Ljk1IDE2LjQxIDEyLjkxIDIyLjUzIDMuMzQgNi45MiAxMy41MyAyOCAxMC40OCA1Ni4xOC0xIDguNzQtMy40NyAzMi0yMi4zMyA1Mi4zMi0xMC41OCAxMS40Mi0yMi45NSAxOS40My0zNi4wNiAyMy41M3ogbS01OC44NC0xNy4zOWMxMC4yOCA2LjUzIDIzLjM5IDExLjQ2IDM3LjI1IDExLjc1IDE4LjQyIDAuMzkgMzYuNjItOC4wOSA1MS4yNS0yMy44NyAxNi44OS0xOC4yMyAxOS4xOC0zOS4zNSAyMC00Ny4zMSAyLjc4LTI1LjctNi41OC00NS4wNS05LjY2LTUxLjQxYTE1Mi41OCAxNTIuNTggMCAwIDAtOC44My0xNi4zNWMtMC4yIDAuNTUtMC4zOSAxLjExLTAuNTkgMS42OC00LjEzIDExLjc0LTkuMjcgMjYuMzYtMjEuMjYgNDAuODktMjAuMjIgMjQuNTUtNDUuNyAzMi43Ni02NC4zMSAzOC43Ni0yLjI0IDAuNzMtNC4zNSAxLjQxLTYuMzEgMi4wOCA3LjUzIDE2LjM0IDExLjEyIDMxLjQgMi40NiA0My43OHogbS00Ny44OC02OS4xN2MtOC41OSAxMC44Ny0xNC41OCAyMS4wOC0xNS42NCAzMi44NS0xLjYxIDE3LjczIDcuNTQgMzguNjMgMjUuMTMgNDEuNDYgNy45MSAxLjI4IDE3LjY5IDAgMjQuNzktNC4yOGE2Ni40MyA2Ni40MyAwIDAgMS03LjM3LTcuMThjLTcuMjMtOC4zLTEwLjU3LTE2LjcyLTkuNjctMjQuMzcgMS04Ljk0IDcuMzMtMTQgMTYtMTcuODQtMi4yMS00LjI3LTQuNjEtOC42My03LTEzLjA1LTAuNTgtMS0xLjE2LTIuMS0xLjczLTMuMTZhMzcuNTQgMzcuNTQgMCAwIDEtMjEuMzQtMi44Yy0xLjA1LTAuNDktMi4xMi0xLjAzLTMuMTctMS42M3ogbTM3LjE4IDI4LjVjLTYuOCAyLjk0LTEwLjY2IDYuMDYtMTEuMjQgMTFzMi4xIDExLjI5IDcuNTggMTcuNThhNTguMzMgNTguMzMgMCAwIDAgNy4yNSA3YzYuMTgtOS4wNyAyLjkzLTIxLjU4LTMuNTktMzUuNTh6TTY2Ni44MSAzNDVjMC4yIDAuMzYgMC40IDAuNzIgMC41OSAxLjA4IDIuNjIgNC43NSA1LjIgOS40NiA3LjU4IDE0LjA5IDIuNDItMC44NCA0Ljk0LTEuNjUgNy41Mi0yLjQ4IDE4LjU2LTYgNDEuNjUtMTMuNDUgNjAuMjgtMzYgMTEtMTMuMzMgMTUuNjUtMjYuNTUgMTkuNzUtMzguMjIgMC44OC0yLjUyIDEuNzUtNSAyLjY1LTcuMzVhNjMuNjIgNjMuNjIgMCAwIDAtMTctMTQuNjkgNjIuMzIgNjIuMzIgMCAwIDAtNi4wNS0zLjA3bC0wLjY4IDEuMzFjLTMuNjYgNy04LjY4IDE2LjY3LTE2Ljc0IDI5LjY3LTEzLjI4IDIxLjQtMjAuNTkgMzMuMTktMzQuMTUgNDIuNzktNC41NiAzLjIzLTEzLjI3IDkuMzctMjMuNzUgMTIuODd6IG0tNC4yOC03Ljg4YzEwLTMgMTguNTktOS4wNiAyMy0xMi4xNyAxMS42Mi04LjIyIDE4LjEzLTE4LjI4IDMxLjc2LTQwLjI1IDcuODktMTIuNzIgMTIuODEtMjIuMTkgMTYuNDEtMjkuMWwwLjE1LTAuMjhhODMuMTkgODMuMTkgMCAwIDAtMjIuMzItMy4yNmMtMS44NiA2LjQ0LTcuNTMgMTYuMjctMjQuMTIgMzQuNzFhMjU1Ljc3IDI1NS43NyAwIDAgMS0yMy41NCAyMy4zMmMtMy4zOSAzLTYuNSA1Ljc3LTEwIDkuMzMgMi40NiA1LjgyIDUuNDggMTEuNzUgOC42NiAxNy42OXogbS0yMy4zOS0xLjMxcTAuNTcgMC4yOSAxLjE0IDAuNTRhMjcuODkgMjcuODkgMCAwIDAgMTMuMTggMi4zOWMtMi4xNy00LjExLTQuMjUtOC4yMy02LjEzLTEyLjMzYTAuNDcgMC40NyAwIDAgMC0wLjEgMC4xYy0yLjgyIDMuMi01LjUzIDYuMjgtOC4wOSA5LjI5eiBtMTQ1LTczLjc1YzEuOTQgMi42NSAzLjg0IDUuMzQgNS43IDggNC41NSA2LjQ2IDExLjMzIDE2LjA2IDE0LjM5IDE3LjQyIDEuOTItMi45IDItMTQuNjcgMC0yOS41NmEyMi4yIDIyLjIgMCAwIDAtMTQgMC43OCAyMy4zMyAyMy4zMyAwIDAgMC02LjExIDMuMzV6IG0tMTQ1LjU2IDMzLjM3Yy04LjQ0IDIuNjQtMTUuNCA1LjMzLTE3LjI3IDExLjI1LTIuMTcgNi44OCAyLjc2IDE3LjExIDEwLjU5IDI0LjEgMi43Ni0zLjI2IDUuNy02LjYgOC43NS0xMC4wN3ExLjUxLTEuNzIgMi45Mi0zLjI1YTcxLjE2IDcxLjE2IDAgMCAxLTQuOTktMjIuMDN6TTgxMiAyNTEuMTJjMS40NiAwLjUxIDIuOTEgMSA0LjM4IDEuNiA3LjY5IDIuODkgMTUuNjMgNS44NiAyNy4xNiA1LjM2IDIyLjctMSA0OS42NC0xNS4zNCA2NS41LTM0LjkzIDcuMzItOSAxNS40OS0yMy4xMyAxMi44NC0zOS0zLjgzLTIyLjg5LTI5LjM0LTQyLjgtNTYuODYtNDQuMzktMTYuODgtMS0zMy43MiA1LjM1LTQ3LjQyIDE3LjgxLTEyLjM4IDExLjI1LTIwLjM2IDI2LjA4LTIwLjgzIDM4LjctMC4yMSA1Ljc2IDEuMTkgOSAzLjc0IDE0LjhhMTM2LjYzIDEzNi42MyAwIDAgMSA4Ljk2IDI2LjkzYzAuOTcgNC4yNyAxLjgzIDguNzEgMi41MyAxMy4xMnogbS0xNjQuNjIgNDEuNTZhNTMuODUgNTMuODUgMCAwIDAgMyAxNy43OGMyLjYzLTIuNTIgNS4wOC00LjcgNy42LTYuOTNhMjUyLjYgMjUyLjYgMCAwIDAgMjIuODUtMjIuNjNjMTMuNC0xNC45IDE4LjkxLTIzLjQyIDIxLjE2LTI4LjVhOTMuNjQgOTMuNjQgMCAwIDAtMTguNSAzLjYgNzkuNDEgNzkuNDEgMCAwIDAtMTEuNDMgNC40MiAyNS44IDI1LjggMCAwIDEtMSAxMy44MWMtNC4wNiAxMC42Mi0xMy44MiAxNS4xNy0yMy42OCAxOC40NXogbTk5LTQyLjA2YTY3LjU4IDY3LjU4IDAgMCAxIDYuMjMgMy4yIDcwLjI1IDcwLjI1IDAgMCAxIDE2LjQ4IDEzLjM1IDQzLjg5IDQzLjg5IDAgMCAxIDMuNTUtNS43NWMtNy4wNi04Ljg4LTE0LjcxLTE2LjM2LTIxLjE4LTE1LjUzLTEuNzggMC4yMi0zLjEzIDEuNS01LjEgNC43M3ogbS04Mi41OSAxNC41NmMtNi4wOCA0LjE5LTEwLjY3IDkuMTYtMTMuMzUgMTQuNThhMjkuMzUgMjkuMzUgMCAwIDAtMS4yNiAzYzYuMzMtMi41MSAxMS40OS01LjggMTMuNjYtMTEuNmExNS4zNSAxNS4zNSAwIDAgMCAwLjkzLTUuOTh6TTY4MCAyNDcuODdsMC45My0wLjI5YTEwMS43IDEwMS43IDAgMCAxIDIyLjQzLTQuMDZjLTEuMTctNy03LjE5LTE1LTE0LjM5LTE1LjgtNi43My0wLjgtMTMuODkgNS4yNS0xNy4yIDExLjM1LTIuNDcgNC41NC0yLjQgOC4zMy0xLjYyIDEyLjUxYTg4LjYxIDg4LjYxIDAgMCAxIDkuODUtMy43MXoiLz48cGF0aCBmaWxsPSIjRURDNTgwIiBkPSJNNzA4LjMgNDM2LjMxYTc0LjY3IDc0LjY3IDAgMCAxLTE4LjEgMy4zYy0xMy41MyAwLjc4LTQ2LjIgMC01Ny40My0yMy43My04LTE2Ljg1LTAuMjEtMzQuODggMy40OS00MS44NWE0LjM4IDQuMzggMCAxIDEgNy43NCA0LjExYy0yLjQgNC41My05Ljc1IDIwLjM2LTMuMyAzNCA5LjIgMTkuNDcgMzkuODMgMTkuMjYgNDkgMTguNzMgMjUuMjMtMS40NSA0Mi43OS0xNy4yIDUyLjIyLTI1LjY2IDgtNy4xOSAxOS0xNyAyNS43OS0zMy43NCA0LjExLTEwLjA5IDUuMzMtMTkuNDQgNi40MS0yNy42OSAxLjUyLTExLjY4IDIuODgtMjEuNzggMTIuMjctMjYuODggNi40MS0zLjQ5IDEzLjMtMi43OSAxNi42MS0yLjQ2IDEzIDEuMyAyMS45NCA2LjkyIDI1LjIyIDE1Ljg0IDMuNjMgOS44NC0wLjQ2IDIxLjg2LTkuOTQgMjkuMjJhNC4zOCA0LjM4IDAgMSAxLTUuMzctNi45MmM2LjQ5LTUuMDUgOS40LTEzIDcuMDktMTkuMjctMi43OC03LjU1LTEyLjM5LTkuNi0xNy44Ny0xMC4xNS0yLjYzLTAuMjYtNy41Mi0wLjc1LTExLjU2IDEuNDQtNS4yNSAyLjg2LTYuMjcgOC45My03Ljc2IDIwLjMtMS4wOSA4LjM0LTIuNDUgMTguNzItNyAyOS44Ny03LjU1IDE4LjU3LTE5Ljg5IDI5LjY0LTI4LjA1IDM3LTcuODYgNy4wMi0yMC45NSAxOC43Ni0zOS40NiAyNC41NHoiLz48L3N2Zz4=;" vertex="1" parent="1">
          <mxGeometry x="210" y="400" width="90" height="90" as="geometry" />
        </mxCell>
        <mxCell id="F-9ztQ3IZIlNfO3_O9eN-4" value="" style="shape=image;verticalLabelPosition=bottom;labelBackgroundColor=default;verticalAlign=top;aspect=fixed;imageAspect=0;image=data:image/svg+xml,PHN2ZyB4bWxuczp4bGluaz0iaHR0cDovL3d3dy53My5vcmcvMTk5OS94bGluayIgeG1sbnM9Imh0dHA6Ly93d3cudzMub3JnLzIwMDAvc3ZnIiBoZWlnaHQ9IjIwMCIgd2lkdGg9IjIwMCIgdmVyc2lvbj0iMS4xIiB2aWV3Qm94PSIwIDAgMTAyNCAxMDI0IiBjbGFzcz0iaWNvbiI+PHBhdGggZmlsbD0iI0ZCRjBFMiIgZD0iTTU1Mi44MzUzMzkgMzI3Ljc0Njc4M0g0MDguODI1MzIyYTIyLjcwNjA4NyAyMi43MDYwODcgMCAwIDEtMjIuNzE5NDQ0LTIyLjY5MjczMSAyMi43MDYwODcgMjIuNzA2MDg3IDAgMCAxIDIyLjcxOTQ0NC0yMi42OTcxODJoMjMuMzAyNjc4YzIyLjI4NzU4MyAwIDQwLjM1MDA1Mi0xOC4wNzU4MjYgNDAuMzUwMDUyLTQwLjM2Nzg2MWE0MC4zNTAwNTIgNDAuMzUwMDUyIDAgMCAwLTQwLjM1MDA1Mi00MC4zNTAwNTJIMjIxLjA0NTk4M2E0MC4zNTAwNTIgNDAuMzUwMDUyIDAgMCAwLTQwLjM1NDUwNSA0MC4zNTAwNTJjMCAyMi4yOTIwMzUgMTguMDY2OTIyIDQwLjM2Nzg2MSA0MC4zNTQ1MDUgNDAuMzY3ODYxaDQzLjI3MDY3OGEyMi43MDYwODcgMjIuNzA2MDg3IDAgMCAxIDIyLjcwMTYzNSAyMi42OTcxODIgMjIuNzA2MDg3IDIyLjcwNjA4NyAwIDAgMS0yMi43MDE2MzUgMjIuNjkyNzMxSDIwNC44NTM0MjZjLTMzLjg0OTg3OCAwLTYxLjI3OTcyMiAyNy40NDMyLTYxLjI3OTcyMiA2MS4yNzk3MjFzMjcuNDI5ODQzIDYxLjI2NjM2NSA2MS4yNzk3MjIgNjEuMjY2MzY2aDM0Ny45ODE5MTNjMzMuODQ1NDI2IDAgNjEuMjc1MjctMjcuNDI5ODQzIDYxLjI3NTI3LTYxLjI2NjM2NiAwLTMzLjg0MDk3NC0yNy40MzQyOTYtNjEuMjc5NzIyLTYxLjI3NTI3LTYxLjI3OTcyMXpNODIxLjQ2NjE1NyA3NTMuNjY4NDUyaC04My4wOTA5MjJhMjUuNDkzMTQ4IDI1LjQ5MzE0OCAwIDAgMSAwLTUwLjk4NjI5NWgyNi4xNjk4NzhjMjUuMDM0NTc0IDAgNDUuMzE0MjI2LTIwLjI4NDEwNCA0NS4zMTQyMjYtNDUuMzIzMTMxIDAtMjUuMDI1NjctMjAuMjc5NjUyLTQ1LjMxNDIyNi00NS4zMTQyMjYtNDUuMzE0MjI2aC0zMjUuNjc2NTIyYy0yNS4wMjU2NyAwLTQ1LjMxNDIyNiAyMC4yODg1NTctNDUuMzE0MjI2IDQ1LjMxNDIyNiAwIDI1LjAzOTAyNiAyMC4yODg1NTcgNDUuMzIzMTMgNDUuMzE0MjI2IDQ1LjMyMzEzMWgxMzcuMjU2MDdhMjUuNDkzMTQ4IDI1LjQ5MzE0OCAwIDAgMSAwIDUwLjk4NjI5NWgtNzEuNzY5MDQ0Yy0zOC4wMDM3NTcgMC02OC43OTk0NDMgMzAuODA0NTkxLTY4Ljc5OTQ0MyA2OC44MDM4OTYgMCAzNy45OTA0IDMwLjc5NTY4NyA2OC43OTQ5OTEgNjguNzk5NDQzIDY4Ljc5NDk5MWgzMTcuMTE0OTkyYzM3Ljk5OTMwNCAwIDY4LjgwMzg5Ni0zMC44MDQ1OTEgNjguODAzODk1LTY4Ljc5NDk5MS0wLjAwNDQ1Mi0zNy45OTkzMDQtMzAuODA5MDQzLTY4LjgwMzg5Ni02OC44MDgzNDctNjguODAzODk2eiIvPjxwYXRoIGZpbGw9IiNGNUIxNTgiIGQ9Ik0zOTMuNTU4ODE3IDI2Ny42ODY5NTdsMTAuNTQ3MiAxMC41NDcyLTEwLjU1MTY1MiAxMC41NDcyLTEwLjU0Mjc0OC0xMC41NDcyek0zOTMuNTcyMTc0IDMxOC4yMTkxM2wtMTAuNTQyNzQ4LTEwLjU0NzIgMTAuNTUxNjUyLTEwLjU0Mjc0NyAxMC41NDI3NDggMTAuNTQ3MnpNMzk3LjcyMTYgMjkyLjk1MzA0M2wxMC41NDcyLTEwLjU0Mjc0N0w0MTguODE2IDI5Mi45NTMwNDNsLTEwLjU1MTY1MiAxMC41NTE2NTN6TTM2OC4yODgyNzggMjkyLjk3MDg1MmwxMC41NTE2NTItMTAuNTQ3MiAxMC41NDI3NDggMTAuNTUxNjUyLTEwLjU1MTY1MiAxMC41NDI3NDh6Ii8+PHBhdGggZmlsbD0iI0QwNEUzOSIgZD0iTTgzNi42NjE0MjYgMzgzLjE0OTYzNWw4LjY4MTczOSA4LjY3MjgzNS04LjY4MTczOSA4LjY4MTczOS04LjY3MjgzNS04LjY4MTczOXpNODM2LjY1MjUyMiA0MjQuNzI4NDg3bC04LjY2ODM4My04LjY3MjgzNSA4LjY3NzI4Ny04LjY3NzI4NyA4LjY3MjgzNSA4LjY3MjgzNXpNODQwLjA4NTE0OCA0MDMuOTY4bDguNjc3Mjg3LTguNjY4MzgzIDguNjcyODM1IDguNjgxNzQtOC42NzI4MzUgOC42NjgzODJ6TTgxNS44Nzg2NzggNDAzLjk2OGw4LjY3NzI4Ny04LjY3MjgzNSA4LjY3MjgzNSA4LjY4MTczOS04LjY3NzI4NyA4LjY2ODM4M3oiLz48cGF0aCBmaWxsPSIjRDA0RTM5IiBkPSJNMTUzLjkwMjc0OCA0OTQuNTc4NjQzbDguNjcyODM1IDguNjgxNzQtOC42NzcyODcgOC42NzI4MzQtOC42NzI4MzUtOC42ODE3Mzl6TTE1My44OTgyOTYgNTM2LjE0NDEzOWwtOC42NzcyODctOC42NzI4MzUgOC42NzI4MzQtOC42NzcyODcgOC42ODE3NCA4LjY3NzI4N3pNMTU3LjMzMDkyMiA1MTUuMzY1ODQzbDguNjcyODM1LTguNjY4MzgyIDguNjcyODM0IDguNjcyODM1LTguNjcyODM0IDguNjcyODM0ek0xMzMuMTI0NDUyIDUxNS4zNjU4NDNsOC42NzI4MzUtOC42NzI4MzQgOC42NzI4MzUgOC42NzcyODctOC42NzI4MzUgOC42NzI4MzR6Ii8+PHBhdGggZmlsbD0iI0Y1QjE1OCIgZD0iTTY2Ny42NjEzNTcgOTEyLjczMTI3bDEwLjU1MTY1MiAxMC41NDI3NDctMTAuNTUxNjUyIDEwLjU1MTY1My0xMC41NDcyLTEwLjU0NzJ6TTY2Ny42NjEzNTcgOTYzLjE5NjY2MWwtMTAuNTQ3Mi0xMC41NDI3NDggMTAuNTQ3Mi0xMC41NTE2NTIgMTAuNTQ3MiAxMC41NTE2NTJ6TTY3MS44MjQxMzkgOTM3LjkyNjEyMmwxMC41NDcyLTEwLjU0NzIgMTAuNTQ3MiAxMC41NDcyLTEwLjU0NzIgMTAuNTQ3MnpNNjQyLjQ2NjUwNCA5MzcuOTM1MDI2bDEwLjU0NzItMTAuNTUxNjUyIDEwLjU0Mjc0OCAxMC41NDI3NDgtMTAuNTQyNzQ4IDEwLjU1MTY1MnoiLz48cGF0aCBmaWxsPSIjQTUzQTJBIiBkPSJNMzM0LjM4OTQyNiA2NTQuOTUwNGwtNi4wOTk0NzgtMy42MTA3MTNjLTAuMjAwMzQ4LTAuMTI0NjYxLTAuNDA5Ni0wLjI0OTMyMi0wLjYwNTQ5Ni0wLjM5NjI0NCIvPjxwYXRoIGZpbGw9IiNFRDlDM0UiIGQ9Ik00MzQuMDYwMjQzIDg0MS4xOTM3MzljLTMwLjc3Nzg3OCA0Mi41NzE2ODctMTI2LjAzNjU5MSAyNi4yNTAwMTctMjEyLjc2MDQ4Ni0zNi40NDU0OTYtODYuNzMyOC02Mi42OTU1MTMtMTMyLjA5MTU0OC0xNDguMDMwMzMtMTAxLjMxODEyMi0xOTAuNjA2NDY5IDMwLjc3Nzg3OC00Mi41NzYxMzkgMTI2LjAyNzY4Ny0yNi4yNTQ0NyAyMTIuNzY5MzkxIDM2LjQ0OTk0OCA4Ni43MjM4OTYgNjIuNjg2NjA5IDEzMi4wODcwOTYgMTQ4LjAzMDMzIDEwMS4zMDkyMTcgMTkwLjYwMjAxN3oiLz48cGF0aCBmaWxsPSIjQTUzQTJBIiBkPSJNMzc1Ljc3MjM4MyA4NzYuMDM2NDUyYy00Ni44ODEzOTEgMC0xMDcuMDY1ODc4LTIzLjI4MDQxNy0xNjAuOTkwNjA5LTYyLjI1OTItOTMuMTE3MjE3LTY3LjMxMjQxNy0xMzguNzIwODM1LTE1Ny44NjA3My0xMDMuODE1NzkxLTIwNi4xNDkwMDkgMTMuMzkyMTM5LTE4LjUyNTQ5NiAzNi42NjgxMDQtMjguMzE1ODI2IDY3LjMwNzk2NS0yOC4zMTU4MjYgNDYuODc2OTM5IDAgMTA3LjA2NTg3OCAyMy4yNzU5NjUgMTYxLjAwMzk2NSA2Mi4yNjM2NTMgNDMuMjkyOTM5IDMxLjI5NDMzIDc4LjEwNDQ4NyA2OS4xNjQ1MjIgOTguMDIzNTEzIDEwNi42Mzg0NjkgMjEuMjM2ODcgMzkuOTUzODA5IDIzLjI4OTMyMiA3NS4yODYyNjEgNS43ODMzNzQgOTkuNTA2MDg3LTEzLjM5NjU5MSAxOC41MjEwNDMtMzYuNjcyNTU3IDI4LjMxNTgyNi02Ny4zMTI0MTcgMjguMzE1ODI2eiBtLTE5Ny40OTg0MzUtMjc0LjQ2NzYxN2MtMTYuMTc0NzQ4IDAtMzcuODUyMzgzIDMuMzEyNDE3LTQ5LjI2Nzc1NyAxOS4wOTk4MjYtMjYuNjY4NTIyIDM2Ljg5NTE2NSAxOC41ODMzNzQgMTE3LjA2NTQ2MSA5OC44MTYgMTc1LjA1OTQ3OCA1MC4yNzM5NDggMzYuMzQzMDk2IDEwNS41Nzg4NTIgNTguMDQyOTkxIDE0Ny45NTAxOTIgNTguMDQyOTkxIDE2LjE3OTIgMCAzNy44NTY4MzUtMy4zMTI0MTcgNDkuMjY3NzU2LTE5LjA5OTgyNiAxMi4wODc2NTItMTYuNzE3OTEzIDkuMzg5NjM1LTQ0LjQyODI0My03LjM5OTUxMy03Ni4wMTE5NjUtMTguMzU2MzEzLTM0LjUzMTA2MS01MC44MTcxMTMtNjkuNzAzMjM1LTkxLjQwNzU4My05OS4wNDMwNjEtNTAuMjgyODUyLTM2LjM0NzU0OC0xMDUuNTkyMjA5LTU4LjA0NzQ0My0xNDcuOTU5MDk1LTU4LjA0NzQ0M3oiLz48cGF0aCBmaWxsPSIjRDA0RTM5IiBkPSJNNjYwLjY5NDQ3MyAxMjYuNTYyMzQ0YTQxLjIzMTU4MyAyMC4yMzUxMyAzNS44NTggMSAwIDY2LjgzNDAyNSA0OC4zMDUxNDIgNDEuMjMxNTgzIDIwLjIzNTEzIDM1Ljg1OCAxIDAtNjYuODM0MDI1LTQ4LjMwNTE0MloiLz48cGF0aCBmaWxsPSIjQTUzQTJBIiBkPSJNNzE1LjEyNTk4MyAxOTEuMDQ3MjM1Yy0xMS45MjI5MjIgMC0yNi4yNzIyNzgtNS40MzE2NTItMzkuMzg4MzgzLTE0LjkwNTg3OC0xMC4yODAwNy03LjQzNTEzLTE4LjYxNDUzOS0xNi41NTc2MzUtMjMuNDY3NDA5LTI1LjY4NDU5Mi04LjMzNDQ3LTE1LjY3MTY1Mi0zLjk1MzUzLTI1Ljc4Njk5MS0wLjYwMTA0My0zMC40MjE3MDQgNC40OTY2OTYtNi4yMjQxMzkgMTIuMTA5OTEzLTkuNjU2NzY1IDIxLjQyODMxMy05LjY1Njc2NSAxMS45MzYyNzggMCAyNi4yOTAwODcgNS40MzYxMDQgMzkuMzkyODM1IDE0LjkxMDMzIDEwLjI3NTYxNyA3LjQyNjIyNiAxOC42MDU2MzUgMTYuNTQ4NzMgMjMuNDYyOTU2IDI1LjY4NDU5MSA4LjMyNTU2NSAxNS42NzE2NTIgMy45NDAxNzQgMjUuNzg2OTkxIDAuNTg3Njg3IDMwLjQyMTcwNS00LjQ5MjI0MyA2LjIxOTY4Ny0xMi4xMDEwMDkgOS42NTIzMTMtMjEuNDE0OTU2IDkuNjUyMzEzeiBtLTQ1LjM2MzItNTcuOTA0OTc0Yy0wLjQ2MzAyNiAzLjAzNjM4MyA0LjMxODYwOSAxNC4zMjI2NDMgMTkuMDE1MjM0IDI0Ljk1ODg4NyAxMC45MDMzNzQgNy44NzU4OTYgMjAuNzYwNDg3IDEwLjY4MDc2NSAyNi4zNDc5NjYgMTAuNjgwNzY1IDEuOTQxMTQ4IDAgMi45MzM5ODMtMC4zMjUwMDkgMy4zMjU3NzQtMC40OTg2NDMgMC40Njc0NzgtMy4wMzE5My00LjI4NzQ0My0xNC4zMTgxOTEtMTkuMDA2MzMxLTI0Ljk1NDQzNS0xMC44OTQ0Ny03Ljg4NDgtMjAuNzUxNTgzLTEwLjY4OTY3LTI2LjM0Nzk2NS0xMC42ODk2Ny0xLjk0MTE0OCAwLTIuOTQ3MzM5IDAuMzI5NDYxLTMuMzM0Njc4IDAuNTAzMDk2eiIvPjxwYXRoIGZpbGw9IiNFRDlDM0UiIGQ9Ik00MDMuNDI5Mjg3IDc3OC40NzE1MTNjLTMwLjI1Njk3NC0zMC41OTA4ODctMzYuNDQ1NDk2LTc5LjA3NTA2MS0xMi4zMTAyNjEtMTE2LjgzODRsMjgwLjYyOTQyNi00NTMuNTAyODg3LTI1LjE0MTQyNi0xOC4xODI2NzgtMzQyLjYzOTMwNCA0MDguNjc4NGMtMjguMjk4MDE3IDM0Ljc3MTQ3OC03Ni4yNzAxOTEgNDQuMDgwOTc0LTExNC44MTcxMTMgMjQuOTQ5OTgyIi8+PHBhdGggZmlsbD0iI0QwNEUzOSIgZD0iTTQzMi41NjQzMTMgNTc5LjQ5OTQwOWw2LjUxNzk4MyA0LjcxOTMwNCAyMjkuNDUxNjg3LTM3OC40MjE0MjYtMjUuMTUwMzMxLTE4LjE4MjY3OC0yODEuOTMzOTEzIDM0Mi41MzY5MDQiLz48cGF0aCBmaWxsPSIjQTUzQTJBIiBkPSJNNDAzLjQyOTI4NyA3ODkuNjAxOTQ4YTExLjA4NTkxMyAxMS4wODU5MTMgMCAwIDEtNy45MTE1MTMtMy4zMDM1MTNjLTM0Ljc5MzczOS0zNS4xNzY2MjYtNDAuNDU2OTA0LTg4LjkwOTkxMy0xMy43NzUwMjYtMTMwLjY2MjRsMjc1LjA5NTM3NC00NDQuNTU4NDctOC4zNTY3MzEtNi4wNDE2LTMzNS45ODc3NTYgNDAwLjc0MDE3NGMtMzEuMTY5NjcgMzguMzAyMDUyLTgzLjk3MjQ1MiA0OS43NzUzMDQtMTI4LjI5Mzg0NCAyNy43NjM3NTdhMTEuMTMwNDM1IDExLjEzMDQzNSAwIDEgMSA5Ljg5NzE4My0xOS45NDEyODdjMzQuOTQ1MTEzIDE3LjM0NTY3IDc2LjU3MjkzOSA4LjI4OTk0OCAxMDEuMjM3OTgzLTIyLjAwMjY0NGwzNDIuNzQxNzA0LTQwOC44MDMwNjFhMTEuMTI1OTgzIDExLjEyNTk4MyAwIDAgMSAxNS4wNTI4LTEuODY5OTEzbDI1LjE0MTQyNiAxOC4xODI2NzlhMTEuMTMwNDM1IDExLjEzMDQzNSAwIDAgMSAyLjk0Mjg4NyAxNC44NzQ3MTNMNDAwLjU4NDM0OCA2NjcuNDg3NzIyYy0yMC43OTE2NTIgMzIuNTQwOTM5LTE2LjIzMjYyNiA3NS44NjUwNDMgMTAuNzYwOTA0IDEwMy4xNTY4NjlhMTEuMTMwNDM1IDExLjEzMDQzNSAwIDAgMS03LjkxNTk2NSAxOC45NTczNTd6Ii8+PHBhdGggZmlsbD0iI0E1M0EyQSIgZD0iTTY1OS4xNzEwNjEgMjEwLjE2OTMyMmExMS4xMzQ4ODcgMTEuMTM0ODg3IDAgMCAxLTkuMDE1NjUyLTE3LjY1Mjg3bDE5LjI2NDU1Ni0yNi42NTA3MTNhMTEuMTM0ODg3IDExLjEzNDg4NyAwIDAgMSAxOC4wNDQ2NjEgMTMuMDQ0ODdsLTE5LjI2NDU1NiAyNi42NTA3MTNhMTEuMTMwNDM1IDExLjEzMDQzNSAwIDAgMS05LjAyOTAwOSA0LjYwOHpNNDM5LjAyODg3IDU5NS4zMTc5ODNjLTEuOTk5MDI2IDAtNC4wMjAzMTMtMC41MzQyNjEtNS44NDU3MDUtMS42NjUxMTNhNjc0LjU5MzM5MSA2NzQuNTkzMzkxIDAgMCAxLTM5LjkyMjY0My0yNi43NzA5MjIgNjY3LjYxNjgzNSA2NjcuNjE2ODM1IDAgMCAxLTM3LjkzNjk3NC0yOS41MTc5MTMgMTEuMTMwNDM1IDExLjEzMDQzNSAwIDAgMSAxNC4zMDQ4MzUtMTcuMDYwNzMxIDY0OC44ODIwODcgNjQ4Ljg4MjA4NyAwIDAgMCAzNi42NzI1NTYgMjguNTMzOTgzIDY1Mi40MzkzNzQgNjUyLjQzOTM3NCAwIDAgMCAzOC42MDAzNDggMjUuODgwNDg3IDExLjEzMDQzNSAxMS4xMzA0MzUgMCAwIDEtNS44NzI0MTcgMjAuNjAwMjA5ek00NjkuMDY3Njg3IDQwMC42Nzc4NDNhMTEuMTMwNDM1IDExLjEzMDQzNSAwIDAgMS0xMC41MzgyOTYtNy41NTA4ODZjLTQuNTg1NzM5LTEzLjQ5MDA4Ny0zLjQ2ODI0My0yNC4xMzA3ODMgMy4zMzAyMjYtMzEuNjIzNzkyIDE0LjMxMzczOS0xNS43Nzg1MDQgNDUuNzUwNTM5LTguNDAxMjUyIDc5LjA0Mzg5Ni0wLjU4NzY4NyAxMy4zNzg3ODMgMy4xMzg3ODMgMjYuMDE0MDUyIDYuMTAzOTMgMzMuNDE4MDE3IDYuMjU5NzU3YTQyLjY1NjI3OCA0Mi42NTYyNzggMCAwIDAgNS44OTQ2NzktMC4yNDA0MTggMTAuNjcxODYxIDEwLjY3MTg2MSAwIDAgMC0wLjU1NjUyMi0wLjc0MzUxMyAxMS4xMzA0MzUgMTEuMTMwNDM1IDAgMSAxIDE2Ljg1MTQ3OC0xNC41NDA4YzEuOTMyMjQzIDIuMjM0OTkxIDExLjI2NCAxMy45NzA5MjIgNS43NzQ0NyAyNS42MzU2MTgtNS45MzQ3NDggMTIuNjEzMDA5LTIyLjg5MzA3OCAxMi4yNjU3MzktMjguNDI3MTMxIDEyLjE0OTk4Mi05Ljc1MDI2MS0wLjIwNDgtMjIuODYxOTEzLTMuMjgxMjUyLTM4LjAzOTM3NC02Ljg0NzQ0My0xNS41NTE0NDMtMy42NDYzMy01MS45NzAyMjYtMTIuMTk0NTA0LTU3LjQ3NzU2NS02LjEyNjE5MS0wLjI4NDkzOSAwLjMxMTY1Mi0wLjk1Mjc2NSAyLjk4NzQwOSAxLjI1OTk2NSA5LjQ5NjQ4N2ExMS4xMjU5ODMgMTEuMTI1OTgzIDAgMCAxLTEwLjUzMzg0MyAxNC43MTg4ODZ6TTM4OC4wNDcwMjYgNTA0LjM3MzQyNmExMS4xMzA0MzUgMTEuMTMwNDM1IDAgMCAxLTEwLjUzODI5Ni03LjU1MDg4N2MtNS4xNTU2MTctMTUuMTU1Mi0zLjk3NTc5MS0yNy4wMjQ2OTYgMy41MTI3NjYtMzUuMjc0NTc0IDE2LjA3NjgtMTcuNzE1MiA1NC4yNjc1NDgtOC43NTc0MjYgOTEuMTk4MzMtMC4wOTM0OTUgMTUuODcyIDMuNzIyMDE3IDMwLjg2NjkyMiA3LjI0MzY4NyAzOS43OTM1MzEgNy40MjYyMjYgNS4zMjkyNTIgMC4xMTEzMDQgOC40NTQ2NzgtMC4zODczMzkgMTAuMTQyMDUyLTAuODM3MDA5YTE5LjEzMDk5MSAxOS4xMzA5OTEgMCAwIDAtMi4yOTczMjItMy42MTUxNjUgMTEuMTMwNDM1IDExLjEzMDQzNSAwIDAgMSAxNi44NjAzODMtMTQuNTMxODk2YzIuMTMyNTkxIDIuNDcwOTU3IDEyLjQ0MzgyNiAxNS40MzEyMzUgNi40OTU3MjEgMjguMDY2NTA0LTYuNDQ2NzQ4IDEzLjY5MDQzNS0yNS40MjE5MTMgMTMuMzIwOTA0LTMxLjY2Mzg2MSAxMy4xNjk1MzEtMTEuMjc3MzU3LTAuMjM1OTY1LTI2LjYzMjkwNC0zLjgzNzc3NC00NC40MTkzMzktOC4wMTM5MTMtMjEuNzkzMzkxLTUuMTE1NTQ4LTYyLjM1MjY5Ni0xNC42Mzg3NDgtNjkuNjI3NTQ4LTYuNjIwMzgzLTEuMTM5NzU3IDEuMjU1NTEzLTEuNTQwNDUyIDUuNDUzOTEzIDEuMDc3NDI3IDEzLjE1NjE3NGExMS4xMjE1MyAxMS4xMjE1MyAwIDAgMS02Ljk1NDI5NiAxNC4xMTc4NDQgMTAuOTQzNDQzIDEwLjk0MzQ0MyAwIDAgMS0zLjU3OTU0OCAwLjYwMTA0M3pNNTM4LjA4NTI4NyAzMjMuMTU2NTkxYTExLjEzNDg4NyAxMS4xMzQ4ODcgMCAwIDEtMTAuNzg3NjE3LTguNDIzNTEzYy0yLjAzNDY0My04LjEwMjk1Ny0wLjQ0NTIxNy0xOC4wMzEzMDQtMC4wOTc5NDgtMTkuOTQxMjg3IDAuMTI5MTEzLTAuNzMwMTU3IDAuMzI5NDYxLTEuNDQ2OTU3IDAuNjA1NDk1LTIuMTM3MDQzIDUuOTQzNjUyLTE1LjAzOTQ0MyAxNi4xODgxMDQtMjUuNzY0NzMgMzAuNDU3MzIyLTMxLjg2ODY2MSAzMS4wMTM4NDMtMTMuMjcxOTMgNzEuMTk5MTY1IDAuNTgzMjM1IDc5LjIzMDg4NyAzLjYxNTE2NSAxLjYxNjEzOSAwLjE5NTg5NiAyLjgyNzEzIDAuMjMxNTEzIDMuNjk1MzA0IDAuMTk1ODk2LTEuMjE1NDQzLTUuNDg1MDc4IDEuOTQxMTQ4LTExLjAwMTMyMiA3LjM5OTUxMy0xMi44MTc4MDkgNS44MzIzNDgtMS45NTAwNTIgMTIuMTc2Njk2IDEuMzU3OTEzIDE0LjExNzg0NCA3LjE5NDcxMyAxLjc5NDIyNiA1LjQwMDQ4NyAxLjk3MjMxMyAxMy45ODg3My0zLjQzNzA3OCAyMC40MDQzMTMtNS40MDA0ODcgNi40MDIyMjYtMTQuMjMzNiA4LjcwODQ1Mi0yNi4yNjc4MjYgNi44Njk3MDVhMTEuMTk3MjE3IDExLjE5NzIxNyAwIDAgMS0yLjUwNjU3NC0wLjY5MDA4N2MtMC4zNjk1My0wLjE0NjkyMi0zOC4yMjE5MTMtMTUuMTU5NjUyLTYzLjUyMzYxOC00LjI4NzQ0NC04LjM2MTE4MyAzLjU5MjkwNC0xNC4yNjQ3NjUgOS42Mzg5NTctMTguMDE3OTQ4IDE4LjQ3MjA3LTAuMzkxNzkxIDIuODc2MTA0LTAuNjQxMTEzIDcuMjY1OTQ4LTAuMDYyMzMgOS41NTg4MTdhMTEuMTM0ODg3IDExLjEzNDg4NyAwIDAgMS0xMC44MDU0MjYgMTMuODU1MTY1eiIvPjxwYXRoIGZpbGw9IiNFRDlDM0UiIGQ9Ik04MTcuODEwOTIyIDYyNy43ODMyMzVjMjMuNzIxMTgzIDk0LjU5OTc5MS01LjU1NjMxMyAxODMuNDUxODI2LTY1LjQxNTc5MiAxOTguNDY0NTU2LTU5Ljg0MTY3IDE1LjAwODI3OC0xMjcuNTg1OTQ4LTQ5LjUxMjYyNi0xNTEuMzAyNjc4LTE0NC4xMzQ2NzgtMjMuNzMwMDg3LTk0LjU5MDg4NyA1LjU1MTg2MS0xODMuNDUxODI2IDY1LjQwNjg4Ny0xOTguNDYwMTA0IDU5LjgzNzIxNy0xNS4wMTI3MyAxMjcuNTkwNCA0OS41MTI2MjYgMTUxLjMxMTU4MyAxNDQuMTMwMjI2eiIvPjxwYXRoIGZpbGw9IiNBNTNBMkEiIGQ9Ik03NDMuMjc3MDc4IDc0Mi4zNjg4MzVjLTI3LjczNzA0MyAwLTU1Ljk2ODI3OC0zNS4zNTAyNjEtNjguNjU2OTc0LTg1Ljk3MTQ3OC0xNC4wMTU0NDMtNTUuODcwMzMtMi4zMTk1ODMtMTAzLjU5MzE4MyAyNy4yMTE2ODctMTExLjAwNjA1MyA1LjA0ODc2NS0xLjI1OTk2NSAxMC40MDAyNzgtMS4yNDY2MDkgMTUuNzY1MTQ4IDAuMDQ4OTc0IDAuMTM4MDE3IDAuMDI2NzEzIDAuMjc2MDM1IDAuMDYyMzMgMC40MDk2IDAuMDkzNDk2IDQuNDkyMjQzIDEuMTM5NzU3IDkuMDUxMjcgMy4yMTAwMTcgMTMuNTYxMzIyIDYuMTUyOTA0bDE5LjU3MTc1NiA5LjE4OTI4NyAwLjM3ODQzNSAwLjE2NDczMWMwLjI0NDg3IDAuMTA2ODUyIDAuNDgwODM1IDAuMjI3MDYxIDAuNzIxMjUyIDAuMzUxNzIxIDE5LjkxMDEyMiA5LjgxNzA0MyAzNi45MTc0MjYgMzQuNDM3NTY1IDQ0LjQ0MTYgNjQuMzkxNzkyIDcuNTM3NTMgMzAuMTU0NTc0IDQuMDczNzM5IDYwLjA2ODczLTkuMDQyMzY1IDc4LjA4MjIyNmExMC43Mzg2NDMgMTAuNzM4NjQzIDAgMCAxLTAuNDQwNzY1IDAuNjAxMDQzbC0xMi45NjQ3MzEgMTcuMzc2ODM1Yy0yLjU2NDQ1MiA0LjcwNTk0OC01LjYwMDgzNSA4LjY3MjgzNS05LjAyOTAwOCAxMS44MTE2MTdhMTMuMjY3NDc4IDEzLjI2NzQ3OCAwIDAgMS0wLjUzNDI2MSAwLjQ2MzAyN2MtNC4wODI2NDMgMy41OTczNTctOC42ODE3MzkgNi4wNTA1MDQtMTMuNjg1OTgzIDcuMzA2MDE3YTMxLjY1NDk1NyAzMS42NTQ5NTcgMCAwIDEtNy43MDY3MTMgMC45NDM4NjF6IG0tMzMuNzc4NjQzLTE3NS42NTE2MThjLTAuNzg4MDM1IDAtMS41MjcwOTYgMC4wOTM0OTYtMi4yNTcyNTIgMC4yNzYwMzUtMTIuMzEwMjYxIDMuMDg1MzU3LTIyLjcyODM0OCAzNy4zNDkyODctMTEuMDMyNDg3IDgzLjk5NDcxMyAxMC4zNjQ2NjEgNDEuMzQ3MzM5IDMyLjcwNTY3IDY5LjEyIDQ3LjA2MzkzIDY5LjEyIDAuODAxMzkxIDAgMS41NTM4MDktMC4wOTM0OTYgMi4yOTczMjItMC4yODA0ODcgMS41ODk0MjYtMC40MDA2OTYgMy4xMjk4NzgtMS4yNjg4NyA0LjU3NjgzNS0yLjU5MTE2NWwwLjMyNTAwOC0wLjI4NDkzOWMxLjYwMjc4My0xLjU0NDkwNCAzLjEwNzYxNy0zLjY0NjMzIDQuNDc0NDM1LTYuMjU1MzA0IDAuMjc2MDM1LTAuNTIwOTA0IDAuNTg3Njg3LTEuMDE5NTQ4IDAuOTM5NDA5LTEuNDkxNDc5bDEzLjU0Nzk2NS0xOC4xNTU5NjUgMC4xMTU3NTctMC4xNTU4MjZjOS4zMDUwNDMtMTIuOTI0NjYxIDExLjQwNjQ3LTM2LjIyMjg4NyA1LjUzNDA1Mi01OS42OTAyOTYtNS45MTI0ODctMjMuNTI5NzM5LTE4LjgyODI0My00My4xMzI2NjEtMzIuOTAxNTY2LTQ5LjkzNTU4MmwtMC4wMzU2MTctMC4wMTc4MDktMC4yODQ5MzktMC4xMjQ2NjEtMjAuNTA2NzEzLTkuNjM0NTA0YTExLjU0NDQ4NyAxMS41NDQ0ODcgMCAwIDEtMS40OTU5MzEtMC44NTAzNjVjLTIuNTI0MzgzLTEuNzA1MTgzLTQuOTEwNzQ4LTIuODY3Mi03LjA4Nzg2LTMuNDU0ODg3YTEyLjEwMTAwOSAxMi4xMDEwMDkgMCAwIDAtMy4yNzIzNDgtMC40Njc0Nzl6Ii8+PHBhdGggZmlsbD0iI0E1M0EyQSIgZD0iTTczNC43NDY3MTMgODM5LjU0NjQzNWMtNjEuMjMwNzQ4IDAtMTIxLjk4NTExMy02NS4wNzI5NzQtMTQ0LjQ1NTIzNS0xNTQuNzMwODUyLTExLjk4MDgtNDcuNzYyOTIyLTExLjQxOTgyNi05NS44MDE4NzggMS41ODA1MjItMTM1LjI2MTQ5NiAxMy41OTI0ODctNDEuMjQwNDg3IDM5LjEzMDE1Ny02OC40Nzg4ODcgNzEuOTExNTEzLTc2LjcwMjA1MmE4My43MjMxMyA4My43MjMxMyAwIDAgMSAyMC4zNTUzMzktMi41MDIxMjJjNjEuMjM1MiAwIDEyMS45ODUxMTMgNjUuMDY4NTIyIDE0NC40NTk2ODcgMTU0LjcyMTk0OCAyNS4xNzcwNDMgMTAwLjM5NjUyMi03LjgwMDIwOSAxOTUuNDg2MDUyLTczLjUwNTM5MSAyMTEuOTYzNTQ4YTgzLjIyNDQ4NyA4My4yMjQ0ODcgMCAwIDEtMjAuMzQ2NDM1IDIuNTExMDI2eiBtLTUwLjYwMzQwOS0zNDYuOTMxMmMtNS4wNjY1NzQgMC0xMC4wODg2MjYgMC42MTQ0LTE0LjkzNzA0MyAxLjgzNDI5NS0yNS4xMTkxNjUgNi4yOTk4MjYtNDUuMDY5MzU3IDI4LjM0MjUzOS01Ni4xODY0MzUgNjIuMDcyMjA5LTExLjcwNDc2NSAzNS41MTA1MzktMTIuMTA1NDYxIDc5LjE1MDc0OC0xLjEzNTMwNCAxMjIuODg0NDUyIDE5LjcwNTMyMiA3OC42MDMxMyA3Mi41MjE0NjEgMTM3Ljg4MzgyNiAxMjIuODY2NjQzIDEzNy44ODM4MjYgNS4wNjIxMjIgMCAxMC4wODg2MjYtMC42MTg4NTIgMTQuOTMyNTkyLTEuODM0Mjk1IDUzLjgwNDUyMi0xMy40OTQ1MzkgNzkuNTIwMjc4LTk2LjQ2OTcwNCA1Ny4zMzA2NDMtMTg0Ljk2MTExMy0xOS43MDUzMjItNzguNjA3NTgzLTcyLjUyNTkxMy0xMzcuODc5Mzc0LTEyMi44NzEwOTYtMTM3Ljg3OTM3NHoiLz48cGF0aCBmaWxsPSIjRDA0RTM5IiBkPSJNNzUwLjQxMzkxMyA2MzkuMjAzMDYxczk1LjEyOTYtNDcuNzEzOTQ4IDExNS41MTE2NTIgNTYuMTAxODQzYzMuNTQzOTMgMTcuOTgyMzMgOC4wNDA2MjYgNjguODYxNzc0IDYxLjM0MjA1MiAzMi4xODQ3NjYgMCAwLTE4LjM2OTY3IDI4LjA3NTQwOS0xNS4wMjYwODcgNDQuNzg4ODY5IDMuMzM5MTMgMTYuNzE3OTEzLTAuMDg5MDQzIDI0LjYzODMzLTE2LjcyMjM2NSAzMy4yMzEwMjYtNTcuNDk1Mzc0IDI5LjY3ODE5MS01OS45ODg1OTEtMzUuMzEwMTkxLTYzLjUyMzYxNy01My4yOTI1MjItMjAuMzgyMDUyLTEwMy44MTEzMzktODEuNTgxNjM1LTExMy4wMTM5ODMtODEuNTgxNjM1LTExMy4wMTM5ODIiLz48cGF0aCBmaWxsPSIjQTUzQTJBIiBkPSJNODY5LjMzMTQ3OCA4MjQuMjkzMjg3Yy0zNy43MTg4MTcgMC00NC4zNjE0NjEtNDQuNDI4MjQzLTQ3LjIwMTk0OC02My40MDM0MDktMC4zODI4ODctMi41NTEwOTYtMC43MDc4OTYtNC43NzcxODMtMS4wNTA3MTMtNi41MjI0MzUtMTguNDMyLTkzLjg1NjI3OC03MC4yMzMwNDMtMTAzLjc5MzUzLTcyLjQzMjQxNy0xMDQuMTcxOTY1YTExLjIwNjEyMiAxMS4yMDYxMjIgMCAwIDEtOS4xODQ4MzUtOS4zNDUxMTMgMTEuMTA4MTc0IDExLjEwODE3NCAwIDAgMSA1Ljk2MTQ2MS0xMS41OTM0NjFjMC45ODgzODMtMC40OTQxOTEgMjQuNDk1ODYxLTEyLjEyNzcyMiA1MS43OTY1OTEtMTIuMTI3NzIxIDI0LjE2NjQgMCA2Ni42NDQ1OTEgOS44NzQ5MjIgNzkuNjMxNTgzIDc2LjAyOTc3NCAwLjI2MjY3OCAxLjMyMjI5NiAwLjUyOTgwOSAyLjgyNzEzIDAuODE5MiA0LjQ2MTA3OCAzLjQ4MTYgMTkuNTc2MjA5IDcuNjUzMjg3IDMxLjcxMjgzNSAxNy42NzUxMyAzMS43MTI4MzUgNC4zODUzOTEgMCAxMi4zOTA0LTEuOTA5OTgzIDI1LjYyMjI2MS0xMS4wMTQ2NzlhMTEuMTMwNDM1IDExLjEzMDQzNSAwIDAgMSAxNS42MjI2NzkgMTUuMjYyMDUyYy02LjM5MzMyMiA5LjgwODEzOS0xNS4wODg0MTcgMjguMjA0NTIyLTEzLjQyNzc1NyAzNi41MDc4MjcgNC4zODUzOTEgMjEuOTYyNTc0LTEuOTMyMjQzIDM0LjY2NDYyNi0yMi41MjggNDUuMzA1MzIxLTExLjU5NzkxMyA1Ljk4ODE3NC0yMS44MzM0NjEgOC44OTk4OTYtMzEuMzAzMjM1IDguODk5ODk2eiBtLTg4LjE1MzA0My0xODMuMzUzODc4YzIxLjUzNTE2NSAxNC41MTg1MzkgNDkuMTc0MjYxIDQ1LjE0MDU5MSA2MS43NDI3NDggMTA5LjEzNjEzOSAwLjM5NjI0MyAyLjAxMjM4MyAwLjc4ODAzNSA0LjU3NjgzNSAxLjIyNDM0NyA3LjUxNTI2OSAzLjk4OTE0OCAyNi42NzI5NzQgOS43OTkyMzUgNDQuNDM3MTQ4IDI1LjE4MTQ5NiA0NC40MzcxNDggNS43NTIyMDkgMCAxMi44NDQ1MjItMi4xNTQ4NTIgMjEuMDg1NDk2LTYuNDExMTMgMTIuNTM3MzIyLTYuNDczNDYxIDEzLjIyNzQwOS05LjU3MjE3NCAxMC45MTIyNzgtMjEuMTYxMTgzLTEuNDgyNTc0LTcuMzk5NTEzLTAuMTAyNC0xNS44MDA3NjUgMi40MDg2MjYtMjMuNzM4OTkxYTQyLjAzNzQyNiA0Mi4wMzc0MjYgMCAwIDEtOC40MDEyNTIgMC44NzcwNzhjLTMwLjY4ODgzNSAwLTM2LjkyNjMzLTM1LjA5NjQ4Ny0zOS41ODg3MzEtNTAuMDc4MDUyLTAuMjY3MTMtMS40ODI1NzQtMC41MDc1NDgtMi44NTM4NDMtMC43NDc5NjUtNC4wNjAzODMtNy42NzEwOTYtMzkuMDcyMjc4LTI2LjU3NTAyNi01OC4wNjUyNTItNTcuNzg0NzY1LTU4LjA2NTI1Mi01LjU5NjM4MyAwLTExLjAzMjQ4NyAwLjYyMzMwNC0xNi4wMzIyNzggMS41NDkzNTd6Ii8+PC9zdmc+;" vertex="1" parent="1">
          <mxGeometry x="204" y="520" width="90" height="90" as="geometry" />
        </mxCell>
      </root>
    </mxGraphModel>
  </diagram>
</mxfile>
